<svg preserveAspectRatio="none" width="100%" height="100%" overflow="visible" style="display: block;" viewBox="0 0 115.431 40.1801" fill="none" xmlns="http://www.w3.org/2000/svg">
<g id="Frame 1000005638" opacity="0.8">
<rect x="0.5" y="0.5" width="114.431" height="39.1801" rx="7.5" stroke="var(--stroke-0, white)"/>
<g id="Vector">
<path d="M100.847 27.416C101.055 28.168 101.619 28.544 102.539 28.544C103.131 28.544 103.579 28.344 103.883 27.944L105.131 28.664C104.539 29.52 103.667 29.948 102.515 29.948C101.523 29.948 100.727 29.648 100.127 29.048C99.5266 28.448 99.2266 27.692 99.2266 26.78C99.2266 25.876 99.5226 25.124 100.115 24.524C100.707 23.916 101.467 23.612 102.395 23.612C103.275 23.612 103.999 23.916 104.567 24.524C105.143 25.132 105.431 25.884 105.431 26.78C105.431 26.98 105.411 27.192 105.371 27.416H100.847ZM100.823 26.216H103.883C103.795 25.808 103.611 25.504 103.331 25.304C103.059 25.104 102.747 25.004 102.395 25.004C101.979 25.004 101.635 25.112 101.363 25.328C101.091 25.536 100.911 25.832 100.823 26.216Z" fill="white"/>
<path d="M97.0319 24.812C97.1759 24.428 97.4119 24.14 97.7399 23.948C98.0759 23.756 98.4479 23.66 98.8559 23.66V25.388C98.3839 25.332 97.9599 25.428 97.5839 25.676C97.2159 25.924 97.0319 26.336 97.0319 26.912V29.78H95.4839V23.78H97.0319V24.812Z" fill="white"/>
<path d="M93.4709 29.036C92.8549 29.644 92.1029 29.948 91.2149 29.948C90.3269 29.948 89.5749 29.644 88.9589 29.036C88.3509 28.42 88.0469 27.668 88.0469 26.78C88.0469 25.892 88.3509 25.144 88.9589 24.536C89.5749 23.92 90.3269 23.612 91.2149 23.612C92.1029 23.612 92.8549 23.92 93.4709 24.536C94.0869 25.144 94.3949 25.892 94.3949 26.78C94.3949 27.668 94.0869 28.42 93.4709 29.036ZM90.0509 27.968C90.3629 28.28 90.7509 28.436 91.2149 28.436C91.6789 28.436 92.0669 28.28 92.3789 27.968C92.6909 27.656 92.8469 27.26 92.8469 26.78C92.8469 26.3 92.6909 25.904 92.3789 25.592C92.0669 25.28 91.6789 25.124 91.2149 25.124C90.7509 25.124 90.3629 25.28 90.0509 25.592C89.7469 25.904 89.5949 26.3 89.5949 26.78C89.5949 27.26 89.7469 27.656 90.0509 27.968Z" fill="white"/>
<path d="M87.455 25.268H86.099V27.764C86.099 27.972 86.151 28.124 86.255 28.22C86.359 28.316 86.511 28.372 86.711 28.388C86.911 28.396 87.159 28.392 87.455 28.376V29.78C86.391 29.9 85.639 29.8 85.199 29.48C84.767 29.16 84.551 28.588 84.551 27.764V25.268H83.507V23.78H84.551V22.568L86.099 22.1V23.78H87.455V25.268Z" fill="white"/>
<path d="M80.1427 29.948C79.3107 29.948 78.6107 29.764 78.0427 29.396C77.4747 29.02 77.0747 28.512 76.8427 27.872L78.2587 27.044C78.5867 27.9 79.2307 28.328 80.1907 28.328C80.6547 28.328 80.9947 28.244 81.2107 28.076C81.4267 27.908 81.5347 27.696 81.5347 27.44C81.5347 27.144 81.4027 26.916 81.1387 26.756C80.8747 26.588 80.4027 26.408 79.7227 26.216C79.3467 26.104 79.0267 25.992 78.7627 25.88C78.5067 25.768 78.2467 25.62 77.9827 25.436C77.7267 25.244 77.5307 25.004 77.3947 24.716C77.2587 24.428 77.1907 24.092 77.1907 23.708C77.1907 22.948 77.4587 22.344 77.9947 21.896C78.5387 21.44 79.1907 21.212 79.9507 21.212C80.6307 21.212 81.2267 21.38 81.7387 21.716C82.2587 22.044 82.6627 22.504 82.9507 23.096L81.5587 23.9C81.2227 23.18 80.6867 22.82 79.9507 22.82C79.6067 22.82 79.3347 22.9 79.1347 23.06C78.9427 23.212 78.8467 23.412 78.8467 23.66C78.8467 23.924 78.9547 24.14 79.1707 24.308C79.3947 24.468 79.8187 24.644 80.4427 24.836C80.6987 24.916 80.8907 24.98 81.0187 25.028C81.1547 25.068 81.3347 25.136 81.5587 25.232C81.7907 25.32 81.9667 25.404 82.0867 25.484C82.2147 25.564 82.3587 25.672 82.5187 25.808C82.6787 25.944 82.7987 26.084 82.8787 26.228C82.9667 26.372 83.0387 26.548 83.0947 26.756C83.1587 26.956 83.1907 27.176 83.1907 27.416C83.1907 28.192 82.9067 28.808 82.3387 29.264C81.7787 29.72 81.0467 29.948 80.1427 29.948Z" fill="white"/>
<path d="M70.183 23.612C70.991 23.612 71.679 23.92 72.247 24.536C72.823 25.144 73.111 25.892 73.111 26.78C73.111 27.668 72.823 28.42 72.247 29.036C71.679 29.644 70.991 29.948 70.183 29.948C69.343 29.948 68.695 29.656 68.239 29.072V32.18H66.691V23.78H68.239V24.488C68.695 23.904 69.343 23.612 70.183 23.612ZM68.707 28.004C69.019 28.316 69.415 28.472 69.895 28.472C70.375 28.472 70.771 28.316 71.083 28.004C71.403 27.684 71.563 27.276 71.563 26.78C71.563 26.284 71.403 25.88 71.083 25.568C70.771 25.248 70.375 25.088 69.895 25.088C69.415 25.088 69.019 25.248 68.707 25.568C68.395 25.88 68.239 26.284 68.239 26.78C68.239 27.276 68.395 27.684 68.707 28.004Z" fill="white"/>
<path d="M62.6713 23.612C63.4793 23.612 64.1673 23.92 64.7353 24.536C65.3113 25.144 65.5993 25.892 65.5993 26.78C65.5993 27.668 65.3113 28.42 64.7353 29.036C64.1673 29.644 63.4793 29.948 62.6713 29.948C61.8313 29.948 61.1833 29.656 60.7273 29.072V32.18H59.1793V23.78H60.7273V24.488C61.1833 23.904 61.8313 23.612 62.6713 23.612ZM61.1953 28.004C61.5073 28.316 61.9033 28.472 62.3833 28.472C62.8633 28.472 63.2593 28.316 63.5713 28.004C63.8913 27.684 64.0513 27.276 64.0513 26.78C64.0513 26.284 63.8913 25.88 63.5713 25.568C63.2593 25.248 62.8633 25.088 62.3833 25.088C61.9033 25.088 61.5073 25.248 61.1953 25.568C60.8833 25.88 60.7273 26.284 60.7273 26.78C60.7273 27.276 60.8833 27.684 61.1953 28.004Z" fill="white"/>
<path d="M56.6356 29.78L56.1316 28.268H52.7836L52.2796 29.78H50.4916L53.4316 21.38H55.4836L58.4356 29.78H56.6356ZM53.3116 26.72H55.6156L54.4636 23.288L53.3116 26.72Z" fill="white"/>
<path d="M42.499 27.416C42.707 28.168 43.271 28.544 44.191 28.544C44.783 28.544 45.231 28.344 45.535 27.944L46.783 28.664C46.191 29.52 45.319 29.948 44.167 29.948C43.175 29.948 42.379 29.648 41.779 29.048C41.179 28.448 40.879 27.692 40.879 26.78C40.879 25.876 41.175 25.124 41.767 24.524C42.359 23.916 43.119 23.612 44.047 23.612C44.927 23.612 45.651 23.916 46.219 24.524C46.795 25.132 47.083 25.884 47.083 26.78C47.083 26.98 47.063 27.192 47.023 27.416H42.499ZM42.475 26.216H45.535C45.447 25.808 45.263 25.504 44.983 25.304C44.711 25.104 44.399 25.004 44.047 25.004C43.631 25.004 43.287 25.112 43.015 25.328C42.743 25.536 42.563 25.832 42.475 26.216Z" fill="white"/>
<path d="M37.6012 23.612C38.2572 23.612 38.7972 23.832 39.2212 24.272C39.6532 24.712 39.8692 25.32 39.8692 26.096V29.78H38.3212V26.288C38.3212 25.888 38.2132 25.584 37.9972 25.376C37.7812 25.16 37.4932 25.052 37.1332 25.052C36.7332 25.052 36.4132 25.176 36.1732 25.424C35.9332 25.672 35.8132 26.044 35.8132 26.54V29.78H34.2652V21.38H35.8132V24.452C36.1892 23.892 36.7852 23.612 37.6012 23.612Z" fill="white"/>
<path d="M33.1738 25.268H31.8178V27.764C31.8178 27.972 31.8698 28.124 31.9738 28.22C32.0778 28.316 32.2298 28.372 32.4298 28.388C32.6298 28.396 32.8778 28.392 33.1738 28.376V29.78C32.1098 29.9 31.3578 29.8 30.9178 29.48C30.4858 29.16 30.2698 28.588 30.2698 27.764V25.268H29.2258V23.78H30.2698V22.568L31.8178 22.1V23.78H33.1738V25.268Z" fill="white"/>
<path d="M23.152 23.612C23.808 23.612 24.348 23.832 24.772 24.272C25.204 24.712 25.42 25.32 25.42 26.096V29.78H23.872V26.288C23.872 25.888 23.764 25.584 23.548 25.376C23.332 25.16 23.044 25.052 22.684 25.052C22.284 25.052 21.964 25.176 21.724 25.424C21.484 25.672 21.364 26.044 21.364 26.54V29.78H19.816V23.78H21.364V24.452C21.74 23.892 22.336 23.612 23.152 23.612Z" fill="white"/>
<path d="M17.4521 28.688C16.6041 29.528 15.5721 29.948 14.3561 29.948C13.1401 29.948 12.1081 29.528 11.2601 28.688C10.4201 27.84 10.0001 26.804 10.0001 25.58C10.0001 24.356 10.4201 23.324 11.2601 22.484C12.1081 21.636 13.1401 21.212 14.3561 21.212C15.5721 21.212 16.6041 21.636 17.4521 22.484C18.3001 23.324 18.7241 24.356 18.7241 25.58C18.7241 26.804 18.3001 27.84 17.4521 28.688ZM12.4241 27.56C12.9441 28.072 13.5881 28.328 14.3561 28.328C15.1241 28.328 15.7681 28.072 16.2881 27.56C16.8081 27.04 17.0681 26.38 17.0681 25.58C17.0681 24.78 16.8081 24.12 16.2881 23.6C15.7681 23.08 15.1241 22.82 14.3561 22.82C13.5881 22.82 12.9441 23.08 12.4241 23.6C11.9041 24.12 11.6441 24.78 11.6441 25.58C11.6441 26.38 11.9041 27.04 12.4241 27.56Z" fill="white"/>
<path d="M89.9343 13.412C90.7103 13.876 91.0983 14.552 91.0983 15.44C91.0983 16.216 90.8263 16.828 90.2823 17.276C89.7463 17.724 89.0143 17.948 88.0863 17.948C87.1503 17.948 86.4143 17.724 85.8783 17.276C85.3423 16.828 85.0743 16.216 85.0743 15.44C85.0743 14.552 85.4583 13.876 86.2263 13.412C85.6423 12.988 85.3503 12.408 85.3503 11.672C85.3503 10.896 85.6103 10.292 86.1303 9.86003C86.6583 9.42803 87.3103 9.21203 88.0863 9.21203C88.8623 9.21203 89.5103 9.42803 90.0303 9.86003C90.5503 10.292 90.8103 10.896 90.8103 11.672C90.8103 12.416 90.5183 12.996 89.9343 13.412ZM88.8663 11.036C88.6663 10.86 88.4063 10.772 88.0863 10.772C87.7663 10.772 87.5063 10.86 87.3063 11.036C87.1063 11.212 87.0063 11.452 87.0063 11.756C87.0063 12.06 87.1063 12.304 87.3063 12.488C87.5063 12.664 87.7663 12.752 88.0863 12.752C88.4063 12.752 88.6663 12.664 88.8663 12.488C89.0663 12.304 89.1663 12.06 89.1663 11.756C89.1663 11.452 89.0663 11.212 88.8663 11.036ZM87.0903 16.088C87.3463 16.288 87.6783 16.388 88.0863 16.388C88.4943 16.388 88.8223 16.288 89.0703 16.088C89.3263 15.88 89.4543 15.592 89.4543 15.224C89.4543 14.864 89.3263 14.584 89.0703 14.384C88.8223 14.176 88.4943 14.072 88.0863 14.072C87.6783 14.072 87.3463 14.176 87.0903 14.384C86.8423 14.584 86.7183 14.864 86.7183 15.224C86.7183 15.592 86.8423 15.88 87.0903 16.088Z" fill="white"/>
<path d="M83.7954 17.636C83.5954 17.836 83.3554 17.936 83.0754 17.936C82.7954 17.936 82.5554 17.836 82.3554 17.636C82.1554 17.436 82.0553 17.196 82.0553 16.916C82.0553 16.636 82.1554 16.396 82.3554 16.196C82.5554 15.996 82.7954 15.896 83.0754 15.896C83.3554 15.896 83.5954 15.996 83.7954 16.196C83.9954 16.396 84.0953 16.636 84.0953 16.916C84.0953 17.196 83.9954 17.436 83.7954 17.636Z" fill="white"/>
<path d="M81.2984 14.816V16.352H80.3984V17.78H78.7304V16.352H74.7584V14.816L77.5544 9.38003H79.3304L76.5464 14.816H78.7304V12.824H80.3984V14.816H81.2984Z" fill="white"/>
<path d="M64.4109 17.984L65.6949 14.168L62.5989 12.092H66.3909L67.7469 8.00003L69.1269 12.092H72.8949L69.7989 14.168L71.1069 17.984L67.7469 15.548L64.4109 17.984Z" fill="var(--fill-0, #FFDF00)"/>
<path d="M54.8913 17.984L56.1753 14.168L53.0793 12.092H56.8713L58.2273 8.00003L59.6073 12.092H63.3753L60.2793 14.168L61.5873 17.984L58.2273 15.548L54.8913 17.984Z" fill="var(--fill-0, #FFDF00)"/>
<path d="M45.3718 17.984L46.6558 14.168L43.5598 12.092H47.3518L48.7078 8.00003L50.0878 12.092H53.8558L50.7598 14.168L52.0678 17.984L48.7078 15.548L45.3718 17.984Z" fill="var(--fill-0, #FFDF00)"/>
<path d="M35.8523 17.984L37.1363 14.168L34.0403 12.092H37.8323L39.1883 8.00003L40.5683 12.092H44.3363L41.2403 14.168L42.5483 17.984L39.1883 15.548L35.8523 17.984Z" fill="var(--fill-0, #FFDF00)"/>
<path d="M26.3328 17.984L27.6168 14.168L24.5208 12.092H28.3128L29.6688 8.00003L31.0488 12.092H34.8168L31.7208 14.168L33.0288 17.984L29.6688 15.548L26.3328 17.984Z" fill="var(--fill-0, #FFDF00)"/>
</g>
</g>
</svg>
