<svg preserveAspectRatio="none" width="100%" height="100%" overflow="visible" style="display: block;" viewBox="0 0 20 20" fill="none" xmlns="http://www.w3.org/2000/svg">
<g id="Payment Icon">
<g id="Vector">
<path d="M17.1242 3.4344C17.2867 3.4344 17.4183 3.56608 17.4183 3.72851V4.09188C17.4183 4.25432 17.2867 4.386 17.1242 4.386H16.4547V5.05553C16.4547 5.21796 16.323 5.34964 16.1606 5.34964H15.7972C15.6348 5.34964 15.5031 5.21796 15.5031 5.05553V4.386H14.8336C14.6711 4.386 14.5394 4.25432 14.5394 4.09188V3.72851C14.5394 3.56608 14.6711 3.4344 14.8336 3.4344H15.5031V2.76487C15.5031 2.60243 15.6348 2.47075 15.7972 2.47075H16.1606C16.323 2.47075 16.4547 2.60243 16.4547 2.76487V3.4344H17.1242Z" fill="var(--fill-0, white)" fill-opacity="0.8"/>
<path d="M17.7861 6.10601C18.1347 5.93163 18.5614 6.07213 18.7092 6.43288C19.4629 8.27283 19.6166 10.3108 19.1378 12.2531C18.6025 14.4245 17.3114 16.3343 15.4959 17.6404C13.6804 18.9464 11.4592 19.5632 9.23019 19.3804C7.00123 19.1975 4.91022 18.2269 3.33184 16.6425C1.75346 15.0581 0.790869 12.9634 0.616556 10.7337C0.442242 8.50407 1.0676 6.28521 2.38056 4.47473C3.69353 2.66425 5.6083 1.38048 7.78176 0.853453C9.72582 0.382053 11.7632 0.543635 13.6003 1.30433C13.9604 1.45348 14.0993 1.88071 13.9236 2.22871C13.7479 2.57672 13.3242 2.71322 12.9621 2.56885C11.4264 1.95661 9.73238 1.83314 8.11445 2.22546C6.267 2.67343 4.63945 3.76464 3.52343 5.30354C2.40741 6.84245 1.87586 8.72848 2.02402 10.6237C2.17219 12.5189 2.99039 14.2994 4.33201 15.6462C5.67364 16.9929 7.451 17.8179 9.34562 17.9733C11.2402 18.1288 13.1283 17.6044 14.6715 16.4943C16.2146 15.3842 17.312 13.7608 17.7671 11.9151C18.1656 10.2987 18.0486 8.60426 17.4423 7.06619C17.2993 6.70351 17.4374 6.28039 17.7861 6.10601Z" fill="var(--fill-0, white)" fill-opacity="0.8"/>
<path d="M7.09372 6.69965H8.55261V13.3007H6.85689V8.4725L5.70115 8.76483L5.29379 7.3409L7.09372 6.69965Z" fill="var(--fill-0, white)" fill-opacity="0.8"/>
<path d="M13.2709 9.84928C13.8583 10.2139 14.1519 10.7451 14.1519 11.443C14.1519 12.059 13.9372 12.5463 13.5077 12.9046C13.0783 13.2567 12.4688 13.4327 11.6794 13.4327C10.8836 13.4327 10.271 13.2567 9.84157 12.9046C9.41212 12.5463 9.19739 12.059 9.19739 11.443C9.19739 10.7451 9.49106 10.2139 10.0784 9.84928C9.64263 9.52866 9.42475 9.08859 9.42475 8.52908C9.42475 7.91298 9.63632 7.43205 10.0595 7.08629C10.4826 6.74052 11.0226 6.56763 11.6794 6.56763C12.3299 6.56763 12.8667 6.74366 13.2899 7.09572C13.713 7.44148 13.9246 7.91927 13.9246 8.52908C13.9246 9.08859 13.7067 9.52866 13.2709 9.84928ZM11.6794 8.0953C11.4773 8.0953 11.3162 8.14873 11.1963 8.25561C11.0826 8.35619 11.0257 8.49136 11.0257 8.6611C11.0257 8.83713 11.0826 8.97543 11.1963 9.07602C11.3162 9.17661 11.4773 9.2269 11.6794 9.2269C11.8689 9.2269 12.0236 9.17661 12.1436 9.07602C12.2636 8.96915 12.3236 8.83084 12.3236 8.6611C12.3236 8.49136 12.2636 8.35619 12.1436 8.25561C12.0236 8.14873 11.8689 8.0953 11.6794 8.0953ZM11.6794 11.8862C11.9131 11.8862 12.1025 11.8264 12.2478 11.707C12.393 11.5813 12.4657 11.4147 12.4657 11.2072C12.4657 10.9935 12.393 10.8269 12.2478 10.7074C12.1025 10.5817 11.9131 10.5188 11.6794 10.5188C11.4394 10.5188 11.2468 10.5817 11.1015 10.7074C10.9626 10.8269 10.8931 10.9935 10.8931 11.2072C10.8931 11.4147 10.9626 11.5813 11.1015 11.707C11.2468 11.8264 11.4394 11.8862 11.6794 11.8862Z" fill="var(--fill-0, white)" fill-opacity="0.8"/>
</g>
</g>
</svg>
