<svg style="display: block;" viewBox="0 0 35.4114 20" fill="none" xmlns="http://www.w3.org/2000/svg">
<g id="Payment Icon">
<g id="Vector">
<path d="M33.1242 3.43391C33.2866 3.43391 33.4183 3.56559 33.4183 3.72803V4.09139C33.4183 4.25383 33.2866 4.38551 33.1242 4.38551H32.4547V5.05504C32.4547 5.21747 32.323 5.34916 32.1606 5.34916H31.7972C31.6348 5.34916 31.5031 5.21747 31.5031 5.05504V4.38551H30.8335C30.6711 4.38551 30.5394 4.25383 30.5394 4.09139V3.72803C30.5394 3.56559 30.6711 3.43391 30.8335 3.43391H31.5031V2.76438C31.5031 2.60194 31.6348 2.47026 31.7972 2.47026H32.1606C32.323 2.47026 32.4547 2.60194 32.4547 2.76438V3.43391H33.1242Z" fill="var(--fill-0, white)" fill-opacity="0.8"/>
<path d="M33.7861 6.10552C34.1347 5.93114 34.5614 6.07164 34.7092 6.4324C35.4628 8.27234 35.6166 10.3103 35.1378 12.2526C34.6024 14.424 33.3114 16.3338 31.4959 17.6399C29.6804 18.9459 27.4591 19.5627 25.2302 19.3799C23.0012 19.1971 20.9102 18.2265 19.3318 16.642C17.7534 15.0576 16.7908 12.9629 16.6165 10.7332C16.4422 8.50358 17.0676 6.28472 18.3805 4.47424C19.6935 2.66376 21.6083 1.37999 23.7817 0.852965C25.7258 0.381565 27.7632 0.543147 29.6002 1.30384C29.9604 1.45299 30.0993 1.88022 29.9236 2.22823C29.7479 2.57623 29.3242 2.71273 28.9621 2.56836C27.4263 1.95612 25.7324 1.83265 24.1144 2.22497C22.267 2.67294 20.6394 3.76415 19.5234 5.30305C18.4074 6.84196 17.8758 8.72799 18.024 10.6232C18.1722 12.5184 18.9904 14.2989 20.332 15.6457C21.6736 16.9924 23.451 17.8174 25.3456 17.9729C27.2402 18.1283 29.1283 17.604 30.6714 16.4938C32.2146 15.3837 33.312 13.7603 33.7671 11.9146C34.1656 10.2982 34.0486 8.60377 33.4422 7.0657C33.2993 6.70302 33.4374 6.2799 33.7861 6.10552Z" fill="var(--fill-0, white)" fill-opacity="0.8"/>
<path d="M23.0937 6.69917H24.5526V13.3002H22.8569V8.47201L21.7011 8.76434L21.2938 7.34041L23.0937 6.69917Z" fill="var(--fill-0, white)" fill-opacity="0.8"/>
<path d="M29.2709 9.84879C29.8582 10.2134 30.1519 10.7446 30.1519 11.4425C30.1519 12.0586 29.9372 12.5458 29.5077 12.9041C29.0783 13.2562 28.4688 13.4322 27.6794 13.4322C26.8836 13.4322 26.271 13.2562 25.8416 12.9041C25.4121 12.5458 25.1974 12.0586 25.1974 11.4425C25.1974 10.7446 25.491 10.2134 26.0784 9.84879C25.6426 9.52817 25.4247 9.0881 25.4247 8.52859C25.4247 7.9125 25.6363 7.43156 26.0594 7.0858C26.4826 6.74003 27.0226 6.56715 27.6794 6.56715C28.3299 6.56715 28.8667 6.74317 29.2898 7.09523C29.713 7.44099 29.9245 7.91878 29.9245 8.52859C29.9245 9.0881 29.7067 9.52817 29.2709 9.84879ZM27.6794 8.09481C27.4773 8.09481 27.3162 8.14825 27.1962 8.25512C27.0826 8.35571 27.0257 8.49087 27.0257 8.66061C27.0257 8.83664 27.0826 8.97494 27.1962 9.07553C27.3162 9.17612 27.4773 9.22641 27.6794 9.22641C27.8688 9.22641 28.0236 9.17612 28.1436 9.07553C28.2636 8.96866 28.3236 8.83035 28.3236 8.66061C28.3236 8.49087 28.2636 8.35571 28.1436 8.25512C28.0236 8.14825 27.8688 8.09481 27.6794 8.09481ZM27.6794 11.8857C27.913 11.8857 28.1025 11.826 28.2478 11.7065C28.393 11.5808 28.4657 11.4142 28.4657 11.2067C28.4657 10.993 28.393 10.8264 28.2478 10.7069C28.1025 10.5812 27.913 10.5183 27.6794 10.5183C27.4394 10.5183 27.2468 10.5812 27.1015 10.7069C26.9626 10.8264 26.8931 10.993 26.8931 11.2067C26.8931 11.4142 26.9626 11.5808 27.1015 11.7065C27.2468 11.826 27.4394 11.8857 27.6794 11.8857Z" fill="var(--fill-0, white)" fill-opacity="0.8"/>
</g>
</g>
</svg>
