<svg style="display: block;" viewBox="0 0 107.5 20" fill="none" xmlns="http://www.w3.org/2000/svg">
<g id="be-gamble-aware">
<path id="Vector" d="M3.33693 9.3173C3.33693 4.61888 5.36868 2.33317 8.54328 2.33317C10.702 2.33317 12.3528 3.34904 12.8607 5.76174V6.14269L10.956 6.65063V6.26968C10.575 4.61888 9.68614 3.98396 8.4163 3.98396C6.76551 3.98396 5.36868 5.50777 5.36868 9.19031C5.36868 12.4919 6.63852 14.0157 8.4163 14.0157C9.55916 14.0157 11.083 13.3808 11.083 11.0951V10.7141H8.28932V9.06333H12.8607V15.4125H11.3369L11.21 13.8887C10.575 15.1586 9.30519 15.6665 7.90836 15.6665C5.11471 15.6665 3.33693 13.3808 3.33693 9.3173ZM19.9719 14.5236C19.4639 15.1586 18.702 15.6665 17.4322 15.6665C15.6544 15.6665 14.6385 14.5236 14.6385 12.9998C14.6385 11.349 15.9084 10.5871 17.0512 10.2062L19.9719 9.44428V9.19031C19.9719 8.04746 19.3369 7.53952 18.3211 7.53952C17.3052 7.53952 16.6703 8.17444 16.2893 8.80936L16.1623 8.93634L14.7655 8.17444L14.8925 8.04746C15.2734 7.15857 16.4163 6.01571 18.448 6.01571C20.4798 6.01571 21.8766 7.03158 21.8766 8.93634V13.7617L22.0036 15.2856V15.4125H20.0988L19.9719 14.5236ZM17.9401 14.2697C18.829 14.2697 19.5909 13.7617 19.9719 13.1268V10.8411L17.9401 11.476C17.1782 11.73 16.5433 12.1109 16.5433 12.8729C16.5433 13.6348 17.0512 14.2697 17.9401 14.2697ZM33.0512 7.6665C32.2893 7.6665 31.4004 8.17444 31.0195 8.68238V15.4125H29.1147V9.06333C29.1147 8.17444 28.6068 7.6665 27.7179 7.6665C26.956 7.6665 26.1941 8.17444 25.6861 8.68238V15.4125H23.7814V6.26968H25.5592V7.28555C26.3211 6.52365 27.3369 6.01571 28.3528 6.01571C29.6227 6.01571 30.3846 6.65063 30.7655 7.41254C31.5274 6.52365 32.5433 6.01571 33.6861 6.01571C35.5909 6.01571 36.3528 7.28555 36.3528 8.68238V15.4125H34.448V9.06333C34.448 8.17444 33.9401 7.6665 33.0512 7.6665ZM40.2893 14.6506L40.0353 15.4125H38.3846V2.58714H40.2893V7.03158C40.9242 6.39666 41.6861 6.01571 42.575 6.01571C44.7338 6.01571 46.1306 7.53952 46.1306 10.7141C46.1306 13.8887 44.6068 15.6665 42.575 15.6665C41.5592 15.6665 40.7973 15.2856 40.2893 14.6506ZM42.1941 14.1427C43.3369 14.1427 44.2258 13.1268 44.2258 10.7141C44.2258 8.30142 43.21 7.53952 42.1941 7.53952C41.4322 7.53952 40.7973 7.92047 40.2893 8.42841V13.2538C40.7973 13.7617 41.4322 14.1427 42.1941 14.1427ZM47.7814 2.58714H49.6861V15.4125H47.7814V2.58714ZM51.3369 10.9681C51.3369 8.04746 52.7338 6.01571 55.2734 6.01571C57.1782 6.01571 58.956 7.03158 58.956 10.4602V11.2221H53.2417V11.349C53.2417 13.1268 54.1306 14.1427 55.4004 14.1427C56.1623 14.1427 56.9242 13.7617 57.3052 12.9998L57.4322 12.7459L58.956 13.3808L58.829 13.6348C58.1941 15.0316 57.0512 15.6665 55.4004 15.6665C52.9877 15.6665 51.3369 14.0157 51.3369 10.9681ZM57.1782 9.95222V9.82523C57.1782 8.17444 56.2893 7.53952 55.2734 7.53952C54.2576 7.53952 53.3687 8.30142 53.2417 9.95222H57.1782ZM64.0354 2.58714H66.829L70.5115 15.4125H68.4798L67.5909 12.1109H63.2734L62.3846 15.4125H60.4798L64.0354 2.58714ZM67.083 10.4602L65.4322 4.11095L63.7814 10.4602H67.083Z" fill="var(--fill-0, white)" fill-opacity="0.8"/>
<path id="Vector_2" d="M70.0036 6.26959H71.9084L73.4322 12.8728L75.083 6.26959H76.9877L78.5115 12.8728L80.1623 6.26959H81.9401L79.5274 15.4125H77.6226L75.9719 8.93626L74.3211 15.4125H72.4163L70.0036 6.26959ZM87.5274 14.5236C87.0195 15.1585 86.2576 15.6664 84.9877 15.6664C83.21 15.6664 82.1941 14.5236 82.1941 12.9998C82.1941 11.349 83.4639 10.5871 84.6068 10.2061L87.5274 9.4442V9.19023C87.5274 8.04737 86.8925 7.53943 85.8766 7.53943C84.9877 7.53943 84.2258 8.17436 83.8449 8.80928V8.93626L82.3211 8.17436L82.448 8.04737C82.829 7.15848 83.9719 6.01562 86.0036 6.01562C88.0353 6.01562 89.4322 7.0315 89.4322 8.93626V13.7617L89.5592 15.2855V15.4125H87.6544L87.5274 14.5236ZM85.4957 14.2696C86.3846 14.2696 87.1465 13.7617 87.5274 13.1267V10.841L85.4957 11.4759C84.7338 11.7299 84.0988 12.1109 84.0988 12.8728C84.0988 13.6347 84.6068 14.2696 85.4957 14.2696ZM91.3369 6.26959H93.1147V7.92039C94.2576 6.52356 95.4004 6.14261 96.2893 6.14261V7.92039C95.0195 7.92039 94.0036 8.55531 93.2417 9.31721V15.4125H91.3369V6.26959ZM96.5433 10.968C96.5433 8.04737 97.9401 6.01562 100.48 6.01562C102.258 6.01562 104.162 7.0315 104.162 10.4601V11.222H98.3211V11.349C98.3211 13.1267 99.3369 14.1426 100.607 14.1426C101.369 14.1426 102.131 13.7617 102.512 12.9998L102.639 12.7458L104.162 13.3807L104.035 13.6347C103.4 15.0315 102.131 15.6664 100.48 15.6664C98.1941 15.6664 96.5433 14.0156 96.5433 10.968ZM102.385 9.95213V9.82515C102.385 8.17436 101.496 7.53943 100.48 7.53943C99.4639 7.53943 98.575 8.30134 98.448 9.95213H102.385Z" fill="var(--fill-0, white)" fill-opacity="0.8"/>
</g>
</svg>
