<svg style="display: block;" viewBox="0 0 81.7241 20" fill="none" xmlns="http://www.w3.org/2000/svg">
<g id="svg0 3 2" clip-path="url(#clip0_260_42109)">
<path id="Vector" d="M21.4765 5.08789H29.7513V6.62635H26.4976V15.2748H24.7085V6.62635H21.4692V5.08789H21.4765ZM29.3978 7.89882H30.9272V9.32225H30.9561C31.0066 9.12096 31.1004 8.92685 31.2375 8.73994C31.3745 8.55302 31.5405 8.3733 31.7353 8.22233C31.93 8.06417 32.1465 7.94195 32.3845 7.8413C32.6226 7.74785 32.8679 7.69752 33.1132 7.69752C33.3008 7.69752 33.4378 7.70471 33.51 7.7119C33.5821 7.71909 33.6543 7.73347 33.7336 7.74066V9.30788C33.6182 9.28631 33.5028 9.27193 33.3801 9.25755C33.2575 9.24317 33.1421 9.23599 33.0266 9.23599C32.7525 9.23599 32.4928 9.2935 32.2475 9.40133C32.0022 9.50917 31.793 9.67452 31.6126 9.883C31.4323 10.0987 31.288 10.3575 31.1798 10.6738C31.0715 10.9901 31.021 11.3496 31.021 11.7593V15.2676H29.3906V7.89882H29.3978ZM41.2293 15.2748H39.6278V14.2468H39.5989C39.3969 14.6206 39.1011 14.9154 38.7043 15.1382C38.3075 15.3611 37.9035 15.4761 37.4923 15.4761C36.5184 15.4761 35.8114 15.2389 35.3785 14.7572C34.9456 14.2755 34.7292 13.5494 34.7292 12.5789V7.89882H36.3597V12.4207C36.3597 13.0678 36.4823 13.5279 36.7348 13.7939C36.9801 14.0599 37.3336 14.1964 37.7809 14.1964C38.1272 14.1964 38.4085 14.1461 38.6394 14.0383C38.8702 13.9304 39.0578 13.7939 39.1949 13.6141C39.3392 13.4416 39.4402 13.2259 39.5051 12.9815C39.57 12.7371 39.5989 12.4711 39.5989 12.1835V7.90601H41.2293V15.2748ZM44.0069 12.9096C44.0574 13.3841 44.2377 13.7148 44.5479 13.9089C44.8654 14.0958 45.2405 14.1964 45.6806 14.1964C45.8321 14.1964 46.0052 14.1821 46.2 14.1605C46.3948 14.1389 46.5824 14.0886 46.7483 14.0239C46.9215 13.9592 47.0585 13.8586 47.174 13.7292C47.2822 13.5998 47.3327 13.4344 47.3255 13.2259C47.3182 13.0174 47.2389 12.8449 47.0946 12.7155C46.9503 12.5789 46.77 12.4783 46.5463 12.392C46.3227 12.3129 46.0702 12.241 45.7816 12.1835C45.493 12.126 45.2044 12.0613 44.9087 11.9966C44.6056 11.9319 44.3099 11.8456 44.0285 11.7522C43.7471 11.6587 43.4946 11.5293 43.271 11.3639C43.0474 11.2058 42.867 10.9973 42.7371 10.7457C42.6001 10.4941 42.5351 10.1849 42.5351 9.81111C42.5351 9.40852 42.6361 9.07783 42.8309 8.80464C43.0257 8.53146 43.2782 8.31578 43.574 8.15044C43.877 7.98509 44.2089 7.87006 44.5768 7.79817C44.9447 7.73347 45.2982 7.69752 45.6301 7.69752C46.0124 7.69752 46.3804 7.74066 46.7267 7.81974C47.073 7.89882 47.3904 8.02822 47.6717 8.21514C47.9531 8.39486 48.184 8.6321 48.3715 8.91967C48.5591 9.20723 48.6745 9.55949 48.725 9.96927H47.0225C46.9431 9.58106 46.77 9.31507 46.4886 9.18566C46.2072 9.04907 45.8826 8.98437 45.5219 8.98437C45.4064 8.98437 45.2694 8.99156 45.1107 9.01312C44.9519 9.03469 44.8077 9.07064 44.6634 9.12096C44.5263 9.17128 44.4109 9.25036 44.3099 9.35101C44.2161 9.45166 44.1656 9.58106 44.1656 9.74641C44.1656 9.9477 44.2377 10.1059 44.3748 10.2281C44.5119 10.3503 44.6922 10.4509 44.9159 10.5372C45.1395 10.6163 45.392 10.6882 45.6806 10.7457C45.9692 10.8032 46.265 10.8679 46.568 10.9326C46.8637 10.9973 47.1523 11.0836 47.4409 11.177C47.7295 11.2705 47.982 11.3999 48.2056 11.5652C48.4293 11.7306 48.6096 11.9319 48.7467 12.1763C48.8838 12.4207 48.9559 12.7299 48.9559 13.0893C48.9559 13.5279 48.8549 13.8945 48.6529 14.2036C48.4509 14.5056 48.1912 14.7572 47.8737 14.9441C47.5563 15.131 47.1956 15.2748 46.806 15.3611C46.4165 15.4473 46.0269 15.4905 45.6445 15.4905C45.1756 15.4905 44.7427 15.4402 44.3459 15.3323C43.9491 15.2245 43.6029 15.0663 43.3143 14.8578C43.0257 14.6422 42.7949 14.3762 42.6289 14.0599C42.463 13.7435 42.3764 13.3625 42.362 12.924H44.0069V12.9096ZM49.3888 7.89882H50.6224V5.68458H52.2529V7.89882H53.7246V9.11377H52.2529V13.0534C52.2529 13.2259 52.2601 13.3697 52.2745 13.4991C52.2889 13.6213 52.325 13.7292 52.3755 13.8154C52.426 13.9017 52.5054 13.9664 52.6136 14.0095C52.7218 14.0527 52.8589 14.0742 53.0464 14.0742C53.1619 14.0742 53.2773 14.0742 53.3927 14.067C53.5082 14.0599 53.6236 14.0455 53.739 14.0167V15.2748C53.5587 15.2964 53.3783 15.3108 53.2124 15.3323C53.0392 15.3539 52.8661 15.3611 52.6857 15.3611C52.2529 15.3611 51.9066 15.3179 51.6469 15.2389C51.3871 15.1598 51.1779 15.0376 51.0336 14.8794C50.8821 14.7212 50.7883 14.5271 50.7306 14.2899C50.6801 14.0527 50.6441 13.7795 50.6368 13.4775V9.12815H49.4032V7.89882H49.3888ZM54.8789 7.89882H56.4228V8.8981H56.4516C56.6825 8.46676 56.9999 8.16481 57.4111 7.9779C57.8223 7.79098 58.2624 7.69752 58.7458 7.69752C59.3301 7.69752 59.8351 7.79817 60.268 8.00665C60.7009 8.20795 61.0616 8.48832 61.3502 8.84778C61.6387 9.20723 61.8479 9.6242 61.9922 10.0987C62.1365 10.5732 62.2087 11.0836 62.2087 11.6228C62.2087 12.1188 62.1437 12.6005 62.0139 13.0606C61.884 13.5279 61.6892 13.9376 61.4295 14.2971C61.1698 14.6565 60.8379 14.9369 60.4339 15.1526C60.0299 15.3683 59.561 15.4761 59.0127 15.4761C58.7746 15.4761 58.5366 15.4545 58.2985 15.4114C58.0604 15.3683 57.8295 15.2964 57.6131 15.2029C57.3967 15.1095 57.1875 14.9872 57.0071 14.8363C56.8195 14.6853 56.668 14.5128 56.5382 14.3187H56.5093V17.9995H54.8789V7.89882ZM60.5782 11.594C60.5782 11.2633 60.5349 10.9398 60.4484 10.6235C60.3618 10.3072 60.2319 10.034 60.0588 9.78954C59.8856 9.54512 59.6692 9.35101 59.4167 9.20723C59.157 9.06345 58.8612 8.98437 58.5293 8.98437C57.844 8.98437 57.3245 9.22161 56.9783 9.69609C56.632 10.1706 56.4588 10.8032 56.4588 11.594C56.4588 11.9678 56.5021 12.3129 56.5959 12.6292C56.6897 12.9455 56.8195 13.2187 57.0071 13.4488C57.1875 13.6788 57.4039 13.8586 57.6564 13.988C57.9089 14.1246 58.2047 14.1893 58.5366 14.1893C58.9117 14.1893 59.2219 14.1102 59.4816 13.9592C59.7414 13.8082 59.9506 13.6069 60.1165 13.3697C60.2824 13.1253 60.4051 12.8521 60.4772 12.543C60.5421 12.2338 60.5782 11.9175 60.5782 11.594ZM63.4567 5.08789H65.0872V6.62635H63.4567V5.08789ZM63.4567 7.89882H65.0872V15.2748H63.4567V7.89882ZM66.5445 5.08789H68.1749V15.2748H66.5445V5.08789ZM73.1745 15.4761C72.5829 15.4761 72.0562 15.3755 71.5945 15.1813C71.1328 14.9872 70.7432 14.7141 70.4186 14.3762C70.1012 14.0311 69.8559 13.6213 69.6899 13.1468C69.524 12.6724 69.4374 12.1476 69.4374 11.5796C69.4374 11.0189 69.524 10.5013 69.6899 10.0268C69.8559 9.5523 70.1012 9.14253 70.4186 8.79745C70.736 8.45238 71.1328 8.18638 71.5945 7.99228C72.0562 7.79817 72.5829 7.69752 73.1745 7.69752C73.766 7.69752 74.2927 7.79817 74.7544 7.99228C75.2161 8.18638 75.6057 8.45957 75.9304 8.79745C76.2478 9.14253 76.4931 9.5523 76.659 10.0268C76.8249 10.5013 76.9115 11.0189 76.9115 11.5796C76.9115 12.1476 76.8249 12.6724 76.659 13.1468C76.4931 13.6213 76.2478 14.0311 75.9304 14.3762C75.6129 14.7212 75.2161 14.9872 74.7544 15.1813C74.2927 15.3755 73.766 15.4761 73.1745 15.4761ZM73.1745 14.1893C73.5352 14.1893 73.8526 14.1102 74.1196 13.9592C74.3865 13.8082 74.6029 13.6069 74.7761 13.3625C74.9492 13.1181 75.0718 12.8377 75.1584 12.5286C75.2378 12.2195 75.2811 11.9031 75.2811 11.5796C75.2811 11.2633 75.2378 10.9542 75.1584 10.6379C75.0791 10.3215 74.9492 10.0484 74.7761 9.80392C74.6029 9.55949 74.3865 9.36539 74.1196 9.21442C73.8526 9.06345 73.5352 8.98437 73.1745 8.98437C72.8137 8.98437 72.4963 9.06345 72.2294 9.21442C71.9625 9.36539 71.746 9.56668 71.5729 9.80392C71.3997 10.0484 71.2771 10.3215 71.1905 10.6379C71.1112 10.9542 71.0679 11.2633 71.0679 11.5796C71.0679 11.9031 71.1112 12.2195 71.1905 12.5286C71.2699 12.8377 71.3997 13.1181 71.5729 13.3625C71.746 13.6069 71.9625 13.8082 72.2294 13.9592C72.4963 14.1174 72.8137 14.1893 73.1745 14.1893ZM77.3876 7.89882H78.6213V5.68458H80.2517V7.89882H81.7235V9.11377H80.2517V13.0534C80.2517 13.2259 80.259 13.3697 80.2734 13.4991C80.2878 13.6213 80.3239 13.7292 80.3744 13.8154C80.4249 13.9017 80.5042 13.9664 80.6125 14.0095C80.7207 14.0527 80.8578 14.0742 81.0453 14.0742C81.1608 14.0742 81.2762 14.0742 81.3916 14.067C81.507 14.0599 81.6225 14.0455 81.7379 14.0167V15.2748C81.5575 15.2964 81.3772 15.3108 81.2113 15.3323C81.0381 15.3539 80.865 15.3611 80.6846 15.3611C80.2517 15.3611 79.9055 15.3179 79.6457 15.2389C79.386 15.1598 79.1768 15.0376 79.0325 14.8794C78.881 14.7212 78.7872 14.5271 78.7295 14.2899C78.679 14.0527 78.6429 13.7795 78.6357 13.4775V9.12815H77.4021V7.89882H77.3876Z" fill="var(--fill-0, white)" fill-opacity="0.8"/>
<path id="Vector_2" d="M19.5724 7.08833H12.0983L9.78973 -9.72748e-05L7.47392 7.08833L-0.000144815 7.08114L6.05269 11.4665L3.73689 18.5477L9.78973 14.1696L15.8354 18.5477L13.5268 11.4665L19.5724 7.08833Z" fill="var(--fill-0, white)" fill-opacity="0.8"/>
</g>
<defs>
<clipPath id="clip0_260_42109">
<rect width="81.7241" height="20" fill="white"/>
</clipPath>
</defs>
</svg>
