<svg width="65" height="45" viewBox="0 0 65 45" fill="none" xmlns="http://www.w3.org/2000/svg">
<mask id="mask0_216_46611" style="mask-type:alpha" maskUnits="userSpaceOnUse" x="0" y="0" width="65" height="45">
<rect width="65" height="45" fill="#0322AC"/>
</mask>
<g mask="url(#mask0_216_46611)">
<circle cx="30.5583" cy="34.5584" r="25.7434" transform="rotate(-1.58209 30.5583 34.5584)" fill="#FFDF00" stroke="white" stroke-width="5.04757"/>
<circle cx="30.5583" cy="34.5584" r="24.0396" transform="rotate(-1.58209 30.5583 34.5584)" fill="#CCF0DB" stroke="#0B2595" stroke-width="1.64012"/>
<circle cx="33.6203" cy="37.1701" r="15.1718" transform="rotate(-30.643 33.6203 37.1701)" stroke="white" stroke-width="3.06404"/>
<path d="M30.9756 39.0782C30.0063 40.3711 29.9312 40.858 30.2759 42.2562L34.6178 41.1857L35.2982 43.9453L28.1967 45.6963L27.5163 42.9366C26.7497 39.8274 27.6494 38.7273 28.9045 37.1689C29.7397 36.1237 30.2523 35.3533 29.8985 33.9183C29.6354 32.8512 29.3055 32.5422 28.8824 32.6466C28.4592 32.7509 28.2372 33.196 28.6817 34.9989L25.9221 35.6794C25.0557 32.1654 25.8839 30.4585 28.202 29.8869C30.5201 29.3154 31.9732 30.4598 32.6582 33.2379C33.3386 35.9975 32.051 37.6616 30.9756 39.0782ZM38.8176 37.1447C37.8483 38.4376 37.7732 38.9245 38.1179 40.3227L42.4598 39.2522L43.1402 42.0118L36.0387 43.7628L35.3583 41.0031C34.5917 37.8939 35.4914 36.7938 36.7465 35.2353C37.5817 34.1902 38.0944 33.4198 37.7405 31.9848C37.4774 30.9177 37.1475 30.6087 36.7244 30.7131C36.3013 30.8174 36.0792 31.2625 36.5238 33.0654L33.7641 33.7458C32.8977 30.2319 33.7259 28.5249 36.044 27.9534C38.3621 27.3818 39.8152 28.5263 40.5002 31.3044C41.1806 34.064 39.893 35.7281 38.8176 37.1447Z" fill="#0B2595"/>
<path d="M11.2828 35.2456C11.0289 27.4002 15.4367 20.4857 22.0099 17.1653" stroke="white" stroke-width="3.03726" stroke-linecap="round"/>
</g>
</svg>
