<svg width="65" height="45" viewBox="0 0 65 45" fill="none" xmlns="http://www.w3.org/2000/svg">
<mask id="mask0_216_46609" style="mask-type:alpha" maskUnits="userSpaceOnUse" x="0" y="0" width="65" height="45">
<rect width="65" height="45" fill="#0322AC"/>
</mask>
<g mask="url(#mask0_216_46609)">
<path d="M28.3658 1.72214C30.281 2.19242 32.7709 3.18128 35.2469 4.26138C37.7657 5.36019 40.4521 6.63536 42.8001 7.74899L44.8967 8.7404C46.7296 9.60133 48.0044 10.1752 48.6452 10.3838C48.6639 10.389 48.6833 10.3921 48.7021 10.3978C49.8038 10.7293 51.0821 10.3235 51.9722 9.86125C53.2054 9.22076 54.7219 9.57769 55.5399 10.701L57.8605 13.8883C58.6801 15.014 58.5523 16.5707 57.5594 17.5471C43.2849 31.5842 38.2492 52.0958 37.2829 56.6557C37.1251 57.3999 36.6715 58.0484 36.0271 58.453C35.3827 58.8574 34.6019 58.9829 33.863 58.8015L7.34307 52.29C5.99568 51.959 5.09158 50.6947 5.21426 49.3127C5.44009 46.7711 6.76425 39.5708 14.191 31.9846C19.3881 26.6765 24.7095 24.1683 28.3509 22.9893C25.5608 21.1899 21.3607 18.9257 16.9079 18.1303L16.907 18.1301C14.0732 17.6221 12.6314 18.7615 11.8336 19.7241C11.2106 20.4778 10.8275 21.3262 10.614 21.9516C10.1436 23.3298 8.69792 24.1208 7.28368 23.7736L3.93017 22.9502C2.42286 22.5801 1.50091 21.0578 1.87087 19.5505L6.35601 1.28351C6.72613 -0.223869 8.24828 -1.1459 9.75567 -0.775786L13.0845 0.0415588C13.8092 0.219568 14.4336 0.678706 14.8196 1.31729C14.9068 1.46148 14.9785 1.61283 15.0378 1.76805C19.7564 0.55371 23.5906 0.549678 28.3658 1.72214Z" fill="#FF63F6" stroke="white" stroke-width="5.62085" stroke-linejoin="round"/>
<path d="M27.9189 3.54211C29.664 3.97063 32.0249 4.90031 34.4974 5.97888C36.9842 7.06374 39.6432 8.32587 41.9972 9.44232C44.8284 10.7852 46.9782 11.7992 48.0282 12.1509L48.163 12.1921C49.9804 12.7388 51.8173 12.0525 52.8361 11.5234L53.5505 11.1528L54.0253 11.8033L56.3466 14.9918L56.8219 15.6445L56.2454 16.2108C41.5541 30.6578 36.4295 51.6432 35.4497 56.2669L35.2495 57.2132L7.00917 50.2793L7.08017 49.4782C7.27605 47.2738 8.46624 40.5115 15.5303 33.2959L16.2883 32.5428C23.7433 25.3438 31.2207 24.0592 32.7903 23.8621C31.6696 22.9554 24.8599 17.6474 17.2381 16.2857L17.2372 16.2855C13.6034 15.6341 11.5239 17.1608 10.3907 18.5282C9.57829 19.5103 9.10154 20.583 8.84096 21.3464L8.56324 22.1581L3.46752 20.9069L8.3993 0.820867L13.5491 2.08531L13.3234 2.99625L12.9962 4.31666C18.7085 2.46912 22.6725 2.25393 27.9189 3.54211Z" fill="#FF63F6" stroke="#0B2595" stroke-width="1.87362"/>
<path d="M12.8336 45.4091C12.7417 45.3866 12.6491 45.355 12.5591 45.3124C11.8417 44.9746 11.5374 44.1213 11.877 43.4114C13.2137 40.6017 15.1524 37.8898 17.6359 35.3529C20.7508 32.1689 24.2636 29.77 28.073 28.2197C31.0033 27.0265 33.0639 26.7891 33.2912 26.7656C34.0787 26.6857 34.7834 27.2554 34.8684 28.0401C34.9505 28.8242 34.3799 29.5244 33.5917 29.6071C33.304 29.6363 26.4868 30.4099 19.6941 37.3508C17.4312 39.6628 15.674 42.1166 14.4721 44.6421C14.1743 45.2653 13.4841 45.5747 12.8379 45.4161L12.8336 45.4091ZM13.8997 9.89046C13.4345 9.77624 13.037 9.43477 12.8786 8.94928C12.6311 8.201 13.0391 7.3933 13.7902 7.14876C19.0237 5.43981 22.5394 5.24236 27.2216 6.392C28.9709 6.82149 31.7167 7.90703 35.8661 9.80729C36.5856 10.1367 36.9031 10.9845 36.5739 11.6999C36.2447 12.4153 35.3938 12.7293 34.6743 12.3999C30.748 10.6014 28.0871 9.54263 26.5412 9.16307C22.3437 8.13242 19.4641 8.30097 14.6895 9.86109C14.4257 9.9491 14.1531 9.95269 13.8997 9.89046ZM44.5993 16.9993C44.5213 16.9801 44.4419 16.9547 44.3673 16.9217C43.1851 16.4082 41.677 15.6941 39.5073 14.6678C38.7933 14.3279 38.4883 13.4774 38.8259 12.764C39.1656 12.0541 40.0193 11.7525 40.7367 12.0903C42.813 13.0761 44.3692 13.8107 45.5089 14.305C46.2345 14.6213 46.5687 15.4614 46.2527 16.183C45.9697 16.8304 45.2657 17.1599 44.6 16.9965L44.5993 16.9993Z" fill="white"/>
</g>
</svg>
