<svg preserveAspectRatio="none" width="100%" height="100%" overflow="visible" style="display: block;" viewBox="0 0 17 12.2559" fill="none" xmlns="http://www.w3.org/2000/svg">
<g id="Group 5354">
<path id="Subtract" d="M15.2207 0C16.2029 0.000102549 16.9996 0.796141 17 1.77832V10.4766C16.9999 11.459 16.2031 12.2558 15.2207 12.2559H11.6621C10.6799 12.2556 9.88389 11.4588 9.88379 10.4766V1.77832C9.88414 0.796262 10.68 0.000296632 11.6621 0H15.2207ZM3.75586 0.395508C4.08317 0.395687 4.34854 0.660954 4.34863 0.988281C4.34854 1.31561 4.08317 1.58088 3.75586 1.58105H1.77832C1.4513 1.58145 1.18581 1.84678 1.18555 2.17383V10.0811C1.18556 10.4083 1.45115 10.6734 1.77832 10.6738H3.75586C4.08301 10.674 4.34829 10.9395 4.34863 11.2666C4.34863 11.594 4.08322 11.8602 3.75586 11.8604H1.77832C0.796118 11.86 9.79148e-06 11.0633 0 10.0811V2.17383C0.000263569 1.19175 0.796277 0.395902 1.77832 0.395508H3.75586ZM8.69727 0.395508C9.02472 0.395508 9.28995 0.660844 9.29004 0.988281C9.28995 1.31572 9.02473 1.58105 8.69727 1.58105H6.7207C6.39346 1.58119 6.12819 1.84662 6.12793 2.17383V10.0811C6.12794 10.4085 6.39331 10.6737 6.7207 10.6738H8.69727C9.02457 10.6738 9.2897 10.9394 9.29004 11.2666C9.29004 11.5941 9.02478 11.8604 8.69727 11.8604H6.7207C5.73828 11.8602 4.94142 11.0635 4.94141 10.0811V2.17383C4.94167 1.19159 5.73844 0.395639 6.7207 0.395508H8.69727ZM12.4531 3.55859C12.1257 3.55871 11.8604 3.82393 11.8604 4.15137C11.8605 4.47866 12.1258 4.74402 12.4531 4.74414H13.6338L12.6758 7.93457C12.582 8.24803 12.7599 8.57869 13.0732 8.67285C13.3867 8.7669 13.7172 8.58871 13.8115 8.27539L14.998 4.32129C15.0517 4.14197 15.0169 3.94807 14.9053 3.79785C14.7934 3.64746 14.6171 3.55859 14.4297 3.55859H12.4531Z" fill="var(--fill-0, #0C2287)"/>
<path id="Vector 1288" d="M7.1162 4.34881H8.89525L7.82782 7.90691" stroke="var(--stroke-0, #0C2287)" stroke-width="1.18603" stroke-linecap="round" stroke-linejoin="round"/>
<path id="Vector 1291" d="M2.17459 4.34881H3.95364L2.88621 7.90691" stroke="var(--stroke-0, #0C2287)" stroke-width="1.18603" stroke-linecap="round" stroke-linejoin="round"/>
</g>
</svg>
