<svg preserveAspectRatio="none" width="100%" height="100%" overflow="visible" style="display: block;" viewBox="0 0 16.5776 11.9512" fill="none" xmlns="http://www.w3.org/2000/svg">
<g id="Group 5373">
<path id="Subtract" d="M10.602 2.47191e-05C13.9023 3.18696e-05 16.5775 2.67535 16.5776 5.97561C16.5776 9.27597 13.9024 11.9512 10.602 11.9512C7.30171 11.9512 4.62645 9.27595 4.62645 5.97561C4.62656 2.67536 7.30177 6.0282e-05 10.602 2.47191e-05ZM11.3735 3.46975C11.0542 3.46975 10.7955 3.7286 10.7954 4.04788V6.16799H9.63817V4.04788C9.63804 3.72867 9.37926 3.46986 9.06005 3.46975C8.74074 3.46975 8.48205 3.7286 8.48192 4.04788V6.36135C8.48206 6.89355 8.91355 7.32522 9.44579 7.32522H10.7954V7.90335C10.7954 8.22269 11.0542 8.48147 11.3735 8.48147C11.6927 8.48123 11.9516 8.22254 11.9516 7.90335V7.32522H12.144C12.4632 7.32511 12.7229 7.06621 12.7231 6.7471C12.723 6.42789 12.4632 6.1681 12.144 6.16799H11.9516V4.04788C11.9515 3.72875 11.6926 3.46999 11.3735 3.46975Z" fill="var(--fill-0, #0C2287)"/>
<path id="Ellipse 295" d="M5.20476 10.6023C2.64964 10.6023 0.578306 8.531 0.578306 5.97588C0.578306 3.42076 2.64964 1.34943 5.20476 1.34943" stroke="var(--stroke-0, #0C2287)" stroke-width="1.15661" stroke-linecap="round"/>
</g>
</svg>
