<svg preserveAspectRatio="none" width="100%" height="100%" overflow="visible" style="display: block;" viewBox="0 0 17.1599 12.6953" fill="none" xmlns="http://www.w3.org/2000/svg">
<g id="Group 5372">
<path id="Subtract" d="M14.907 5.34075e-06C16.1507 5.88081e-05 17.1597 1.00823 17.1599 2.25196V10.4424C17.1599 11.6862 16.1508 12.6953 14.907 12.6953H9.99292C8.74918 12.6951 7.741 11.6862 7.74096 10.4424V2.25196C7.74115 1.00832 8.74928 0.000194907 9.99292 5.34075e-06H14.907ZM12.4509 4.50489C12.2558 4.50489 12.0737 4.59731 11.9587 4.75098L11.9138 4.82129L10.321 7.68751L9.86596 8.50684C9.70158 8.80332 9.80882 9.17713 10.1052 9.3418C10.4015 9.5059 10.7755 9.39954 10.9402 9.10352L11.2205 8.59961H13.6814L13.9617 9.10352C14.1267 9.39941 14.5004 9.50639 14.7966 9.3418C15.0929 9.1771 15.1992 8.80326 15.0349 8.50684L14.5798 7.68751L12.988 4.82129C12.8798 4.62646 12.6738 4.5051 12.4509 4.50489ZM12.9998 7.3711H11.9021L12.4509 6.38379L12.9998 7.3711ZM10.4031 1.84278C9.95074 1.84278 9.58374 2.20978 9.58374 2.66211C9.58393 3.11429 9.95086 3.48047 10.4031 3.48047C10.8551 3.48026 11.2212 3.11416 11.2214 2.66211C11.2214 2.20991 10.8552 1.84299 10.4031 1.84278Z" fill="var(--fill-0, #0C2287)"/>
<path id="Vector 1293" d="M6.73662 0.792348L5.77458 1.1425L5.00495 1.42262C4.36737 1.65468 4.03863 2.35967 4.27069 2.99725L5.81136 7.23022L6.30157 8.57707L6.54668 9.2505" stroke="var(--stroke-0, #0C2287)" stroke-width="1.22853" stroke-linecap="round" stroke-linejoin="round"/>
<path id="Vector 1289" d="M3.74813 8.4587L3.03148 7.21743L0.779168 3.31631C0.439917 2.72871 0.641243 1.97735 1.22884 1.6381L1.93814 1.22859L2.82475 0.716701" stroke="var(--stroke-0, #0C2287)" stroke-width="1.22853" stroke-linecap="round" stroke-linejoin="round"/>
</g>
</svg>
