<svg width="65" height="45" viewBox="0 0 65 45" fill="none" xmlns="http://www.w3.org/2000/svg">
<mask id="mask0_216_46610" style="mask-type:alpha" maskUnits="userSpaceOnUse" x="0" y="0" width="65" height="45">
<rect width="65" height="45" fill="#0322AC"/>
</mask>
<g mask="url(#mask0_216_46610)">
<path d="M32.355 32.9999C37.9446 32.1072 43.1343 31.7243 47.0261 31.8493C48.9531 31.9112 50.6794 32.1005 52.0092 32.4676C52.6668 32.6492 53.3585 32.9095 53.9487 33.311C54.5384 33.7122 55.2543 34.4203 55.4302 35.522C55.606 36.6234 55.1463 37.5186 54.711 38.0835C54.2751 38.6488 53.699 39.1116 53.1306 39.489C51.9814 40.252 50.3999 40.9696 48.588 41.6287C44.9288 42.9597 39.878 44.2125 34.2884 45.1052C28.6986 45.998 23.5082 46.381 19.6163 46.256C17.6893 46.194 15.9629 46.0048 14.6332 45.6377C13.9756 45.4561 13.2839 45.1958 12.6937 44.7943C12.1408 44.4182 11.4772 43.7726 11.2514 42.7857L11.2123 42.5843L11.1866 42.3797C11.0937 41.3716 11.5233 40.5515 11.9314 40.0218C12.3672 39.4565 12.9434 38.9936 13.5118 38.6163C14.661 37.8533 16.2425 37.1356 18.0544 36.4766C21.7137 35.1455 26.7652 33.8927 32.355 32.9999Z" fill="#0B2595" stroke="white" stroke-width="4.49064"/>
<path d="M26.7019 -2.58908C27.1031 -2.66329 27.5236 -2.62845 27.9164 -2.47747C28.4882 -2.25764 29.6967 -1.7077 30.6826 -0.594278C31.3348 0.142283 31.8479 1.08658 32.0463 2.22297C32.1711 2.20859 32.2994 2.19556 32.4311 2.18624C33.9119 2.08136 35.9238 2.32558 37.782 3.77626C38.5026 4.33879 38.8099 5.28186 38.5595 6.16103C38.309 7.04019 37.551 7.68018 36.6422 7.77859C36.1279 7.83425 35.5139 7.93735 34.873 8.11356C37.6491 7.84477 40.9356 8.37854 44.1493 10.6461C44.7658 10.4758 45.6664 10.2639 46.7213 10.1305C48.6009 9.8928 51.2727 9.86309 53.7052 11.0592L53.7061 11.059C56.0481 12.2117 57.6169 14.2358 58.4597 16.81C58.4825 16.8664 58.5055 16.9231 58.5238 16.9817C59.8334 21.1825 58.169 24.8856 56.487 27.3003C55.4122 28.8433 54.2245 30.0178 53.4699 30.6946L54.011 34.0823C54.1433 34.9106 53.8024 35.7442 53.1278 36.2428C52.4534 36.7411 51.5576 36.8219 50.8047 36.4526C50.0703 36.0922 48.7037 35.7638 46.4503 35.6162L46.4494 35.6164C42.9052 35.3835 38.1333 35.6847 33.0041 36.5039L32.8845 36.523C27.7672 37.3403 23.1387 38.5404 19.8432 39.8658L19.8422 39.866C17.7485 40.7075 16.5529 41.445 15.9642 42.0182C15.3635 42.6031 14.4868 42.8044 13.691 42.5405C12.8953 42.2766 12.3131 41.5911 12.1808 40.7633L11.6396 37.3746C10.7116 36.9664 9.21786 36.2205 7.71648 35.0897C5.36583 33.3192 2.6309 30.3188 2.56793 25.9188C2.52714 23.1354 3.38548 20.6553 5.29401 18.7893L5.29497 18.7891C7.23389 16.8948 9.78281 16.0907 11.6431 15.7311C12.685 15.5297 13.606 15.4501 14.2477 15.4199C16.5904 12.2715 19.54 10.7412 22.2567 10.1296C21.5978 10.1625 20.9884 10.2545 20.4878 10.3607C19.594 10.5501 18.6741 10.1786 18.1622 9.42177C17.6504 8.66487 17.6486 7.67272 18.1572 6.91364C19.4698 4.95492 21.3055 4.0952 22.7452 3.73322C22.8738 3.70091 23.0005 3.67234 23.1241 3.647C22.9597 2.50809 23.1526 1.45278 23.5414 0.551223C24.13 -0.813502 25.1061 -1.71355 25.582 -2.10265C25.9082 -2.36933 26.2972 -2.5342 26.7019 -2.58908Z" fill="#FFDF00" stroke="white" stroke-width="4.49064" stroke-linejoin="round"/>
<path d="M31.7665 28.7126C33.5325 28.4308 35.2014 29.6309 35.4847 31.405C35.768 33.179 34.556 34.8394 32.7901 35.1216L32.6705 35.1407C27.4455 35.9753 22.7053 37.2043 19.3134 38.5676L19.3116 38.5689C18.6864 38.8196 18.112 39.0744 17.6021 39.3205L17.601 39.3197C17.3063 39.4632 17.0012 39.557 16.6992 39.6052C15.3348 39.823 13.9135 39.1478 13.2684 37.8212L13.1996 37.669C12.5251 36.0855 13.2102 34.2447 14.7623 33.4845L14.7715 33.48C15.4199 33.1661 16.1329 32.8495 16.8947 32.5446L16.8948 32.5455C20.825 30.9641 26.0675 29.6229 31.6469 28.7317L31.7665 28.7126Z" fill="white" stroke="white" stroke-width="4.49064" stroke-linejoin="round"/>
<path d="M43.8919 15.3781C44.3714 14.7582 45.1399 14.4331 45.9187 14.5204C47.4203 14.6888 50.5718 15.5109 51.6495 19.1204C51.6658 19.1748 51.6787 19.2304 51.6908 19.2859C52.2493 21.4225 51.8061 23.5747 51.2704 25.1551C50.7095 26.81 49.9444 28.1463 49.5848 28.7313C49.1636 29.4166 48.4075 29.8238 47.6035 29.7994L44.0349 29.6909C43.2226 29.6663 42.4869 29.2048 42.1115 28.4841C41.7362 27.7631 41.7789 26.8948 42.2248 26.2152C44.8876 22.156 44.0733 18.866 43.5712 17.5556C43.2907 16.8237 43.4125 15.9981 43.8919 15.3781Z" fill="#FF63F6" stroke="white" stroke-width="4.49064" stroke-linejoin="round"/>
<path d="M43.534 13.3725L44.4815 13.2924L44.4834 13.2921C45.6576 13.1937 47.3375 13.3712 48.9299 14.1602C50.4891 14.933 51.9677 16.3026 52.7068 18.477L52.8443 18.9228L52.8529 18.9521C53.5783 21.6933 52.8717 24.4296 52.1383 26.3043C51.3852 28.2292 50.4623 29.5996 50.3477 29.7677L50.343 29.7754L50.3418 29.7746L50.1567 30.0455C49.8084 30.552 49.268 30.8934 48.661 30.9904L48.6591 30.9908C48.5197 31.013 48.3783 31.0228 48.2373 31.0186L41.7232 30.8208C40.8846 30.7955 40.1298 30.3053 39.7667 29.549C39.4036 28.7928 39.4926 27.8971 39.9971 27.2268L40.6938 26.3016L40.6945 26.2995C44.3551 21.4451 42.3451 17.7097 42.2617 17.5611L42.259 17.5566L41.7831 16.7377C41.3966 16.0724 41.3769 15.2555 41.732 14.5731C42.0872 13.8907 42.7675 13.4377 43.534 13.3725Z" fill="#0B2595" stroke="white" stroke-width="4.49064" stroke-linejoin="round"/>
<path d="M31.578 14.5794C32.1505 14.2081 33.7746 13.2621 35.7133 13.5303L35.7141 13.5292C37.3285 13.7518 38.5642 14.7308 39.4368 15.9707L39.5975 16.209C41.2019 18.684 40.9866 21.5913 40.5016 23.6903C39.985 25.9264 39.0371 27.8046 38.6579 28.5053C38.3017 29.1634 37.641 29.6008 36.896 29.6718L34.7967 29.8716C33.6174 29.9837 32.5539 29.1599 32.367 27.99L30.5825 16.8172C30.4427 15.9402 30.8329 15.0627 31.578 14.5794Z" fill="#FF63F6" stroke="white" stroke-width="4.49064" stroke-linejoin="round"/>
<path d="M31.9962 12.9817C32.8467 12.5894 34.1105 12.1791 35.569 12.3053L35.8629 12.3374L35.865 12.3381C37.7872 12.5993 39.315 13.7095 40.4212 15.2804L40.4202 15.2805C42.2909 17.9346 42.4454 21.3579 41.4457 24.8528C40.7281 27.3651 39.62 29.2578 39.4963 29.4641L39.341 29.7243C38.9744 30.337 38.3388 30.739 37.628 30.8068L33.7881 31.1729C32.6086 31.2854 31.5446 30.4624 31.3576 29.2924L29.2823 16.2989C29.1563 15.5099 29.4592 14.713 30.0775 14.2069L30.3442 13.9883L30.3567 13.9794C30.4675 13.8899 31.0748 13.4068 31.9962 12.9817ZM36.0903 22.8264C36.1022 22.7778 36.115 22.7292 36.1263 22.6802C36.528 20.9415 36.4358 19.5073 35.7665 18.5574L35.7654 18.5566C35.5906 18.3082 35.444 18.168 35.3335 18.0876L36.0903 22.8264Z" fill="#0B2595" stroke="white" stroke-width="4.49064" stroke-linejoin="round"/>
<path d="M13.649 19.6744C14.3618 19.349 15.1926 19.4187 15.8412 19.8583C16.4899 20.2981 16.8628 21.0447 16.8242 21.8275C16.7552 23.23 17.0044 26.6101 20.8 29.637C21.4355 30.1438 21.748 30.9544 21.6162 31.7565C21.4843 32.5585 20.9288 33.2268 20.1646 33.5034L16.8063 34.7182C16.0499 34.9918 15.2046 34.8404 14.5909 34.3205C14.0663 33.876 12.925 32.8446 11.8773 31.4478C10.8568 30.0874 9.73834 28.1337 9.63566 25.8772L9.63401 25.8359C9.53322 22.0683 12.2738 20.3024 13.649 19.6744Z" fill="#FF63F6" stroke="white" stroke-width="4.49064" stroke-linejoin="round"/>
<path d="M15.5602 17.8348C16.3113 17.6561 17.1018 17.8764 17.6529 18.4173C18.2038 18.9582 18.4379 19.7445 18.2731 20.4988L18.0741 21.4078C18.044 21.5517 17.2693 25.7514 22.283 29.2405L22.2853 29.2421L23.2346 29.9043C23.9228 30.3841 24.2864 31.2075 24.1769 32.0393C24.0674 32.8709 23.5038 33.5727 22.715 33.8581L16.5864 36.0741C16.4536 36.1221 16.3163 36.1567 16.1769 36.179L16.175 36.1793C15.5647 36.2768 14.9413 36.1185 14.4516 35.7416L14.1901 35.541C14.0266 35.4152 12.7244 34.4 11.4106 32.8065C10.1302 31.2536 8.60737 28.8737 8.44171 26.0446C8.44064 26.0263 8.43949 26.008 8.43887 25.9897C8.43833 25.9737 8.43765 25.9574 8.43711 25.9415C8.43656 25.9254 8.4367 25.9083 8.43616 25.8922L8.43527 25.8805C8.36447 23.3923 9.39948 21.5087 10.7127 20.2328C11.972 19.0094 13.4927 18.3274 14.6285 18.0568L14.6294 18.0566L15.5602 17.8348Z" fill="#0B2595" stroke="white" stroke-width="4.49064" stroke-linejoin="round"/>
<path d="M30.7196 28.2538C30.9062 29.4234 30.1521 30.5368 28.9967 30.7976L26.9396 31.2616C26.2096 31.4262 25.4455 31.2164 24.902 30.7019C24.3236 30.1544 22.838 28.6655 21.6503 26.7018C20.4994 24.7988 19.352 21.9874 20.2575 19.0335C20.7005 17.5836 21.5698 16.2683 23.0345 15.554L23.0409 15.5509C23.5388 15.3102 24.0388 15.17 24.5059 15.0954C25.6925 14.906 26.7587 15.1235 27.2921 15.2646C28.1509 15.4917 28.795 16.2037 28.9351 17.0809L30.7196 28.2538Z" fill="#FF63F6" stroke="white" stroke-width="4.49064" stroke-linejoin="round"/>
<path d="M22.5226 14.469C23.9602 13.7721 25.4056 13.7593 26.3992 13.8746C27.3588 13.9859 28.0707 14.237 28.2809 14.3187L28.6033 14.4423C29.3484 14.7306 29.8845 15.3935 30.0106 16.1825L32.0858 29.176C32.2726 30.346 31.5178 31.4595 30.362 31.72L26.5991 32.5682C25.9025 32.7252 25.1733 32.5412 24.6341 32.0731L24.4047 31.8754L24.4045 31.8744C24.1956 31.6933 22.4661 30.1654 20.9821 27.9135C19.5332 25.7147 17.9946 22.3242 19.1095 18.6841L19.1085 18.6843C19.6704 16.847 20.7764 15.3161 22.5216 14.4692L22.5226 14.469ZM24.8184 19.766C24.7383 19.8767 24.6422 20.0558 24.5532 20.3473L24.5526 20.3494C24.212 21.4602 24.5702 22.8514 25.4937 24.3784C25.5207 24.4229 25.5488 24.4666 25.5762 24.5106L24.8184 19.766Z" fill="#0B2595" stroke="white" stroke-width="4.49064" stroke-linejoin="round"/>
<path d="M25.9131 -3.76163C26.3826 -3.97487 26.914 -4.02132 27.4169 -3.88808L27.4737 -3.87244C27.484 -3.86973 27.4945 -3.86738 27.5047 -3.86453L27.7801 -3.78688L27.8101 -3.77881C27.8121 -3.77823 27.8176 -3.77591 27.8216 -3.77472C27.8293 -3.77245 27.8388 -3.76965 27.8497 -3.76634C27.8714 -3.75974 27.8979 -3.75134 27.9288 -3.7414C27.991 -3.72144 28.0709 -3.69501 28.1641 -3.6613C28.3498 -3.59416 28.5944 -3.49785 28.8758 -3.36653C29.4313 -3.10723 30.1732 -2.69175 30.8933 -2.06591L30.8942 -2.06606C31.6652 -1.39566 32.5097 -0.384364 32.9783 0.995118C35.0712 0.978797 37.7695 1.6056 39.9838 4.25129L40.8383 5.27287C41.4054 5.95044 41.5231 6.89818 41.1378 7.69342C41.134 7.70133 41.1286 7.70844 41.1247 7.71629C42.1982 8.1028 43.2847 8.63514 44.3662 9.34357C45.1844 9.14051 46.2836 8.92604 47.5269 8.83579C49.3413 8.70412 51.6162 8.82642 53.7977 9.77652L54.2322 9.9771L54.2333 9.97791C56.9259 11.3008 58.7322 13.6222 59.6689 16.6237C60.9515 20.7321 59.7322 24.3697 58.1578 26.9829C57.0583 28.8079 55.7268 30.234 54.7585 31.1483L55.439 35.4088C55.606 36.4559 55.018 37.4774 54.0284 37.8582L52.9309 38.2807C52.7849 38.3369 52.6331 38.3777 52.4786 38.4024L52.4728 38.4033C51.6667 38.5321 50.8611 38.2118 50.3606 37.5807C50.3579 37.5792 50.3548 37.5777 50.3519 37.5761C50.2308 37.509 50.0008 37.4088 49.6267 37.3013C48.8778 37.0862 47.782 36.9067 46.3613 36.8131L46.3612 36.8122C42.9057 36.5855 38.2304 36.8825 33.1976 37.6864L33.079 37.7053C28.3501 38.4606 24.0676 39.5393 20.9047 40.7366L20.2865 40.9777C18.9658 41.5091 17.9806 42.0211 17.3367 42.4586C17.0149 42.6772 16.828 42.8442 16.7341 42.9454C16.7319 42.9478 16.7291 42.9493 16.7271 42.9515C16.3906 43.8649 15.4969 44.4673 14.5087 44.4174L13.3342 44.3577C12.2752 44.3041 11.3982 43.5166 11.2308 42.4696L10.5503 38.2091C9.34539 37.6419 7.6359 36.7014 6.02268 35.3098C3.71264 33.3169 1.42096 30.2401 1.36004 25.9366C1.31515 22.7927 2.30851 20.0241 4.45506 17.9283L4.45603 17.9282C6.2981 16.1308 8.58873 15.2237 10.4712 14.7542C11.6806 14.4526 12.7916 14.3138 13.6316 14.2514C14.4399 13.2395 15.3083 12.3942 16.2094 11.6917C16.2028 11.6851 16.1959 11.6789 16.1894 11.6722C15.5771 11.0367 15.3936 10.1012 15.7206 9.28161L16.2137 8.04679L16.3962 7.61711C17.7089 4.71355 19.9525 3.37846 21.8545 2.77078C21.8691 1.32324 22.3512 0.105485 22.8703 -0.769681L22.871 -0.771763C23.8 -2.33394 25.06 -3.23008 25.3081 -3.39502L25.3082 -3.39406L25.5311 -3.54635C25.5755 -3.57649 25.6213 -3.60557 25.6677 -3.63245L25.7165 -3.66101L25.9131 -3.76163ZM42.0688 14.6928C37.9052 11.4063 33.5924 12.5684 31.7871 13.6787L31.0092 14.1579C30.5307 14.4522 29.966 14.5524 29.4265 14.4532C28.9438 14.7175 28.3742 14.7994 27.8262 14.6683L26.9377 14.4552L26.9378 14.4561C24.8766 13.9633 20.4162 14.2014 17.4833 18.6215L17.4823 18.6216L17.2958 18.9026C16.8627 19.5549 16.1209 19.9347 15.3385 19.9045L15.0021 19.891C15.0849 19.8942 13.9523 19.8564 12.4941 20.1383C10.9952 20.428 9.45656 20.9986 8.43209 21.9995C7.55372 22.8586 7.03054 24.074 7.05659 25.8516L7.05675 25.8525C7.09087 28.2468 8.56355 30.1043 10.4173 31.5006C12.1976 32.8415 13.994 33.4901 14.0482 33.5097L14.3831 33.6254C15.167 33.8953 15.7392 34.5748 15.8701 35.3934L16.068 36.6326C16.7184 36.3083 17.4203 35.997 18.1664 35.6972C21.8696 34.2078 26.848 32.9379 32.1757 32.087L32.2943 32.0681C37.6312 31.216 42.7546 30.8726 46.736 31.1341C47.5381 31.1867 48.3029 31.2637 49.0224 31.3693L48.8245 30.1301C48.6935 29.3093 49.0273 28.4833 49.691 27.9831L49.9752 27.7686C50.0762 27.6894 51.5471 26.5252 52.7954 24.7331C54.1218 22.829 54.9419 20.6045 54.2294 18.3183L54.2292 18.3173C53.7003 16.62 52.8246 15.6281 51.7223 15.0853L51.4769 14.9732C50.2323 14.4464 48.703 14.4024 47.2836 14.5818C45.8953 14.7574 44.8675 15.1137 44.8076 15.1345L44.8064 15.1337L44.4945 15.2488C43.7632 15.5154 42.9457 15.3836 42.3346 14.9015L42.0698 14.6926L42.0688 14.6928ZM28.2697 7.18534C28.2351 7.23179 28.1994 7.27701 28.1617 7.32027C28.209 7.35897 28.2565 7.39774 28.3032 7.43811C28.3367 7.38223 28.3716 7.3276 28.4064 7.27328C28.36 7.24573 28.3144 7.21643 28.2697 7.18534ZM27.5536 2.87519C27.5577 2.97953 27.5806 3.11629 27.6406 3.28952C27.6439 3.10401 27.6233 2.96592 27.5945 2.86471C27.5838 2.82727 27.5695 2.7911 27.5552 2.75527C27.5526 2.79506 27.552 2.83501 27.5536 2.87519Z" fill="#0B2595" stroke="white" stroke-width="4.49064" stroke-linejoin="round"/>
<path d="M56.3743 17.6529C55.6957 15.4751 54.4633 13.9344 52.7144 13.0737C48.9966 11.2455 44.0928 13.0089 44.043 13.027L43.7265 13.1423L43.4618 12.9335C38.3644 8.90984 32.9865 10.3095 30.6119 11.7701L29.8339 12.2487L29.7019 11.3464C29.334 8.83945 31.1825 7.23604 32.211 6.73765C33.7123 5.97137 35.2991 5.66527 36.4004 5.54608C33.8012 3.517 30.7649 4.81196 30.6208 4.87548L29.5533 5.34568L29.7894 4.20636C30.4203 1.1673 27.9514 -0.0584132 27.1103 -0.381728L27.0613 -0.345549L27.0035 -0.36466C26.3016 0.209149 24.3436 2.14391 25.8868 4.82967L26.4712 5.84604L25.3032 5.72479C25.1485 5.70901 21.8578 5.42456 20.0223 8.16395C21.1059 7.93418 22.7132 7.73013 24.3889 7.99304C25.5087 8.14225 27.7647 9.0901 28.1939 11.5872L28.3496 12.4858L27.4613 12.2733C24.7498 11.625 19.2035 11.9702 15.613 17.3814L15.4265 17.6623L15.0895 17.6493C15.0385 17.6473 9.82745 17.4995 6.86406 20.3947C5.47027 21.7574 4.77907 23.6053 4.81256 25.8862C4.90941 32.6809 13.2282 35.6027 13.312 35.6319L13.6535 35.7495L14.3978 40.4096C15.3059 39.5255 16.8312 38.6561 19.0053 37.7824C22.5047 36.375 27.3081 35.14 32.5308 34.3059L32.6198 34.2916L32.6495 34.2869C37.884 33.4509 42.8332 33.1282 46.5968 33.3756C48.9349 33.5286 50.6572 33.8793 51.7935 34.4369L51.0491 29.7768L51.339 29.5583C51.4095 29.5045 58.4024 24.1371 56.38 17.65L56.3743 17.6529Z" fill="#FFDF00"/>
<path d="M16.3453 37.3879C15.9218 37.4555 15.4842 37.2439 15.2874 36.8379C15.0458 36.3419 15.2527 35.7439 15.7496 35.5005C16.3487 35.2104 17.014 34.9158 17.7293 34.6295C21.4573 33.1288 26.5275 31.8229 32.0015 30.9486L32.1202 30.9297C32.6664 30.8424 33.1804 31.214 33.2674 31.759C33.3544 32.304 32.9818 32.8171 32.4356 32.9043L32.3168 32.9233C26.9854 33.7748 22.071 35.0397 18.4761 36.4846C17.8048 36.7538 17.1831 37.0293 16.6253 37.2986C16.5351 37.3434 16.4403 37.3727 16.3453 37.3879Z" fill="white"/>
<path d="M49.4977 19.763C48.8082 17.4532 46.8378 16.883 45.6681 16.7519C46.3467 18.5227 47.2723 22.6153 44.1027 27.447L47.6716 27.5553C48.2983 26.5359 50.362 22.8488 49.498 19.765L49.4977 19.763Z" fill="#FF63F6"/>
<path d="M48.3047 28.7739L41.791 28.5769L42.4875 27.6516C47.0865 21.5528 44.3201 16.6344 44.2 16.4288L43.7242 15.6098L44.6713 15.5294C46.3255 15.3907 49.7103 16.0489 50.6818 19.5267C51.7723 23.6476 48.6277 28.3052 48.4928 28.5029L48.3067 28.7736L48.3047 28.7739ZM44.1027 27.4463L47.6716 27.5547C48.2983 26.5352 50.362 22.8482 49.498 19.7643C48.8085 17.4546 46.8381 16.8843 45.6684 16.7532C46.347 18.524 47.2726 22.6166 44.103 27.4483L44.1027 27.4463Z" fill="#0B2595"/>
<path d="M37.6014 17.264C36.9765 16.3756 36.2379 15.8678 35.4078 15.7534C34.3098 15.6007 33.2759 16.1546 32.7996 16.4635L34.5841 27.6361L36.6832 27.4365C37.3586 26.1886 40.0499 20.7387 37.6014 17.264Z" fill="#FF63F6"/>
<path d="M37.4147 28.5718L33.5745 28.938L31.4993 15.9448L31.7667 15.726C31.8386 15.6679 33.5488 14.2911 35.5629 14.5628C36.7412 14.7229 37.7584 15.3988 38.5852 16.5729C39.9312 18.4821 40.1759 21.1323 39.2876 24.2368C38.6355 26.5198 37.6134 28.2403 37.5701 28.312L37.4147 28.5718ZM34.5844 27.6367L36.6835 27.4371C37.3589 26.1891 40.0502 20.7392 37.6017 17.2645C36.9768 16.3761 36.2382 15.8684 35.4081 15.7539C34.3101 15.6012 33.2762 16.1551 32.7999 16.4641L34.5844 27.6367Z" fill="#0B2595"/>
<path d="M11.8789 25.7754C12.0245 28.9739 15.1297 31.8335 16.0427 32.607L19.4003 31.3923C14.8814 27.7886 14.4882 23.611 14.5814 21.7169C13.5108 22.2059 11.8144 23.3638 11.8789 25.7754Z" fill="#FF63F6"/>
<path d="M15.8206 33.9626L15.5592 33.7614C15.3695 33.6155 10.9321 30.1668 10.6831 25.9136C10.682 25.8813 10.6809 25.8491 10.6798 25.8169C10.5789 22.275 13.5499 20.6219 15.1492 20.241L16.0798 20.0194L15.8758 20.9531C15.8277 21.1856 14.731 26.721 21.0009 31.0839L21.9509 31.7462L15.8226 33.9623L15.8206 33.9626ZM11.8804 25.773C12.0259 28.9715 15.1311 31.831 16.0442 32.6046L19.4018 31.3899C14.8829 27.7862 14.4896 23.6086 14.5829 21.7145C13.5123 22.2034 11.8158 23.3613 11.8804 25.773Z" fill="#0B2595"/>
<path d="M24.8598 17.3125C24.5788 17.3574 24.2935 17.4394 24.0185 17.5724C23.2653 17.9398 22.7216 18.6523 22.4045 19.6912C21.1581 23.756 25.4151 28.0961 26.4457 29.0716L28.5025 28.6074L26.7181 17.4349C26.3218 17.3301 25.6039 17.1936 24.8598 17.3125Z" fill="#FF63F6"/>
<path d="M26.1056 30.378L25.877 30.1796C25.6203 29.9573 19.6202 24.6785 21.2559 19.3406C21.6758 17.9674 22.4319 17.0083 23.5017 16.4891C25.3326 15.6013 27.3845 16.3772 27.4713 16.412L27.7936 16.5367L29.8688 29.5299L26.1056 30.378ZM24.8611 17.3128C24.5801 17.3577 24.2949 17.4397 24.0198 17.5727C23.2667 17.9401 22.7229 18.6527 22.4058 19.6915C21.1595 23.7563 25.4165 28.0965 26.447 29.072L28.5038 28.6078L26.7194 17.4352C26.3231 17.3304 25.6052 17.194 24.8611 17.3128Z" fill="#0B2595"/>
<path d="M52.1186 36.1857C51.5806 35.3583 49.5345 34.7718 46.5092 34.5726C42.8338 34.3314 37.9812 34.6487 32.8436 35.4693L32.7249 35.4883C27.5775 36.3104 22.8651 37.5187 19.448 38.8947C16.6352 40.0264 14.8756 41.2207 14.6221 42.1745L13.4476 42.115L12.5734 36.6413C10.8771 35.9827 3.70272 32.793 3.60522 25.9053C3.56759 23.2808 4.38214 21.1378 6.02374 19.535C8.92971 16.6996 13.5044 16.459 14.7913 16.4479C18.3444 11.3362 23.5468 10.5276 26.7259 10.9271C25.9911 9.45273 24.2917 9.19361 24.2087 9.18256C21.6003 8.77295 19.0848 9.65667 19.0601 9.66671L17.8062 10.114L18.299 8.87902C19.7009 5.36851 22.8114 4.66516 24.4214 4.54167C23.7595 2.78639 24.232 1.33592 24.8013 0.37627C25.4892 -0.780541 26.4432 -1.45334 26.5514 -1.5253L26.7931 -1.68945L26.8414 -1.71742L26.8986 -1.70226L27.1748 -1.62487C27.2238 -1.61042 28.3814 -1.27488 29.4207 -0.371656C30.2668 0.36397 31.1762 1.59776 31.093 3.47813C32.659 3.09233 35.8339 2.79181 38.2617 5.69267L39.117 6.71439L37.7816 6.67657C37.7553 6.67673 35.0897 6.62051 32.7479 7.81669C32.6632 7.85856 31.129 8.63416 30.8901 10.264C33.7846 8.89448 38.982 8.04209 43.9505 11.7927C45.1766 11.4004 49.5967 10.2044 53.2432 11.9933C55.3024 13.005 56.7439 14.7876 57.5257 17.2933C59.5785 23.8687 53.7546 29.1345 52.3478 30.2886L53.222 35.7624L52.1246 36.1847L52.1186 36.1857ZM32.6425 34.2864C37.877 33.4504 42.8262 33.1277 46.5899 33.375C48.9279 33.5281 50.6502 33.8788 51.7865 34.4364L51.0422 29.7763L51.332 29.5578C51.4026 29.504 58.3954 24.1366 56.373 17.6495C55.6943 15.4716 54.4619 13.931 52.713 13.0703C48.9952 11.2421 44.0915 13.0054 44.0416 13.0235L43.7252 13.1389L43.4604 12.93C38.363 8.90641 32.9851 10.306 30.6105 11.7667L29.8325 12.2453L29.7006 11.343C29.3327 8.83601 31.1812 7.23261 32.2097 6.73421C33.7109 5.96794 35.2978 5.66183 36.399 5.54264C33.7999 3.51357 30.7636 4.80853 30.6195 4.87205L29.5519 5.34225L29.7881 4.20292C30.4189 1.16386 27.9501 -0.0618483 27.109 -0.385163L27.0508 -0.406249L27.0024 -0.36612C26.3005 0.207688 24.3426 2.14245 25.8857 4.82821L26.4702 5.84458L25.3021 5.72333C25.1474 5.70755 21.8568 5.4231 20.0213 8.16249C21.1049 7.93273 22.7121 7.72867 24.3879 7.99158C25.5076 8.14079 27.7636 9.08864 28.1929 11.5858L28.3486 12.4843L27.4602 12.2718C24.7488 11.6235 19.2024 11.9687 15.6119 17.3799L15.4254 17.6608L15.0885 17.6478C15.0374 17.6458 9.82641 17.498 6.86302 20.3932C5.46924 21.7559 4.77803 23.6038 4.81152 25.8847C4.90837 32.6794 13.2272 35.6013 13.311 35.6304L13.6525 35.748L14.3968 40.4082C15.3048 39.524 16.8302 38.6547 19.0043 37.7809C22.5036 36.3735 27.3071 35.1386 32.5297 34.3044L32.6188 34.2902L32.6485 34.2854L32.6425 34.2864Z" fill="#0B2595"/>
<path d="M12.5739 36.6429C11.9398 36.3959 10.5412 35.7971 9.03162 34.7827L11.7787 36.7598C12.0878 36.9919 12.3936 37.2043 12.695 37.4012L12.5739 36.6429Z" fill="#0B2595"/>
<path d="M8.15918 34.1528L8.17822 34.1684C8.1712 34.1633 8.1662 34.1579 8.15918 34.1528Z" fill="#0B2595"/>
<ellipse cx="33.3213" cy="39.0526" rx="20.1441" ry="3.88429" transform="rotate(-9.07443 33.3213 39.0526)" fill="#0B2595"/>
<ellipse cx="33.3213" cy="39.0526" rx="20.1441" ry="3.88429" transform="rotate(-9.07443 33.3213 39.0526)" fill="#0B2595"/>
</g>
</svg>
