<svg preserveAspectRatio="none" width="100%" height="100%" overflow="visible" style="display: block;" viewBox="0 0 83 32" fill="none" xmlns="http://www.w3.org/2000/svg">
<path id="Vector" d="M76.847 25.9968C74.7961 25.9968 72.9008 25.4042 71.2912 24.4251C72.8229 21.9775 73.7316 19.066 73.7316 15.9742C73.7316 7.16264 66.5142 0 57.6353 0C48.7563 0 41.5389 7.16264 41.5389 15.9742C41.5389 24.7858 48.7563 31.9485 57.6353 31.9485C61.1921 31.9485 64.4892 30.7891 67.1373 28.8567C69.8633 30.8148 73.2124 32 76.847 32C79.0278 32 81.1048 31.5878 83 30.8148V24.0129C81.2865 25.2754 79.1576 25.9968 76.847 25.9968ZM66.7479 18.963C65.5536 17.7005 64.1517 16.5926 62.5421 15.7166C60.9584 14.8663 59.2968 14.2995 57.6353 13.9903V20.1224C58.3362 20.3285 59.0113 20.6119 59.6603 20.9469C61.0363 21.694 62.1786 22.6989 63.0613 23.8583C61.5296 24.9147 59.6603 25.533 57.6612 25.533C52.365 25.5588 48.0554 21.3076 48.0554 16.0515C48.0554 10.7955 52.3391 6.54428 57.6353 6.54428C62.9315 6.54428 67.2152 10.7955 67.2152 16.0515C67.2152 17.0821 67.0594 18.0612 66.7479 18.963ZM11.8646 16.773L5.97122 1.10789H0V30.8921C1.7654 29.9646 3.92024 29.037 6.41258 28.161V15.8712L10.5924 26.847C11.5011 26.5894 12.4357 26.3317 13.4223 26.0998L17.3165 15.8969V25.1723C18.9002 24.8374 23.2099 24.1159 23.7291 24.0386V1.10789H17.3165L11.8646 16.773ZM36.2427 1.49952C35.3315 2.05088 34.8356 3.08921 34.5214 4.06312C34.1216 5.30757 33.8309 6.45926 33.6595 7.75523C33.6569 7.781 33.631 7.99742 33.5427 7.99742C33.457 7.99742 33.4648 7.84284 33.4648 7.84284V1.11304H26.9484V23.5749C29.2071 23.2915 31.3879 23.1111 33.4648 23.0081V11.419C33.4648 11.0325 33.4908 10.6203 33.5427 10.2338C33.5946 9.89888 33.6985 9.56393 33.9321 9.30628C34.036 9.17746 34.1917 9.0744 34.3475 8.9971C34.7629 8.76522 35.2302 8.71369 35.6975 8.68792C36.4764 8.66216 38.9947 8.63639 38.9947 8.63639V1.11304H37.8004C37.2552 1.13881 36.71 1.2161 36.2427 1.49952Z" fill="var(--fill-0, white)"/>
</svg>
