<svg width="65" height="45" viewBox="0 0 65 45" fill="none" xmlns="http://www.w3.org/2000/svg">
<mask id="mask0_216_46612" style="mask-type:alpha" maskUnits="userSpaceOnUse" x="0" y="0" width="65" height="45">
<rect width="65" height="45" fill="#0322AC"/>
</mask>
<g mask="url(#mask0_216_46612)">
<path d="M40.9572 17.3756C43.5451 18.979 44.3441 22.3874 42.7412 24.9748L37.4722 33.4799C35.8692 36.0673 32.4616 36.8697 29.8736 35.2665C29.7388 35.183 29.6089 35.0923 29.4825 34.9967C29.4753 34.9915 29.4687 34.9855 29.4616 34.9803C29.4524 34.9733 29.4419 34.9672 29.4328 34.9601L29.4338 34.9585C29.3562 34.8994 29.2923 34.8475 29.2832 34.8399L29.2838 34.8391C29.1872 34.7618 29.1089 34.6929 29.083 34.6699L29.0794 34.6665C29.0077 34.6024 28.9443 34.538 28.908 34.5018L28.9075 34.5026C28.9065 34.5017 28.9057 34.5006 28.9047 34.4997C28.8997 34.4947 28.8948 34.4904 28.891 34.4866L28.8915 34.4858C28.8447 34.4398 28.7783 34.3755 28.7091 34.2981L28.7023 34.2905C28.6823 34.2678 28.7013 34.2885 28.6502 34.2318C28.6204 34.1987 28.5695 34.1404 28.5133 34.0689L28.5128 34.0697C28.4921 34.0434 28.4733 34.0194 28.4641 34.0074C28.4587 34.0002 28.4554 33.9957 28.4528 33.9923C28.4506 33.9894 28.4497 33.9881 28.4497 33.9881L28.4395 33.9748C28.1104 33.5492 27.8371 33.0753 27.6394 32.559L27.2534 31.5502L27.9461 30.7214C28.0614 30.5836 28.1633 30.4449 28.2513 30.3028C28.762 29.4786 28.9014 28.5268 28.7141 27.6348L28.5627 26.915L32.3952 20.7286L32.3902 20.7255L33.3586 19.1623C34.9616 16.5748 38.3692 15.7723 40.9572 17.3756Z" fill="#FF63F6" stroke="white" stroke-width="3.67853"/>
<mask id="path-3-outside-1_216_46612" maskUnits="userSpaceOnUse" x="-5.40334" y="-9.01961" width="68.6788" height="74.5009" fill="black">
<rect fill="white" x="-5.40334" y="-9.01961" width="68.6788" height="74.5009"/>
<path d="M54.5123 12.9024C52.7885 11.8345 50.5141 12.3693 49.4457 14.094L42.7214 24.9482C42.7214 24.9482 42.7182 24.9533 42.715 24.9585L37.4459 33.4638C35.8528 36.0354 32.464 36.8323 29.8936 35.2399C29.7938 35.1781 29.6972 35.1112 29.6007 35.0443C29.57 35.0253 29.545 35.0028 29.5185 34.9828C29.45 34.9333 29.3832 34.8812 29.3205 34.8282C29.2929 34.8041 29.2638 34.7825 29.2363 34.7584C29.171 34.7038 29.1073 34.6466 29.0478 34.5885C29.0254 34.5675 29.003 34.5466 28.9831 34.5272C28.9073 34.4554 28.8356 34.3827 28.7654 34.3073C28.7577 34.3026 28.7532 34.2927 28.7456 34.288C28.5022 34.0239 28.288 33.7354 28.1076 33.4325C28.1041 33.4267 28.1006 33.421 28.097 33.4153C28.0396 33.3195 27.9837 33.2211 27.932 33.1218C27.9294 33.1202 27.9285 33.1161 27.9275 33.1119C27.0723 33.6125 26.0957 33.875 25.106 33.8673C25.7878 35.4688 25.7063 37.3658 24.7235 38.9522L22.5994 42.3809L21.0648 41.4303L23.1889 38.0015C24.2716 36.2539 23.7319 33.9544 21.985 32.8722L17.724 30.2325L18.6751 28.6972L23.2149 31.5096C23.3121 31.5699 23.4125 31.6249 23.5134 31.6733C23.5457 31.6898 23.577 31.7021 23.6067 31.717C23.678 31.7505 23.7508 31.7815 23.8253 31.8099C23.8591 31.8238 23.8946 31.8351 23.9284 31.849C24.0096 31.878 24.0897 31.9029 24.1714 31.9252C24.1951 31.9327 24.2213 31.9419 24.2465 31.9469C24.3467 31.9736 24.4476 31.9936 24.5516 32.0085C24.5928 32.0163 24.633 32.0199 24.6758 32.0252C24.7386 32.0322 24.8041 32.0409 24.8659 32.0438C24.917 32.0471 24.9639 32.0514 25.0124 32.0531C25.0676 32.0554 25.1243 32.0552 25.1786 32.0534C25.2312 32.0541 25.2813 32.0533 25.3355 32.0515C25.383 32.049 25.4321 32.044 25.4812 32.039C25.5902 32.0287 25.6983 32.0142 25.8054 31.9956C25.8386 31.9878 25.8727 31.9841 25.9058 31.9763C25.9747 31.9623 26.0409 31.9468 26.1063 31.927C26.1327 31.9186 26.1617 31.9118 26.1881 31.9034C26.5131 31.8073 26.8217 31.6692 27.1112 31.4874C27.1227 31.4803 27.1357 31.4707 27.1472 31.4636C27.242 31.402 27.3333 31.3346 27.422 31.2656C27.457 31.2377 27.492 31.2098 27.5244 31.1804C27.5845 31.1291 27.642 31.0762 27.7011 31.0207C27.7367 30.9861 27.7707 30.9541 27.8038 30.9179C27.8619 30.8583 27.9165 30.793 27.9696 30.7303C27.9969 30.6976 28.0267 30.6666 28.0515 30.6323C28.1309 30.5328 28.2041 30.4259 28.2723 30.3159C28.3563 30.1803 28.4285 30.0409 28.494 29.9009C28.5158 29.8542 28.53 29.8028 28.5493 29.7545C28.5862 29.6606 28.6258 29.5682 28.6551 29.4695C28.674 29.4104 28.6862 29.3507 28.7026 29.29C28.7239 29.2041 28.7469 29.1157 28.7615 29.0292C28.7728 28.9653 28.7789 28.8983 28.786 28.8354C28.7949 28.7524 28.808 28.6685 28.8103 28.5849C28.8138 28.5163 28.8117 28.4512 28.8137 28.3852C28.8143 28.3041 28.8124 28.2215 28.8064 28.1399C28.8016 28.0732 28.7944 28.005 28.7855 27.9393C28.7753 27.8586 28.7635 27.7805 28.7492 27.7008C28.7362 27.6361 28.7232 27.5714 28.7076 27.5051C28.6892 27.4264 28.664 27.347 28.6414 27.2693C28.6226 27.2081 28.6014 27.1454 28.5785 27.0852C28.5337 26.9689 28.4889 26.8526 28.4343 26.7409C28.4308 26.7352 28.4263 26.7253 28.4227 26.7196C28.3083 26.4929 28.1726 26.2778 28.0098 26.0778C27.9916 26.0559 27.9749 26.0314 27.9566 26.0095C27.9201 25.9656 27.8794 25.9227 27.8388 25.8798C27.8006 25.8385 27.7625 25.7972 27.7228 25.7584C27.6883 25.7228 27.6521 25.6898 27.6134 25.6552C27.5609 25.6085 27.5084 25.5618 27.4543 25.5177C27.4242 25.492 27.3942 25.4663 27.36 25.4415C27.2701 25.3752 27.1776 25.3073 27.0804 25.2471L18.0086 19.627C16.2847 18.5591 14.0103 19.094 12.9419 20.8186L9.60038 26.2125C9.43077 26.4863 9.26883 26.7648 9.11614 27.0455C9.06736 27.1357 9.02114 27.2275 8.97492 27.3192C8.87357 27.5114 8.77637 27.7025 8.68429 27.8969C8.6327 28.003 8.58622 28.1123 8.53718 28.22C8.45558 28.4032 8.37556 28.5837 8.2981 28.7659C8.2526 28.8793 8.20868 28.9902 8.16476 29.1011C8.094 29.2839 8.0258 29.4682 7.96016 29.6542C7.92038 29.7641 7.88475 29.873 7.84911 29.982C7.78383 30.1788 7.72524 30.3762 7.6708 30.5726C7.64151 30.6713 7.61222 30.77 7.58548 30.8703C7.52542 31.0986 7.4695 31.326 7.42028 31.554C7.40587 31.6229 7.38731 31.6929 7.37131 31.7644C7.24062 32.381 7.14344 33.0006 7.08134 33.6207C7.0795 33.6408 7.07766 33.6609 7.07582 33.681C7.04692 33.9676 7.02727 34.2564 7.01335 34.5417C7.01101 34.5969 7.01122 34.6537 7.00888 34.7089C7.00058 34.9622 6.99484 35.2172 6.99738 35.4701C6.99699 35.5336 7.00073 35.5961 7.00033 35.6596C7.00446 35.91 7.01529 36.1611 7.03026 36.4111C7.03303 36.4695 7.03581 36.5278 7.04272 36.5852C7.06061 36.8477 7.0852 37.1108 7.1165 37.3745C7.11952 37.4153 7.12669 37.4552 7.12971 37.496C7.28304 38.7453 7.56929 39.9742 7.98618 41.1637C9.25555 44.7934 11.7218 48.0279 15.2385 50.2065C18.7552 52.3852 22.7496 53.153 26.5647 52.6733C27.8128 52.5153 29.0433 52.2259 30.2301 51.8069C30.2706 51.793 30.3069 51.7801 30.3448 51.7646C30.5948 51.6752 30.8388 51.5785 31.0843 51.4792C31.1378 51.4557 31.1939 51.4338 31.2458 51.4128C31.4764 51.3149 31.7034 51.2112 31.9294 51.1034C31.9861 51.0748 32.0437 51.0503 32.1004 51.0217C32.3281 50.9113 32.5538 50.7926 32.7769 50.6724C32.8253 50.6457 32.8762 50.6206 32.9246 50.5939C33.1738 50.4545 33.4236 50.3083 33.6674 50.1548C33.6846 50.1442 33.7018 50.1336 33.7189 50.123C34.2465 49.7912 34.758 49.4283 35.2519 49.0367C35.3088 48.9905 35.3616 48.9453 35.4185 48.8991C35.5982 48.752 35.7794 48.6022 35.9546 48.4452C36.0325 48.3766 36.1078 48.3064 36.1831 48.2362C36.3364 48.0974 36.4845 47.9555 36.63 47.812C36.7117 47.7316 36.7949 47.6486 36.874 47.5666C37.0113 47.425 37.146 47.2819 37.2781 47.1371C37.3579 47.0484 37.4417 46.9587 37.5189 46.8684C37.6501 46.7196 37.7761 46.5675 37.9038 46.4129C37.9784 46.321 38.0555 46.2307 38.1276 46.1373C38.2606 45.9683 38.3875 45.792 38.5154 45.6198C38.5744 45.536 38.6386 45.4553 38.6976 45.3715C38.8809 45.1098 39.0582 44.8407 39.2278 44.5669L55.7042 17.9711C56.7726 16.2465 56.2387 13.9719 54.5149 12.904L54.5123 12.9024ZM45.5783 30.0429L43.0948 28.5044L44.0459 26.9691L46.5294 28.5077L45.5783 30.0429ZM49.9248 23.0268L47.4414 21.4883L48.3925 19.953L50.8759 21.4915L49.9248 23.0268Z"/>
</mask>
<path d="M54.5123 12.9024C52.7885 11.8345 50.5141 12.3693 49.4457 14.094L42.7214 24.9482C42.7214 24.9482 42.7182 24.9533 42.715 24.9585L37.4459 33.4638C35.8528 36.0354 32.464 36.8323 29.8936 35.2399C29.7938 35.1781 29.6972 35.1112 29.6007 35.0443C29.57 35.0253 29.545 35.0028 29.5185 34.9828C29.45 34.9333 29.3832 34.8812 29.3205 34.8282C29.2929 34.8041 29.2638 34.7825 29.2363 34.7584C29.171 34.7038 29.1073 34.6466 29.0478 34.5885C29.0254 34.5675 29.003 34.5466 28.9831 34.5272C28.9073 34.4554 28.8356 34.3827 28.7654 34.3073C28.7577 34.3026 28.7532 34.2927 28.7456 34.288C28.5022 34.0239 28.288 33.7354 28.1076 33.4325C28.1041 33.4267 28.1006 33.421 28.097 33.4153C28.0396 33.3195 27.9837 33.2211 27.932 33.1218C27.9294 33.1202 27.9285 33.1161 27.9275 33.1119C27.0723 33.6125 26.0957 33.875 25.106 33.8673C25.7878 35.4688 25.7063 37.3658 24.7235 38.9522L22.5994 42.3809L21.0648 41.4303L23.1889 38.0015C24.2716 36.2539 23.7319 33.9544 21.985 32.8722L17.724 30.2325L18.6751 28.6972L23.2149 31.5096C23.3121 31.5699 23.4125 31.6249 23.5134 31.6733C23.5457 31.6898 23.577 31.7021 23.6067 31.717C23.678 31.7505 23.7508 31.7815 23.8253 31.8099C23.8591 31.8238 23.8946 31.8351 23.9284 31.849C24.0096 31.878 24.0897 31.9029 24.1714 31.9252C24.1951 31.9327 24.2213 31.9419 24.2465 31.9469C24.3467 31.9736 24.4476 31.9936 24.5516 32.0085C24.5928 32.0163 24.633 32.0199 24.6758 32.0252C24.7386 32.0322 24.8041 32.0409 24.8659 32.0438C24.917 32.0471 24.9639 32.0514 25.0124 32.0531C25.0676 32.0554 25.1243 32.0552 25.1786 32.0534C25.2312 32.0541 25.2813 32.0533 25.3355 32.0515C25.383 32.049 25.4321 32.044 25.4812 32.039C25.5902 32.0287 25.6983 32.0142 25.8054 31.9956C25.8386 31.9878 25.8727 31.9841 25.9058 31.9763C25.9747 31.9623 26.0409 31.9468 26.1063 31.927C26.1327 31.9186 26.1617 31.9118 26.1881 31.9034C26.5131 31.8073 26.8217 31.6692 27.1112 31.4874C27.1227 31.4803 27.1357 31.4707 27.1472 31.4636C27.242 31.402 27.3333 31.3346 27.422 31.2656C27.457 31.2377 27.492 31.2098 27.5244 31.1804C27.5845 31.1291 27.642 31.0762 27.7011 31.0207C27.7367 30.9861 27.7707 30.9541 27.8038 30.9179C27.8619 30.8583 27.9165 30.793 27.9696 30.7303C27.9969 30.6976 28.0267 30.6666 28.0515 30.6323C28.1309 30.5328 28.2041 30.4259 28.2723 30.3159C28.3563 30.1803 28.4285 30.0409 28.494 29.9009C28.5158 29.8542 28.53 29.8028 28.5493 29.7545C28.5862 29.6606 28.6258 29.5682 28.6551 29.4695C28.674 29.4104 28.6862 29.3507 28.7026 29.29C28.7239 29.2041 28.7469 29.1157 28.7615 29.0292C28.7728 28.9653 28.7789 28.8983 28.786 28.8354C28.7949 28.7524 28.808 28.6685 28.8103 28.5849C28.8138 28.5163 28.8117 28.4512 28.8137 28.3852C28.8143 28.3041 28.8124 28.2215 28.8064 28.1399C28.8016 28.0732 28.7944 28.005 28.7855 27.9393C28.7753 27.8586 28.7635 27.7805 28.7492 27.7008C28.7362 27.6361 28.7232 27.5714 28.7076 27.5051C28.6892 27.4264 28.664 27.347 28.6414 27.2693C28.6226 27.2081 28.6014 27.1454 28.5785 27.0852C28.5337 26.9689 28.4889 26.8526 28.4343 26.7409C28.4308 26.7352 28.4263 26.7253 28.4227 26.7196C28.3083 26.4929 28.1726 26.2778 28.0098 26.0778C27.9916 26.0559 27.9749 26.0314 27.9566 26.0095C27.9201 25.9656 27.8794 25.9227 27.8388 25.8798C27.8006 25.8385 27.7625 25.7972 27.7228 25.7584C27.6883 25.7228 27.6521 25.6898 27.6134 25.6552C27.5609 25.6085 27.5084 25.5618 27.4543 25.5177C27.4242 25.492 27.3942 25.4663 27.36 25.4415C27.2701 25.3752 27.1776 25.3073 27.0804 25.2471L18.0086 19.627C16.2847 18.5591 14.0103 19.094 12.9419 20.8186L9.60038 26.2125C9.43077 26.4863 9.26883 26.7648 9.11614 27.0455C9.06736 27.1357 9.02114 27.2275 8.97492 27.3192C8.87357 27.5114 8.77637 27.7025 8.68429 27.8969C8.6327 28.003 8.58622 28.1123 8.53718 28.22C8.45558 28.4032 8.37556 28.5837 8.2981 28.7659C8.2526 28.8793 8.20868 28.9902 8.16476 29.1011C8.094 29.2839 8.0258 29.4682 7.96016 29.6542C7.92038 29.7641 7.88475 29.873 7.84911 29.982C7.78383 30.1788 7.72524 30.3762 7.6708 30.5726C7.64151 30.6713 7.61222 30.77 7.58548 30.8703C7.52542 31.0986 7.4695 31.326 7.42028 31.554C7.40587 31.6229 7.38731 31.6929 7.37131 31.7644C7.24062 32.381 7.14344 33.0006 7.08134 33.6207C7.0795 33.6408 7.07766 33.6609 7.07582 33.681C7.04692 33.9676 7.02727 34.2564 7.01335 34.5417C7.01101 34.5969 7.01122 34.6537 7.00888 34.7089C7.00058 34.9622 6.99484 35.2172 6.99738 35.4701C6.99699 35.5336 7.00073 35.5961 7.00033 35.6596C7.00446 35.91 7.01529 36.1611 7.03026 36.4111C7.03303 36.4695 7.03581 36.5278 7.04272 36.5852C7.06061 36.8477 7.0852 37.1108 7.1165 37.3745C7.11952 37.4153 7.12669 37.4552 7.12971 37.496C7.28304 38.7453 7.56929 39.9742 7.98618 41.1637C9.25555 44.7934 11.7218 48.0279 15.2385 50.2065C18.7552 52.3852 22.7496 53.153 26.5647 52.6733C27.8128 52.5153 29.0433 52.2259 30.2301 51.8069C30.2706 51.793 30.3069 51.7801 30.3448 51.7646C30.5948 51.6752 30.8388 51.5785 31.0843 51.4792C31.1378 51.4557 31.1939 51.4338 31.2458 51.4128C31.4764 51.3149 31.7034 51.2112 31.9294 51.1034C31.9861 51.0748 32.0437 51.0503 32.1004 51.0217C32.3281 50.9113 32.5538 50.7926 32.7769 50.6724C32.8253 50.6457 32.8762 50.6206 32.9246 50.5939C33.1738 50.4545 33.4236 50.3083 33.6674 50.1548C33.6846 50.1442 33.7018 50.1336 33.7189 50.123C34.2465 49.7912 34.758 49.4283 35.2519 49.0367C35.3088 48.9905 35.3616 48.9453 35.4185 48.8991C35.5982 48.752 35.7794 48.6022 35.9546 48.4452C36.0325 48.3766 36.1078 48.3064 36.1831 48.2362C36.3364 48.0974 36.4845 47.9555 36.63 47.812C36.7117 47.7316 36.7949 47.6486 36.874 47.5666C37.0113 47.425 37.146 47.2819 37.2781 47.1371C37.3579 47.0484 37.4417 46.9587 37.5189 46.8684C37.6501 46.7196 37.7761 46.5675 37.9038 46.4129C37.9784 46.321 38.0555 46.2307 38.1276 46.1373C38.2606 45.9683 38.3875 45.792 38.5154 45.6198C38.5744 45.536 38.6386 45.4553 38.6976 45.3715C38.8809 45.1098 39.0582 44.8407 39.2278 44.5669L55.7042 17.9711C56.7726 16.2465 56.2387 13.9719 54.5149 12.904L54.5123 12.9024ZM45.5783 30.0429L43.0948 28.5044L44.0459 26.9691L46.5294 28.5077L45.5783 30.0429ZM49.9248 23.0268L47.4414 21.4883L48.3925 19.953L50.8759 21.4915L49.9248 23.0268Z" fill="#FF63F6"/>
<path d="M54.5123 12.9024C52.7885 11.8345 50.5141 12.3693 49.4457 14.094L42.7214 24.9482C42.7214 24.9482 42.7182 24.9533 42.715 24.9585L37.4459 33.4638C35.8528 36.0354 32.464 36.8323 29.8936 35.2399C29.7938 35.1781 29.6972 35.1112 29.6007 35.0443C29.57 35.0253 29.545 35.0028 29.5185 34.9828C29.45 34.9333 29.3832 34.8812 29.3205 34.8282C29.2929 34.8041 29.2638 34.7825 29.2363 34.7584C29.171 34.7038 29.1073 34.6466 29.0478 34.5885C29.0254 34.5675 29.003 34.5466 28.9831 34.5272C28.9073 34.4554 28.8356 34.3827 28.7654 34.3073C28.7577 34.3026 28.7532 34.2927 28.7456 34.288C28.5022 34.0239 28.288 33.7354 28.1076 33.4325C28.1041 33.4267 28.1006 33.421 28.097 33.4153C28.0396 33.3195 27.9837 33.2211 27.932 33.1218C27.9294 33.1202 27.9285 33.1161 27.9275 33.1119C27.0723 33.6125 26.0957 33.875 25.106 33.8673C25.7878 35.4688 25.7063 37.3658 24.7235 38.9522L22.5994 42.3809L21.0648 41.4303L23.1889 38.0015C24.2716 36.2539 23.7319 33.9544 21.985 32.8722L17.724 30.2325L18.6751 28.6972L23.2149 31.5096C23.3121 31.5699 23.4125 31.6249 23.5134 31.6733C23.5457 31.6898 23.577 31.7021 23.6067 31.717C23.678 31.7505 23.7508 31.7815 23.8253 31.8099C23.8591 31.8238 23.8946 31.8351 23.9284 31.849C24.0096 31.878 24.0897 31.9029 24.1714 31.9252C24.1951 31.9327 24.2213 31.9419 24.2465 31.9469C24.3467 31.9736 24.4476 31.9936 24.5516 32.0085C24.5928 32.0163 24.633 32.0199 24.6758 32.0252C24.7386 32.0322 24.8041 32.0409 24.8659 32.0438C24.917 32.0471 24.9639 32.0514 25.0124 32.0531C25.0676 32.0554 25.1243 32.0552 25.1786 32.0534C25.2312 32.0541 25.2813 32.0533 25.3355 32.0515C25.383 32.049 25.4321 32.044 25.4812 32.039C25.5902 32.0287 25.6983 32.0142 25.8054 31.9956C25.8386 31.9878 25.8727 31.9841 25.9058 31.9763C25.9747 31.9623 26.0409 31.9468 26.1063 31.927C26.1327 31.9186 26.1617 31.9118 26.1881 31.9034C26.5131 31.8073 26.8217 31.6692 27.1112 31.4874C27.1227 31.4803 27.1357 31.4707 27.1472 31.4636C27.242 31.402 27.3333 31.3346 27.422 31.2656C27.457 31.2377 27.492 31.2098 27.5244 31.1804C27.5845 31.1291 27.642 31.0762 27.7011 31.0207C27.7367 30.9861 27.7707 30.9541 27.8038 30.9179C27.8619 30.8583 27.9165 30.793 27.9696 30.7303C27.9969 30.6976 28.0267 30.6666 28.0515 30.6323C28.1309 30.5328 28.2041 30.4259 28.2723 30.3159C28.3563 30.1803 28.4285 30.0409 28.494 29.9009C28.5158 29.8542 28.53 29.8028 28.5493 29.7545C28.5862 29.6606 28.6258 29.5682 28.6551 29.4695C28.674 29.4104 28.6862 29.3507 28.7026 29.29C28.7239 29.2041 28.7469 29.1157 28.7615 29.0292C28.7728 28.9653 28.7789 28.8983 28.786 28.8354C28.7949 28.7524 28.808 28.6685 28.8103 28.5849C28.8138 28.5163 28.8117 28.4512 28.8137 28.3852C28.8143 28.3041 28.8124 28.2215 28.8064 28.1399C28.8016 28.0732 28.7944 28.005 28.7855 27.9393C28.7753 27.8586 28.7635 27.7805 28.7492 27.7008C28.7362 27.6361 28.7232 27.5714 28.7076 27.5051C28.6892 27.4264 28.664 27.347 28.6414 27.2693C28.6226 27.2081 28.6014 27.1454 28.5785 27.0852C28.5337 26.9689 28.4889 26.8526 28.4343 26.7409C28.4308 26.7352 28.4263 26.7253 28.4227 26.7196C28.3083 26.4929 28.1726 26.2778 28.0098 26.0778C27.9916 26.0559 27.9749 26.0314 27.9566 26.0095C27.9201 25.9656 27.8794 25.9227 27.8388 25.8798C27.8006 25.8385 27.7625 25.7972 27.7228 25.7584C27.6883 25.7228 27.6521 25.6898 27.6134 25.6552C27.5609 25.6085 27.5084 25.5618 27.4543 25.5177C27.4242 25.492 27.3942 25.4663 27.36 25.4415C27.2701 25.3752 27.1776 25.3073 27.0804 25.2471L18.0086 19.627C16.2847 18.5591 14.0103 19.094 12.9419 20.8186L9.60038 26.2125C9.43077 26.4863 9.26883 26.7648 9.11614 27.0455C9.06736 27.1357 9.02114 27.2275 8.97492 27.3192C8.87357 27.5114 8.77637 27.7025 8.68429 27.8969C8.6327 28.003 8.58622 28.1123 8.53718 28.22C8.45558 28.4032 8.37556 28.5837 8.2981 28.7659C8.2526 28.8793 8.20868 28.9902 8.16476 29.1011C8.094 29.2839 8.0258 29.4682 7.96016 29.6542C7.92038 29.7641 7.88475 29.873 7.84911 29.982C7.78383 30.1788 7.72524 30.3762 7.6708 30.5726C7.64151 30.6713 7.61222 30.77 7.58548 30.8703C7.52542 31.0986 7.4695 31.326 7.42028 31.554C7.40587 31.6229 7.38731 31.6929 7.37131 31.7644C7.24062 32.381 7.14344 33.0006 7.08134 33.6207C7.0795 33.6408 7.07766 33.6609 7.07582 33.681C7.04692 33.9676 7.02727 34.2564 7.01335 34.5417C7.01101 34.5969 7.01122 34.6537 7.00888 34.7089C7.00058 34.9622 6.99484 35.2172 6.99738 35.4701C6.99699 35.5336 7.00073 35.5961 7.00033 35.6596C7.00446 35.91 7.01529 36.1611 7.03026 36.4111C7.03303 36.4695 7.03581 36.5278 7.04272 36.5852C7.06061 36.8477 7.0852 37.1108 7.1165 37.3745C7.11952 37.4153 7.12669 37.4552 7.12971 37.496C7.28304 38.7453 7.56929 39.9742 7.98618 41.1637C9.25555 44.7934 11.7218 48.0279 15.2385 50.2065C18.7552 52.3852 22.7496 53.153 26.5647 52.6733C27.8128 52.5153 29.0433 52.2259 30.2301 51.8069C30.2706 51.793 30.3069 51.7801 30.3448 51.7646C30.5948 51.6752 30.8388 51.5785 31.0843 51.4792C31.1378 51.4557 31.1939 51.4338 31.2458 51.4128C31.4764 51.3149 31.7034 51.2112 31.9294 51.1034C31.9861 51.0748 32.0437 51.0503 32.1004 51.0217C32.3281 50.9113 32.5538 50.7926 32.7769 50.6724C32.8253 50.6457 32.8762 50.6206 32.9246 50.5939C33.1738 50.4545 33.4236 50.3083 33.6674 50.1548C33.6846 50.1442 33.7018 50.1336 33.7189 50.123C34.2465 49.7912 34.758 49.4283 35.2519 49.0367C35.3088 48.9905 35.3616 48.9453 35.4185 48.8991C35.5982 48.752 35.7794 48.6022 35.9546 48.4452C36.0325 48.3766 36.1078 48.3064 36.1831 48.2362C36.3364 48.0974 36.4845 47.9555 36.63 47.812C36.7117 47.7316 36.7949 47.6486 36.874 47.5666C37.0113 47.425 37.146 47.2819 37.2781 47.1371C37.3579 47.0484 37.4417 46.9587 37.5189 46.8684C37.6501 46.7196 37.7761 46.5675 37.9038 46.4129C37.9784 46.321 38.0555 46.2307 38.1276 46.1373C38.2606 45.9683 38.3875 45.792 38.5154 45.6198C38.5744 45.536 38.6386 45.4553 38.6976 45.3715C38.8809 45.1098 39.0582 44.8407 39.2278 44.5669L55.7042 17.9711C56.7726 16.2465 56.2387 13.9719 54.5149 12.904L54.5123 12.9024ZM45.5783 30.0429L43.0948 28.5044L44.0459 26.9691L46.5294 28.5077L45.5783 30.0429ZM49.9248 23.0268L47.4414 21.4883L48.3925 19.953L50.8759 21.4915L49.9248 23.0268Z" stroke="white" stroke-width="7.35706" mask="url(#path-3-outside-1_216_46612)"/>
<path d="M24.4341 59.5939C23.0346 61.8526 20.3113 62.5768 17.7382 62.4842C15.0834 62.3887 12.0784 61.4385 9.32861 59.7351C6.57873 58.0315 4.38924 55.7636 3.12145 53.429C1.89275 51.1664 1.32936 48.4059 2.72856 46.1471L7.07744 39.1272L8.47781 42.3463C9.84335 45.4838 12.1301 48.246 15.2492 50.1782C18.3692 52.111 21.8607 52.9308 25.274 52.7529L28.7855 52.5698L24.4341 59.5939Z" fill="#FF63F6" stroke="white" stroke-width="3.67853"/>
<path d="M33.1712 12.5534C35.7591 14.1567 36.5581 17.5651 34.9551 20.1526L29.7356 28.5779L28.1359 26.2888C27.8595 25.8934 27.5055 25.5502 27.073 25.2823L21.09 21.5757L25.5726 14.34C27.1756 11.7526 30.5832 10.9501 33.1712 12.5534Z" fill="#FF63F6" stroke="white" stroke-width="3.67853"/>
<path d="M32.1069 -3.14112C33.3272 -2.38502 34.176 -1.18257 34.516 0.21124L34.5169 0.211754C34.8758 1.6863 34.6361 3.26627 33.8326 4.56328L22.6826 22.5613L17.9914 19.655C17.197 19.1628 16.2832 19.0178 15.4124 19.1785L11.3278 19.9324L24.5133 -1.35139C26.0888 -3.89447 29.4474 -4.7247 32.0222 -3.19358L32.1069 -3.14112Z" fill="#FF63F6" stroke="white" stroke-width="3.67853"/>
<path d="M29.9857 6.38588L27.0974 11.0481L21.4872 7.57249L24.3754 2.91028L29.9857 6.38588Z" fill="#0B2595" stroke="white" stroke-width="3.67853"/>
<path d="M25.6385 13.403L22.7502 18.0652L17.14 14.5896L20.0283 9.92737L25.6385 13.403Z" fill="#0B2595" stroke="white" stroke-width="3.67853"/>
<path d="M53.4085 20.8966L50.5203 25.5588L44.91 22.0832L47.7983 17.421L53.4085 20.8966Z" fill="#0B2595" stroke="white" stroke-width="3.67853"/>
<path d="M49.0614 27.9137L46.1731 32.5759L40.5628 29.1003L43.4511 24.4381L49.0614 27.9137Z" fill="#0B2595" stroke="white" stroke-width="3.67853"/>
<mask id="path-11-outside-2_216_46612" maskUnits="userSpaceOnUse" x="-12.8326" y="-11.5064" width="78.9254" height="87.6586" fill="black">
<rect fill="white" x="-12.8326" y="-11.5064" width="78.9254" height="87.6586"/>
<path d="M55.4635 11.3669C52.8931 9.77449 49.5043 10.5715 47.9112 13.143L43.3284 20.5404C42.9642 19.2773 42.1507 18.1396 40.9487 17.3949C39.322 16.3872 37.3688 16.335 35.7504 17.085C35.7013 15.3019 34.7848 13.5763 33.1581 12.5686C31.9561 11.8239 30.5751 11.6022 29.282 11.8385L33.8013 4.54348C34.5939 3.2641 34.8406 1.68903 34.482 0.216959C34.1311 -1.22196 33.2428 -2.42736 32.005 -3.16585C29.4531 -4.67952 26.1068 -3.85975 24.5422 -1.33425L8.06746 25.259C5.05087 30.1283 4.48095 35.83 6.00685 40.9251L2.76041 46.1655C0.385812 49.9985 3.27943 55.948 9.34866 59.708C15.4179 63.4679 22.0335 63.4094 24.4081 59.5764L27.6545 54.336C32.8961 53.4334 37.7475 50.3841 40.7625 45.5174L57.2388 18.9216C58.8319 16.35 58.0364 12.9609 55.466 11.3685L55.4635 11.3669ZM34.9271 20.1335C35.9955 18.4089 38.2699 17.874 39.9938 18.942C41.7176 20.0099 42.2515 22.2845 41.1831 24.0091L35.9139 32.5145C34.8455 34.2391 32.5711 34.774 30.8473 33.706C30.1388 33.2671 29.6366 32.6267 29.357 31.9011C29.5209 31.7052 29.6751 31.4962 29.8146 31.2711C30.5866 30.025 30.7936 28.5882 30.514 27.2571L34.9271 20.1335ZM27.1366 15.3072C28.205 13.5826 30.4794 13.0477 32.2033 14.1157C33.9271 15.1836 34.461 17.4582 33.3926 19.1828L29.6436 25.2343C29.2315 24.6426 28.694 24.122 28.0418 23.718L23.6223 20.98L27.1366 15.3072ZM26.0768 -0.383568C27.1262 -2.07747 29.3708 -2.62723 31.082 -1.61316C31.0999 -1.60207 31.1204 -1.58939 31.1383 -1.5783C31.9337 -1.08553 32.4968 -0.297659 32.7293 0.646634C32.9739 1.65149 32.8083 2.72441 32.2693 3.59439L25.6084 14.3463C25.6084 14.3463 25.6052 14.3514 25.602 14.3565L22.0877 20.0293L18.9597 18.0915C17.7551 17.3452 16.3735 17.1302 15.0788 17.3691L26.0768 -0.383568ZM22.871 58.6241C21.0908 61.4976 15.3332 61.2909 10.2972 58.1711C5.26125 55.0513 2.51227 49.9881 4.29242 47.1146L6.79224 43.0794C8.29831 46.5441 10.8305 49.6035 14.2808 51.7409C17.731 53.8784 21.5979 54.7833 25.3708 54.589L22.871 58.6241ZM39.2269 44.5625C34.1639 52.7352 23.4009 55.2665 15.2319 50.2057C7.06283 45.1449 4.53898 34.3824 9.60203 26.2097L12.9436 20.8158C14.012 19.0912 16.2864 18.5563 18.0102 19.6242L27.0923 25.2507C27.1895 25.3109 27.2835 25.3762 27.3718 25.4451C27.4035 25.4682 27.4336 25.4939 27.4662 25.5212C27.5203 25.5654 27.5743 25.6095 27.6252 25.6587C27.6614 25.6917 27.7001 25.7264 27.7347 25.7619C27.7744 25.8007 27.8125 25.842 27.8506 25.8833C27.8913 25.9262 27.9294 25.9675 27.9685 26.013C27.9868 26.0349 28.0034 26.0594 28.0217 26.0814C28.1803 26.2823 28.3202 26.4964 28.4346 26.7231C28.4381 26.7288 28.4426 26.7387 28.4462 26.7444C28.9938 27.8485 28.9785 29.1987 28.2842 30.3194C27.9878 30.7979 27.5988 31.1801 27.1524 31.4665C27.1409 31.4736 27.1279 31.4832 27.1164 31.4903C26.8268 31.6721 26.5167 31.8128 26.1933 31.9063C26.1669 31.9147 26.1379 31.9215 26.1114 31.9299C26.0436 31.9481 25.9773 31.9637 25.911 31.9793C25.8778 31.9871 25.8437 31.9907 25.8106 31.9985C25.7035 32.0171 25.5954 32.0316 25.4864 32.042C25.4373 32.047 25.3882 32.052 25.3407 32.0544C25.289 32.0578 25.2364 32.057 25.1837 32.0563C25.127 32.0565 25.0727 32.0584 25.0176 32.056C24.9691 32.0543 24.918 32.051 24.8711 32.0468C24.8067 32.0422 24.7438 32.0352 24.681 32.0281C24.6382 32.0229 24.598 32.0192 24.5568 32.0114C24.4544 31.9939 24.3535 31.9739 24.2517 31.9498C24.2264 31.9448 24.2003 31.9357 24.1766 31.9281C24.0949 31.9058 24.0147 31.8809 23.9336 31.8519C23.8982 31.8406 23.8643 31.8267 23.8304 31.8128C23.756 31.7844 23.6832 31.7534 23.6119 31.7199C23.5822 31.705 23.5483 31.6911 23.5186 31.6763C23.4192 31.6253 23.3173 31.5728 23.2201 31.5126L18.6803 28.7001L17.7292 30.2354L21.9902 32.8751C23.7371 33.9573 24.2768 36.2568 23.1941 38.0044L21.07 41.4332L22.6045 42.3839L24.7287 38.9551C25.7131 37.3661 25.7946 35.4692 25.1111 33.8702C26.0983 33.8764 27.0775 33.6155 27.9327 33.1149C28.37 33.9629 29.0343 34.7073 29.9039 35.246C32.4743 36.8384 35.8631 36.0414 37.4562 33.4699L42.7253 24.9646C42.7253 24.9646 42.7285 24.9594 42.7316 24.9543L49.456 14.1C50.5244 12.3754 52.7988 11.8406 54.5226 12.9085C56.2464 13.9764 56.7803 16.251 55.7119 17.9757L39.2372 44.5689L39.2269 44.5625Z"/>
</mask>
<path d="M55.4635 11.3669C52.8931 9.77449 49.5043 10.5715 47.9112 13.143L43.3284 20.5404C42.9642 19.2773 42.1507 18.1396 40.9487 17.3949C39.322 16.3872 37.3688 16.335 35.7504 17.085C35.7013 15.3019 34.7848 13.5763 33.1581 12.5686C31.9561 11.8239 30.5751 11.6022 29.282 11.8385L33.8013 4.54348C34.5939 3.2641 34.8406 1.68903 34.482 0.216959C34.1311 -1.22196 33.2428 -2.42736 32.005 -3.16585C29.4531 -4.67952 26.1068 -3.85975 24.5422 -1.33425L8.06746 25.259C5.05087 30.1283 4.48095 35.83 6.00685 40.9251L2.76041 46.1655C0.385812 49.9985 3.27943 55.948 9.34866 59.708C15.4179 63.4679 22.0335 63.4094 24.4081 59.5764L27.6545 54.336C32.8961 53.4334 37.7475 50.3841 40.7625 45.5174L57.2388 18.9216C58.8319 16.35 58.0364 12.9609 55.466 11.3685L55.4635 11.3669ZM34.9271 20.1335C35.9955 18.4089 38.2699 17.874 39.9938 18.942C41.7176 20.0099 42.2515 22.2845 41.1831 24.0091L35.9139 32.5145C34.8455 34.2391 32.5711 34.774 30.8473 33.706C30.1388 33.2671 29.6366 32.6267 29.357 31.9011C29.5209 31.7052 29.6751 31.4962 29.8146 31.2711C30.5866 30.025 30.7936 28.5882 30.514 27.2571L34.9271 20.1335ZM27.1366 15.3072C28.205 13.5826 30.4794 13.0477 32.2033 14.1157C33.9271 15.1836 34.461 17.4582 33.3926 19.1828L29.6436 25.2343C29.2315 24.6426 28.694 24.122 28.0418 23.718L23.6223 20.98L27.1366 15.3072ZM26.0768 -0.383568C27.1262 -2.07747 29.3708 -2.62723 31.082 -1.61316C31.0999 -1.60207 31.1204 -1.58939 31.1383 -1.5783C31.9337 -1.08553 32.4968 -0.297659 32.7293 0.646634C32.9739 1.65149 32.8083 2.72441 32.2693 3.59439L25.6084 14.3463C25.6084 14.3463 25.6052 14.3514 25.602 14.3565L22.0877 20.0293L18.9597 18.0915C17.7551 17.3452 16.3735 17.1302 15.0788 17.3691L26.0768 -0.383568ZM22.871 58.6241C21.0908 61.4976 15.3332 61.2909 10.2972 58.1711C5.26125 55.0513 2.51227 49.9881 4.29242 47.1146L6.79224 43.0794C8.29831 46.5441 10.8305 49.6035 14.2808 51.7409C17.731 53.8784 21.5979 54.7833 25.3708 54.589L22.871 58.6241ZM39.2269 44.5625C34.1639 52.7352 23.4009 55.2665 15.2319 50.2057C7.06283 45.1449 4.53898 34.3824 9.60203 26.2097L12.9436 20.8158C14.012 19.0912 16.2864 18.5563 18.0102 19.6242L27.0923 25.2507C27.1895 25.3109 27.2835 25.3762 27.3718 25.4451C27.4035 25.4682 27.4336 25.4939 27.4662 25.5212C27.5203 25.5654 27.5743 25.6095 27.6252 25.6587C27.6614 25.6917 27.7001 25.7264 27.7347 25.7619C27.7744 25.8007 27.8125 25.842 27.8506 25.8833C27.8913 25.9262 27.9294 25.9675 27.9685 26.013C27.9868 26.0349 28.0034 26.0594 28.0217 26.0814C28.1803 26.2823 28.3202 26.4964 28.4346 26.7231C28.4381 26.7288 28.4426 26.7387 28.4462 26.7444C28.9938 27.8485 28.9785 29.1987 28.2842 30.3194C27.9878 30.7979 27.5988 31.1801 27.1524 31.4665C27.1409 31.4736 27.1279 31.4832 27.1164 31.4903C26.8268 31.6721 26.5167 31.8128 26.1933 31.9063C26.1669 31.9147 26.1379 31.9215 26.1114 31.9299C26.0436 31.9481 25.9773 31.9637 25.911 31.9793C25.8778 31.9871 25.8437 31.9907 25.8106 31.9985C25.7035 32.0171 25.5954 32.0316 25.4864 32.042C25.4373 32.047 25.3882 32.052 25.3407 32.0544C25.289 32.0578 25.2364 32.057 25.1837 32.0563C25.127 32.0565 25.0727 32.0584 25.0176 32.056C24.9691 32.0543 24.918 32.051 24.8711 32.0468C24.8067 32.0422 24.7438 32.0352 24.681 32.0281C24.6382 32.0229 24.598 32.0192 24.5568 32.0114C24.4544 31.9939 24.3535 31.9739 24.2517 31.9498C24.2264 31.9448 24.2003 31.9357 24.1766 31.9281C24.0949 31.9058 24.0147 31.8809 23.9336 31.8519C23.8982 31.8406 23.8643 31.8267 23.8304 31.8128C23.756 31.7844 23.6832 31.7534 23.6119 31.7199C23.5822 31.705 23.5483 31.6911 23.5186 31.6763C23.4192 31.6253 23.3173 31.5728 23.2201 31.5126L18.6803 28.7001L17.7292 30.2354L21.9902 32.8751C23.7371 33.9573 24.2768 36.2568 23.1941 38.0044L21.07 41.4332L22.6045 42.3839L24.7287 38.9551C25.7131 37.3661 25.7946 35.4692 25.1111 33.8702C26.0983 33.8764 27.0775 33.6155 27.9327 33.1149C28.37 33.9629 29.0343 34.7073 29.9039 35.246C32.4743 36.8384 35.8631 36.0414 37.4562 33.4699L42.7253 24.9646C42.7253 24.9646 42.7285 24.9594 42.7316 24.9543L49.456 14.1C50.5244 12.3754 52.7988 11.8406 54.5226 12.9085C56.2464 13.9764 56.7803 16.251 55.7119 17.9757L39.2372 44.5689L39.2269 44.5625Z" fill="#0B2595"/>
<path d="M55.4635 11.3669C52.8931 9.77449 49.5043 10.5715 47.9112 13.143L43.3284 20.5404C42.9642 19.2773 42.1507 18.1396 40.9487 17.3949C39.322 16.3872 37.3688 16.335 35.7504 17.085C35.7013 15.3019 34.7848 13.5763 33.1581 12.5686C31.9561 11.8239 30.5751 11.6022 29.282 11.8385L33.8013 4.54348C34.5939 3.2641 34.8406 1.68903 34.482 0.216959C34.1311 -1.22196 33.2428 -2.42736 32.005 -3.16585C29.4531 -4.67952 26.1068 -3.85975 24.5422 -1.33425L8.06746 25.259C5.05087 30.1283 4.48095 35.83 6.00685 40.9251L2.76041 46.1655C0.385812 49.9985 3.27943 55.948 9.34866 59.708C15.4179 63.4679 22.0335 63.4094 24.4081 59.5764L27.6545 54.336C32.8961 53.4334 37.7475 50.3841 40.7625 45.5174L57.2388 18.9216C58.8319 16.35 58.0364 12.9609 55.466 11.3685L55.4635 11.3669ZM34.9271 20.1335C35.9955 18.4089 38.2699 17.874 39.9938 18.942C41.7176 20.0099 42.2515 22.2845 41.1831 24.0091L35.9139 32.5145C34.8455 34.2391 32.5711 34.774 30.8473 33.706C30.1388 33.2671 29.6366 32.6267 29.357 31.9011C29.5209 31.7052 29.6751 31.4962 29.8146 31.2711C30.5866 30.025 30.7936 28.5882 30.514 27.2571L34.9271 20.1335ZM27.1366 15.3072C28.205 13.5826 30.4794 13.0477 32.2033 14.1157C33.9271 15.1836 34.461 17.4582 33.3926 19.1828L29.6436 25.2343C29.2315 24.6426 28.694 24.122 28.0418 23.718L23.6223 20.98L27.1366 15.3072ZM26.0768 -0.383568C27.1262 -2.07747 29.3708 -2.62723 31.082 -1.61316C31.0999 -1.60207 31.1204 -1.58939 31.1383 -1.5783C31.9337 -1.08553 32.4968 -0.297659 32.7293 0.646634C32.9739 1.65149 32.8083 2.72441 32.2693 3.59439L25.6084 14.3463C25.6084 14.3463 25.6052 14.3514 25.602 14.3565L22.0877 20.0293L18.9597 18.0915C17.7551 17.3452 16.3735 17.1302 15.0788 17.3691L26.0768 -0.383568ZM22.871 58.6241C21.0908 61.4976 15.3332 61.2909 10.2972 58.1711C5.26125 55.0513 2.51227 49.9881 4.29242 47.1146L6.79224 43.0794C8.29831 46.5441 10.8305 49.6035 14.2808 51.7409C17.731 53.8784 21.5979 54.7833 25.3708 54.589L22.871 58.6241ZM39.2269 44.5625C34.1639 52.7352 23.4009 55.2665 15.2319 50.2057C7.06283 45.1449 4.53898 34.3824 9.60203 26.2097L12.9436 20.8158C14.012 19.0912 16.2864 18.5563 18.0102 19.6242L27.0923 25.2507C27.1895 25.3109 27.2835 25.3762 27.3718 25.4451C27.4035 25.4682 27.4336 25.4939 27.4662 25.5212C27.5203 25.5654 27.5743 25.6095 27.6252 25.6587C27.6614 25.6917 27.7001 25.7264 27.7347 25.7619C27.7744 25.8007 27.8125 25.842 27.8506 25.8833C27.8913 25.9262 27.9294 25.9675 27.9685 26.013C27.9868 26.0349 28.0034 26.0594 28.0217 26.0814C28.1803 26.2823 28.3202 26.4964 28.4346 26.7231C28.4381 26.7288 28.4426 26.7387 28.4462 26.7444C28.9938 27.8485 28.9785 29.1987 28.2842 30.3194C27.9878 30.7979 27.5988 31.1801 27.1524 31.4665C27.1409 31.4736 27.1279 31.4832 27.1164 31.4903C26.8268 31.6721 26.5167 31.8128 26.1933 31.9063C26.1669 31.9147 26.1379 31.9215 26.1114 31.9299C26.0436 31.9481 25.9773 31.9637 25.911 31.9793C25.8778 31.9871 25.8437 31.9907 25.8106 31.9985C25.7035 32.0171 25.5954 32.0316 25.4864 32.042C25.4373 32.047 25.3882 32.052 25.3407 32.0544C25.289 32.0578 25.2364 32.057 25.1837 32.0563C25.127 32.0565 25.0727 32.0584 25.0176 32.056C24.9691 32.0543 24.918 32.051 24.8711 32.0468C24.8067 32.0422 24.7438 32.0352 24.681 32.0281C24.6382 32.0229 24.598 32.0192 24.5568 32.0114C24.4544 31.9939 24.3535 31.9739 24.2517 31.9498C24.2264 31.9448 24.2003 31.9357 24.1766 31.9281C24.0949 31.9058 24.0147 31.8809 23.9336 31.8519C23.8982 31.8406 23.8643 31.8267 23.8304 31.8128C23.756 31.7844 23.6832 31.7534 23.6119 31.7199C23.5822 31.705 23.5483 31.6911 23.5186 31.6763C23.4192 31.6253 23.3173 31.5728 23.2201 31.5126L18.6803 28.7001L17.7292 30.2354L21.9902 32.8751C23.7371 33.9573 24.2768 36.2568 23.1941 38.0044L21.07 41.4332L22.6045 42.3839L24.7287 38.9551C25.7131 37.3661 25.7946 35.4692 25.1111 33.8702C26.0983 33.8764 27.0775 33.6155 27.9327 33.1149C28.37 33.9629 29.0343 34.7073 29.9039 35.246C32.4743 36.8384 35.8631 36.0414 37.4562 33.4699L42.7253 24.9646C42.7253 24.9646 42.7285 24.9594 42.7316 24.9543L49.456 14.1C50.5244 12.3754 52.7988 11.8406 54.5226 12.9085C56.2464 13.9764 56.7803 16.251 55.7119 17.9757L39.2372 44.5689L39.2269 44.5625Z" stroke="white" stroke-width="7.35706" mask="url(#path-11-outside-2_216_46612)"/>
<path d="M12.431 27.6724C14.1782 28.2748 15.1021 30.1795 14.4998 31.9247C13.3633 35.2168 13.9334 38.8469 16.0349 41.6409C17.1425 43.1134 16.8509 45.2099 15.3754 46.3214L15.3757 46.3227C14.2394 47.1784 12.7382 47.1986 11.6029 46.4955L11.5996 46.4935C11.2577 46.2817 10.9446 46.0009 10.6889 45.6605L10.6894 45.6596C7.25386 41.0894 6.31319 35.1375 8.17788 29.7406L8.17923 29.7403C8.78197 27.995 10.6857 27.069 12.4316 27.6716L12.431 27.6724Z" fill="white" stroke="white" stroke-width="3.67853"/>
<path d="M29.9857 6.38588L27.0974 11.0481L21.4872 7.57249L24.3754 2.91028L29.9857 6.38588Z" fill="#0B2595" stroke="white" stroke-width="3.67853"/>
<path d="M25.6385 13.403L22.7502 18.0652L17.14 14.5896L20.0283 9.92737L25.6385 13.403Z" fill="#0B2595" stroke="white" stroke-width="3.67853"/>
<path d="M53.4085 20.8966L50.5203 25.5588L44.91 22.0832L47.7983 17.421L53.4085 20.8966Z" fill="#0B2595" stroke="white" stroke-width="3.67853"/>
<path d="M49.0614 27.9137L46.1731 32.5759L40.5628 29.1003L43.4511 24.4381L49.0614 27.9137Z" fill="#0B2595" stroke="white" stroke-width="3.67853"/>
<mask id="path-17-outside-3_216_46612" maskUnits="userSpaceOnUse" x="-12.8326" y="-11.5064" width="78.9254" height="87.6586" fill="black">
<rect fill="white" x="-12.8326" y="-11.5064" width="78.9254" height="87.6586"/>
<path d="M55.4635 11.3669C52.8931 9.77449 49.5043 10.5715 47.9112 13.143L43.3284 20.5404C42.9642 19.2773 42.1507 18.1396 40.9487 17.3949C39.322 16.3872 37.3688 16.335 35.7504 17.085C35.7013 15.3019 34.7848 13.5763 33.1581 12.5686C31.9561 11.8239 30.5751 11.6022 29.282 11.8385L33.8013 4.54348C34.5939 3.2641 34.8406 1.68903 34.482 0.216959C34.1311 -1.22196 33.2428 -2.42736 32.005 -3.16585C29.4531 -4.67952 26.1068 -3.85975 24.5422 -1.33425L8.06746 25.259C5.05087 30.1283 4.48095 35.83 6.00685 40.9251L2.76041 46.1655C0.385812 49.9985 3.27943 55.948 9.34866 59.708C15.4179 63.4679 22.0335 63.4094 24.4081 59.5764L27.6545 54.336C32.8961 53.4334 37.7475 50.3841 40.7625 45.5174L57.2388 18.9216C58.8319 16.35 58.0364 12.9609 55.466 11.3685L55.4635 11.3669ZM34.9271 20.1335C35.9955 18.4089 38.2699 17.874 39.9938 18.942C41.7176 20.0099 42.2515 22.2845 41.1831 24.0091L35.9139 32.5145C34.8455 34.2391 32.5711 34.774 30.8473 33.706C30.1388 33.2671 29.6366 32.6267 29.357 31.9011C29.5209 31.7052 29.6751 31.4962 29.8146 31.2711C30.5866 30.025 30.7936 28.5882 30.514 27.2571L34.9271 20.1335ZM27.1366 15.3072C28.205 13.5826 30.4794 13.0477 32.2033 14.1157C33.9271 15.1836 34.461 17.4582 33.3926 19.1828L29.6436 25.2343C29.2315 24.6426 28.694 24.122 28.0418 23.718L23.6223 20.98L27.1366 15.3072ZM26.0768 -0.383568C27.1262 -2.07747 29.3708 -2.62723 31.082 -1.61316C31.0999 -1.60207 31.1204 -1.58939 31.1383 -1.5783C31.9337 -1.08553 32.4968 -0.297659 32.7293 0.646634C32.9739 1.65149 32.8083 2.72441 32.2693 3.59439L25.6084 14.3463C25.6084 14.3463 25.6052 14.3514 25.602 14.3565L22.0877 20.0293L18.9597 18.0915C17.7551 17.3452 16.3735 17.1302 15.0788 17.3691L26.0768 -0.383568ZM22.871 58.6241C21.0908 61.4976 15.3332 61.2909 10.2972 58.1711C5.26125 55.0513 2.51227 49.9881 4.29242 47.1146L6.79224 43.0794C8.29831 46.5441 10.8305 49.6035 14.2808 51.7409C17.731 53.8784 21.5979 54.7833 25.3708 54.589L22.871 58.6241ZM39.2269 44.5625C34.1639 52.7352 23.4009 55.2665 15.2319 50.2057C7.06283 45.1449 4.53898 34.3824 9.60203 26.2097L12.9436 20.8158C14.012 19.0912 16.2864 18.5563 18.0102 19.6242L27.0923 25.2507C27.1895 25.3109 27.2835 25.3762 27.3718 25.4451C27.4035 25.4682 27.4336 25.4939 27.4662 25.5212C27.5203 25.5654 27.5743 25.6095 27.6252 25.6587C27.6614 25.6917 27.7001 25.7264 27.7347 25.7619C27.7744 25.8007 27.8125 25.842 27.8506 25.8833C27.8913 25.9262 27.9294 25.9675 27.9685 26.013C27.9868 26.0349 28.0034 26.0594 28.0217 26.0814C28.1803 26.2823 28.3202 26.4964 28.4346 26.7231C28.4381 26.7288 28.4426 26.7387 28.4462 26.7444C28.9938 27.8485 28.9785 29.1987 28.2842 30.3194C27.9878 30.7979 27.5988 31.1801 27.1524 31.4665C27.1409 31.4736 27.1279 31.4832 27.1164 31.4903C26.8268 31.6721 26.5167 31.8128 26.1933 31.9063C26.1669 31.9147 26.1379 31.9215 26.1114 31.9299C26.0436 31.9481 25.9773 31.9637 25.911 31.9793C25.8778 31.9871 25.8437 31.9907 25.8106 31.9985C25.7035 32.0171 25.5954 32.0316 25.4864 32.042C25.4373 32.047 25.3882 32.052 25.3407 32.0544C25.289 32.0578 25.2364 32.057 25.1837 32.0563C25.127 32.0565 25.0727 32.0584 25.0176 32.056C24.9691 32.0543 24.918 32.051 24.8711 32.0468C24.8067 32.0422 24.7438 32.0352 24.681 32.0281C24.6382 32.0229 24.598 32.0192 24.5568 32.0114C24.4544 31.9939 24.3535 31.9739 24.2517 31.9498C24.2264 31.9448 24.2003 31.9357 24.1766 31.9281C24.0949 31.9058 24.0147 31.8809 23.9336 31.8519C23.8982 31.8406 23.8643 31.8267 23.8304 31.8128C23.756 31.7844 23.6832 31.7534 23.6119 31.7199C23.5822 31.705 23.5483 31.6911 23.5186 31.6763C23.4192 31.6253 23.3173 31.5728 23.2201 31.5126L18.6803 28.7001L17.7292 30.2354L21.9902 32.8751C23.7371 33.9573 24.2768 36.2568 23.1941 38.0044L21.07 41.4332L22.6045 42.3839L24.7287 38.9551C25.7131 37.3661 25.7946 35.4692 25.1111 33.8702C26.0983 33.8764 27.0775 33.6155 27.9327 33.1149C28.37 33.9629 29.0343 34.7073 29.9039 35.246C32.4743 36.8384 35.8631 36.0414 37.4562 33.4699L42.7253 24.9646C42.7253 24.9646 42.7285 24.9594 42.7316 24.9543L49.456 14.1C50.5244 12.3754 52.7988 11.8406 54.5226 12.9085C56.2464 13.9764 56.7803 16.251 55.7119 17.9757L39.2372 44.5689L39.2269 44.5625Z"/>
</mask>
<path d="M55.4635 11.3669C52.8931 9.77449 49.5043 10.5715 47.9112 13.143L43.3284 20.5404C42.9642 19.2773 42.1507 18.1396 40.9487 17.3949C39.322 16.3872 37.3688 16.335 35.7504 17.085C35.7013 15.3019 34.7848 13.5763 33.1581 12.5686C31.9561 11.8239 30.5751 11.6022 29.282 11.8385L33.8013 4.54348C34.5939 3.2641 34.8406 1.68903 34.482 0.216959C34.1311 -1.22196 33.2428 -2.42736 32.005 -3.16585C29.4531 -4.67952 26.1068 -3.85975 24.5422 -1.33425L8.06746 25.259C5.05087 30.1283 4.48095 35.83 6.00685 40.9251L2.76041 46.1655C0.385812 49.9985 3.27943 55.948 9.34866 59.708C15.4179 63.4679 22.0335 63.4094 24.4081 59.5764L27.6545 54.336C32.8961 53.4334 37.7475 50.3841 40.7625 45.5174L57.2388 18.9216C58.8319 16.35 58.0364 12.9609 55.466 11.3685L55.4635 11.3669ZM34.9271 20.1335C35.9955 18.4089 38.2699 17.874 39.9938 18.942C41.7176 20.0099 42.2515 22.2845 41.1831 24.0091L35.9139 32.5145C34.8455 34.2391 32.5711 34.774 30.8473 33.706C30.1388 33.2671 29.6366 32.6267 29.357 31.9011C29.5209 31.7052 29.6751 31.4962 29.8146 31.2711C30.5866 30.025 30.7936 28.5882 30.514 27.2571L34.9271 20.1335ZM27.1366 15.3072C28.205 13.5826 30.4794 13.0477 32.2033 14.1157C33.9271 15.1836 34.461 17.4582 33.3926 19.1828L29.6436 25.2343C29.2315 24.6426 28.694 24.122 28.0418 23.718L23.6223 20.98L27.1366 15.3072ZM26.0768 -0.383568C27.1262 -2.07747 29.3708 -2.62723 31.082 -1.61316C31.0999 -1.60207 31.1204 -1.58939 31.1383 -1.5783C31.9337 -1.08553 32.4968 -0.297659 32.7293 0.646634C32.9739 1.65149 32.8083 2.72441 32.2693 3.59439L25.6084 14.3463C25.6084 14.3463 25.6052 14.3514 25.602 14.3565L22.0877 20.0293L18.9597 18.0915C17.7551 17.3452 16.3735 17.1302 15.0788 17.3691L26.0768 -0.383568ZM22.871 58.6241C21.0908 61.4976 15.3332 61.2909 10.2972 58.1711C5.26125 55.0513 2.51227 49.9881 4.29242 47.1146L6.79224 43.0794C8.29831 46.5441 10.8305 49.6035 14.2808 51.7409C17.731 53.8784 21.5979 54.7833 25.3708 54.589L22.871 58.6241ZM39.2269 44.5625C34.1639 52.7352 23.4009 55.2665 15.2319 50.2057C7.06283 45.1449 4.53898 34.3824 9.60203 26.2097L12.9436 20.8158C14.012 19.0912 16.2864 18.5563 18.0102 19.6242L27.0923 25.2507C27.1895 25.3109 27.2835 25.3762 27.3718 25.4451C27.4035 25.4682 27.4336 25.4939 27.4662 25.5212C27.5203 25.5654 27.5743 25.6095 27.6252 25.6587C27.6614 25.6917 27.7001 25.7264 27.7347 25.7619C27.7744 25.8007 27.8125 25.842 27.8506 25.8833C27.8913 25.9262 27.9294 25.9675 27.9685 26.013C27.9868 26.0349 28.0034 26.0594 28.0217 26.0814C28.1803 26.2823 28.3202 26.4964 28.4346 26.7231C28.4381 26.7288 28.4426 26.7387 28.4462 26.7444C28.9938 27.8485 28.9785 29.1987 28.2842 30.3194C27.9878 30.7979 27.5988 31.1801 27.1524 31.4665C27.1409 31.4736 27.1279 31.4832 27.1164 31.4903C26.8268 31.6721 26.5167 31.8128 26.1933 31.9063C26.1669 31.9147 26.1379 31.9215 26.1114 31.9299C26.0436 31.9481 25.9773 31.9637 25.911 31.9793C25.8778 31.9871 25.8437 31.9907 25.8106 31.9985C25.7035 32.0171 25.5954 32.0316 25.4864 32.042C25.4373 32.047 25.3882 32.052 25.3407 32.0544C25.289 32.0578 25.2364 32.057 25.1837 32.0563C25.127 32.0565 25.0727 32.0584 25.0176 32.056C24.9691 32.0543 24.918 32.051 24.8711 32.0468C24.8067 32.0422 24.7438 32.0352 24.681 32.0281C24.6382 32.0229 24.598 32.0192 24.5568 32.0114C24.4544 31.9939 24.3535 31.9739 24.2517 31.9498C24.2264 31.9448 24.2003 31.9357 24.1766 31.9281C24.0949 31.9058 24.0147 31.8809 23.9336 31.8519C23.8982 31.8406 23.8643 31.8267 23.8304 31.8128C23.756 31.7844 23.6832 31.7534 23.6119 31.7199C23.5822 31.705 23.5483 31.6911 23.5186 31.6763C23.4192 31.6253 23.3173 31.5728 23.2201 31.5126L18.6803 28.7001L17.7292 30.2354L21.9902 32.8751C23.7371 33.9573 24.2768 36.2568 23.1941 38.0044L21.07 41.4332L22.6045 42.3839L24.7287 38.9551C25.7131 37.3661 25.7946 35.4692 25.1111 33.8702C26.0983 33.8764 27.0775 33.6155 27.9327 33.1149C28.37 33.9629 29.0343 34.7073 29.9039 35.246C32.4743 36.8384 35.8631 36.0414 37.4562 33.4699L42.7253 24.9646C42.7253 24.9646 42.7285 24.9594 42.7316 24.9543L49.456 14.1C50.5244 12.3754 52.7988 11.8406 54.5226 12.9085C56.2464 13.9764 56.7803 16.251 55.7119 17.9757L39.2372 44.5689L39.2269 44.5625Z" fill="#0B2595"/>
<path d="M55.4635 11.3669C52.8931 9.77449 49.5043 10.5715 47.9112 13.143L43.3284 20.5404C42.9642 19.2773 42.1507 18.1396 40.9487 17.3949C39.322 16.3872 37.3688 16.335 35.7504 17.085C35.7013 15.3019 34.7848 13.5763 33.1581 12.5686C31.9561 11.8239 30.5751 11.6022 29.282 11.8385L33.8013 4.54348C34.5939 3.2641 34.8406 1.68903 34.482 0.216959C34.1311 -1.22196 33.2428 -2.42736 32.005 -3.16585C29.4531 -4.67952 26.1068 -3.85975 24.5422 -1.33425L8.06746 25.259C5.05087 30.1283 4.48095 35.83 6.00685 40.9251L2.76041 46.1655C0.385812 49.9985 3.27943 55.948 9.34866 59.708C15.4179 63.4679 22.0335 63.4094 24.4081 59.5764L27.6545 54.336C32.8961 53.4334 37.7475 50.3841 40.7625 45.5174L57.2388 18.9216C58.8319 16.35 58.0364 12.9609 55.466 11.3685L55.4635 11.3669ZM34.9271 20.1335C35.9955 18.4089 38.2699 17.874 39.9938 18.942C41.7176 20.0099 42.2515 22.2845 41.1831 24.0091L35.9139 32.5145C34.8455 34.2391 32.5711 34.774 30.8473 33.706C30.1388 33.2671 29.6366 32.6267 29.357 31.9011C29.5209 31.7052 29.6751 31.4962 29.8146 31.2711C30.5866 30.025 30.7936 28.5882 30.514 27.2571L34.9271 20.1335ZM27.1366 15.3072C28.205 13.5826 30.4794 13.0477 32.2033 14.1157C33.9271 15.1836 34.461 17.4582 33.3926 19.1828L29.6436 25.2343C29.2315 24.6426 28.694 24.122 28.0418 23.718L23.6223 20.98L27.1366 15.3072ZM26.0768 -0.383568C27.1262 -2.07747 29.3708 -2.62723 31.082 -1.61316C31.0999 -1.60207 31.1204 -1.58939 31.1383 -1.5783C31.9337 -1.08553 32.4968 -0.297659 32.7293 0.646634C32.9739 1.65149 32.8083 2.72441 32.2693 3.59439L25.6084 14.3463C25.6084 14.3463 25.6052 14.3514 25.602 14.3565L22.0877 20.0293L18.9597 18.0915C17.7551 17.3452 16.3735 17.1302 15.0788 17.3691L26.0768 -0.383568ZM22.871 58.6241C21.0908 61.4976 15.3332 61.2909 10.2972 58.1711C5.26125 55.0513 2.51227 49.9881 4.29242 47.1146L6.79224 43.0794C8.29831 46.5441 10.8305 49.6035 14.2808 51.7409C17.731 53.8784 21.5979 54.7833 25.3708 54.589L22.871 58.6241ZM39.2269 44.5625C34.1639 52.7352 23.4009 55.2665 15.2319 50.2057C7.06283 45.1449 4.53898 34.3824 9.60203 26.2097L12.9436 20.8158C14.012 19.0912 16.2864 18.5563 18.0102 19.6242L27.0923 25.2507C27.1895 25.3109 27.2835 25.3762 27.3718 25.4451C27.4035 25.4682 27.4336 25.4939 27.4662 25.5212C27.5203 25.5654 27.5743 25.6095 27.6252 25.6587C27.6614 25.6917 27.7001 25.7264 27.7347 25.7619C27.7744 25.8007 27.8125 25.842 27.8506 25.8833C27.8913 25.9262 27.9294 25.9675 27.9685 26.013C27.9868 26.0349 28.0034 26.0594 28.0217 26.0814C28.1803 26.2823 28.3202 26.4964 28.4346 26.7231C28.4381 26.7288 28.4426 26.7387 28.4462 26.7444C28.9938 27.8485 28.9785 29.1987 28.2842 30.3194C27.9878 30.7979 27.5988 31.1801 27.1524 31.4665C27.1409 31.4736 27.1279 31.4832 27.1164 31.4903C26.8268 31.6721 26.5167 31.8128 26.1933 31.9063C26.1669 31.9147 26.1379 31.9215 26.1114 31.9299C26.0436 31.9481 25.9773 31.9637 25.911 31.9793C25.8778 31.9871 25.8437 31.9907 25.8106 31.9985C25.7035 32.0171 25.5954 32.0316 25.4864 32.042C25.4373 32.047 25.3882 32.052 25.3407 32.0544C25.289 32.0578 25.2364 32.057 25.1837 32.0563C25.127 32.0565 25.0727 32.0584 25.0176 32.056C24.9691 32.0543 24.918 32.051 24.8711 32.0468C24.8067 32.0422 24.7438 32.0352 24.681 32.0281C24.6382 32.0229 24.598 32.0192 24.5568 32.0114C24.4544 31.9939 24.3535 31.9739 24.2517 31.9498C24.2264 31.9448 24.2003 31.9357 24.1766 31.9281C24.0949 31.9058 24.0147 31.8809 23.9336 31.8519C23.8982 31.8406 23.8643 31.8267 23.8304 31.8128C23.756 31.7844 23.6832 31.7534 23.6119 31.7199C23.5822 31.705 23.5483 31.6911 23.5186 31.6763C23.4192 31.6253 23.3173 31.5728 23.2201 31.5126L18.6803 28.7001L17.7292 30.2354L21.9902 32.8751C23.7371 33.9573 24.2768 36.2568 23.1941 38.0044L21.07 41.4332L22.6045 42.3839L24.7287 38.9551C25.7131 37.3661 25.7946 35.4692 25.1111 33.8702C26.0983 33.8764 27.0775 33.6155 27.9327 33.1149C28.37 33.9629 29.0343 34.7073 29.9039 35.246C32.4743 36.8384 35.8631 36.0414 37.4562 33.4699L42.7253 24.9646C42.7253 24.9646 42.7285 24.9594 42.7316 24.9543L49.456 14.1C50.5244 12.3754 52.7988 11.8406 54.5226 12.9085C56.2464 13.9764 56.7803 16.251 55.7119 17.9757L39.2372 44.5689L39.2269 44.5625Z" stroke="white" stroke-width="7.35706" mask="url(#path-17-outside-3_216_46612)"/>
<path d="M34.927 20.133L30.5139 27.2566C30.7935 28.5877 30.5865 30.0245 29.8145 31.2706C29.675 31.4958 29.5208 31.7047 29.357 31.9006C29.4868 32.2395 29.6685 32.5575 29.8945 32.8497C29.9162 32.8774 29.9355 32.9035 29.9573 32.9311C29.9948 32.9792 30.038 33.0236 30.0796 33.0707C30.1152 33.1104 30.1523 33.1476 30.192 33.1863C30.2292 33.2235 30.2663 33.2607 30.305 33.2953C30.3575 33.342 30.4074 33.3871 30.4631 33.4286C30.4957 33.4559 30.5258 33.4816 30.56 33.5064C30.6509 33.5768 30.7449 33.6422 30.8421 33.7024C32.5659 34.7703 34.8403 34.2354 35.9087 32.5108L41.1779 24.0055C42.2463 22.2809 41.7124 20.0062 39.9886 18.9383C38.2647 17.8704 35.9903 18.4052 34.9219 20.1299L34.927 20.133Z" fill="#FF63F6"/>
<path d="M54.5121 12.9024C52.7882 11.8345 50.5138 12.3693 49.4454 14.094L42.7211 24.9482C42.7211 24.9482 42.7179 24.9533 42.7148 24.9585L37.4456 33.4638C35.8525 36.0354 32.4637 36.8323 29.8933 35.2399C29.7936 35.1781 29.697 35.1112 29.6004 35.0443C29.5697 35.0253 29.5448 35.0028 29.5182 34.9828C29.4498 34.9333 29.3829 34.8812 29.3202 34.8282C29.2927 34.8041 29.2636 34.7825 29.2361 34.7584C29.1708 34.7038 29.1071 34.6466 29.0476 34.5885C29.0251 34.5675 29.0027 34.5466 28.9829 34.5272C28.907 34.4554 28.8353 34.3827 28.7652 34.3073C28.7575 34.3026 28.753 34.2927 28.7453 34.288C28.5019 34.0239 28.2878 33.7354 28.1074 33.4325C28.1039 33.4267 28.1003 33.421 28.0968 33.4153C28.0393 33.3195 27.9835 33.2211 27.9317 33.1218C27.9292 33.1202 27.9282 33.1161 27.9272 33.1119C27.0721 33.6125 26.0955 33.875 25.1057 33.8673C25.7876 35.4688 25.7061 37.3658 24.7232 38.9522L22.5991 42.3809L21.0645 41.4303L23.1887 38.0015C24.2714 36.2539 23.7316 33.9544 21.9848 32.8722L17.7238 30.2325L18.6749 28.6972L23.2147 31.5096C23.3119 31.5699 23.4122 31.6249 23.5132 31.6733C23.5455 31.6898 23.5768 31.7021 23.6065 31.717C23.6778 31.7505 23.7506 31.7815 23.825 31.8099C23.8589 31.8238 23.8943 31.8351 23.9282 31.849C24.0093 31.878 24.0895 31.9029 24.1712 31.9252C24.1948 31.9327 24.221 31.9419 24.2462 31.9469C24.3465 31.9736 24.4474 31.9936 24.5514 32.0085C24.5926 32.0163 24.6328 32.0199 24.6755 32.0252C24.7384 32.0322 24.8038 32.0409 24.8657 32.0438C24.9167 32.0471 24.9636 32.0514 25.0121 32.0531C25.0673 32.0554 25.1241 32.0552 25.1783 32.0534C25.2309 32.0541 25.281 32.0533 25.3352 32.0515C25.3828 32.049 25.4319 32.044 25.481 32.039C25.59 32.0287 25.6981 32.0142 25.8052 31.9956C25.8383 31.9878 25.8724 31.9841 25.9056 31.9763C25.9744 31.9623 26.0407 31.9468 26.106 31.927C26.1325 31.9186 26.1615 31.9118 26.1879 31.9034C26.5129 31.8073 26.8214 31.6692 27.111 31.4874C27.1224 31.4803 27.1355 31.4707 27.1469 31.4636C27.2418 31.402 27.333 31.3346 27.4218 31.2656C27.4568 31.2377 27.4917 31.2098 27.5242 31.1804C27.5843 31.1291 27.6418 31.0762 27.7009 31.0207C27.7365 30.9861 27.7705 30.9541 27.8035 30.9179C27.8617 30.8583 27.9163 30.793 27.9693 30.7303C27.9966 30.6976 28.0265 30.6666 28.0513 30.6323C28.1306 30.5328 28.2039 30.4259 28.2721 30.3159C28.3561 30.1803 28.4283 30.0409 28.4938 29.9009C28.5156 29.8542 28.5298 29.8028 28.549 29.7545C28.586 29.6606 28.6255 29.5682 28.6548 29.4695C28.6737 29.4104 28.6859 29.3507 28.7023 29.29C28.7237 29.2041 28.7466 29.1157 28.7613 29.0292C28.7725 28.9653 28.7787 28.8983 28.7858 28.8354C28.7947 28.7524 28.8078 28.6685 28.81 28.5849C28.8136 28.5163 28.8114 28.4512 28.8134 28.3852C28.8141 28.3041 28.8122 28.2215 28.8061 28.1399C28.8014 28.0732 28.7941 28.005 28.7853 27.9393C28.7751 27.8586 28.7633 27.7805 28.749 27.7008C28.736 27.6361 28.723 27.5714 28.7074 27.5051C28.6889 27.4264 28.6638 27.347 28.6411 27.2693C28.6224 27.2081 28.6011 27.1454 28.5782 27.0852C28.5335 26.9689 28.4887 26.8526 28.4341 26.7409C28.4305 26.7352 28.426 26.7253 28.4225 26.7196C28.3081 26.4929 28.1724 26.2778 28.0096 26.0778C27.9913 26.0559 27.9746 26.0314 27.9564 26.0095C27.9199 25.9656 27.8792 25.9227 27.8385 25.8798C27.8004 25.8385 27.7623 25.7972 27.7226 25.7584C27.688 25.7228 27.6518 25.6898 27.6131 25.6552C27.5606 25.6085 27.5082 25.5618 27.4541 25.5177C27.424 25.492 27.3939 25.4663 27.3597 25.4415C27.2698 25.3752 27.1774 25.3073 27.0802 25.2471L18.0083 19.627C16.2845 18.5591 14.0101 19.094 12.9417 20.8186L9.60014 26.2125C9.43053 26.4863 9.26858 26.7648 9.1159 27.0455C9.06712 27.1357 9.0209 27.2275 8.97467 27.3192C8.87333 27.5114 8.77613 27.7025 8.68404 27.8969C8.63245 28.003 8.58597 28.1123 8.53694 28.22C8.45534 28.4032 8.37532 28.5837 8.29786 28.7659C8.25235 28.8793 8.20844 28.9902 8.16452 29.1011C8.09376 29.2839 8.02556 29.4682 7.95991 29.6542C7.92014 29.7641 7.8845 29.873 7.84887 29.982C7.78358 30.1788 7.725 30.3762 7.67056 30.5726C7.64127 30.6713 7.61197 30.77 7.58524 30.8703C7.52518 31.0986 7.46926 31.326 7.42004 31.554C7.40562 31.6229 7.38707 31.6929 7.37107 31.7644C7.24038 32.381 7.14319 33.0006 7.08109 33.6207C7.07926 33.6408 7.07742 33.6609 7.07558 33.681C7.04667 33.9676 7.02703 34.2564 7.01311 34.5417C7.01076 34.5969 7.01098 34.6537 7.00863 34.7089C7.00034 34.9622 6.9946 35.2172 6.99714 35.4701C6.99674 35.5336 7.00048 35.5961 7.00008 35.6596C7.00422 35.91 7.01505 36.1611 7.03002 36.4111C7.03279 36.4695 7.03556 36.5278 7.04247 36.5852C7.06037 36.8477 7.08496 37.1108 7.11625 37.3745C7.11927 37.4153 7.12644 37.4552 7.12947 37.496C7.28279 38.7453 7.56905 39.9742 7.98593 41.1637C9.25531 44.7934 11.7215 48.0279 15.2383 50.2065C18.755 52.3852 22.7493 53.153 26.5645 52.6733C27.8126 52.5153 29.043 52.2259 30.2299 51.8069C30.2703 51.793 30.3066 51.7801 30.3445 51.7646C30.5946 51.6752 30.8386 51.5785 31.0841 51.4792C31.1376 51.4557 31.1936 51.4338 31.2456 51.4128C31.4761 51.3149 31.7031 51.2112 31.9292 51.1034C31.9859 51.0748 32.0435 51.0503 32.1002 51.0217C32.3278 50.9113 32.5535 50.7926 32.7766 50.6724C32.825 50.6457 32.876 50.6206 32.9243 50.5939C33.1736 50.4545 33.4234 50.3083 33.6671 50.1548C33.6843 50.1442 33.7015 50.1336 33.7187 50.123C34.2463 49.7912 34.7578 49.4283 35.2517 49.0367C35.3086 48.9905 35.3614 48.9453 35.4183 48.8991C35.5979 48.752 35.7792 48.6022 35.9543 48.4452C36.0322 48.3766 36.1076 48.3064 36.1829 48.2362C36.3361 48.0974 36.4842 47.9555 36.6298 47.812C36.7114 47.7316 36.7947 47.6486 36.8738 47.5666C37.0111 47.425 37.1458 47.2819 37.2779 47.1371C37.3576 47.0484 37.4415 46.9587 37.5187 46.8684C37.6498 46.7196 37.7759 46.5675 37.9035 46.4129C37.9781 46.321 38.0553 46.2307 38.1274 46.1373C38.2604 45.9683 38.3873 45.792 38.5152 45.6198C38.5742 45.536 38.6383 45.4553 38.6973 45.3715C38.8807 45.1098 39.058 44.8407 39.2276 44.5669L55.7039 17.9711C56.7723 16.2465 56.2385 13.9719 54.5146 12.904L54.5121 12.9024ZM45.578 30.0429L43.0946 28.5044L44.0457 26.9691L46.5291 28.5077L45.578 30.0429ZM49.9246 23.0268L47.4411 21.4883L48.3922 19.953L50.8757 21.4915L49.9246 23.0268Z" fill="#FF63F6"/>
<path d="M25.3703 54.5896C21.5958 54.7866 17.7305 53.8791 14.2803 51.7416C10.83 49.6042 8.30037 46.5463 6.79175 43.0801L4.29192 47.1152C2.51177 49.9887 5.26076 55.052 10.2967 58.1718C15.3327 61.2916 21.0903 61.4983 22.8705 58.6248L25.3703 54.5896Z" fill="#FF63F6"/>
<path d="M27.1359 15.3081L23.6216 20.9809L28.0411 23.7188C28.6933 24.1229 29.2283 24.6419 29.6429 25.2352L33.3918 19.1837C34.4603 17.4591 33.9264 15.1844 32.2026 14.1165C30.4787 13.0486 28.2043 13.5835 27.1359 15.3081Z" fill="#FF63F6"/>
<path d="M26.0765 -0.383327L15.0785 17.3694C16.3732 17.1305 17.7548 17.3455 18.9594 18.0918L22.0874 20.0296L25.6017 14.3568C25.6017 14.3568 25.6049 14.3517 25.6081 14.3466L32.269 3.59463C32.808 2.72465 32.9736 1.65173 32.729 0.646874C32.499 -0.295834 31.9334 -1.08529 31.138 -1.57806C31.1201 -1.58915 31.0996 -1.60183 31.0817 -1.61292C29.3721 -2.62955 27.1259 -2.07723 26.0765 -0.383327ZM24.9696 5.44246L27.453 6.98098L26.5019 8.51623L24.0185 6.97772L24.9696 5.44246ZM20.623 12.4586L23.1065 13.9971L22.1553 15.5324L19.6719 13.9938L20.623 12.4586Z" fill="#FF63F6"/>
<path d="M27.4533 6.97992L24.9698 5.44141L24.0187 6.97666L26.5022 8.51518L27.4533 6.97992Z" fill="#0B2595"/>
<path d="M23.1061 13.997L20.6227 12.4585L19.6716 13.9938L22.155 15.5323L23.1061 13.997Z" fill="#0B2595"/>
<path d="M50.8763 21.4907L48.3928 19.9521L47.4417 21.4874L49.9252 23.0259L50.8763 21.4907Z" fill="#0B2595"/>
<path d="M46.529 28.5078L44.0455 26.9692L43.0944 28.5045L45.5779 30.043L46.529 28.5078Z" fill="#0B2595"/>
<path d="M55.4635 11.3669C52.8931 9.77449 49.5043 10.5715 47.9112 13.143L43.3284 20.5404C42.9642 19.2773 42.1507 18.1396 40.9487 17.3949C39.322 16.3872 37.3688 16.335 35.7504 17.085C35.7013 15.3019 34.7848 13.5763 33.1581 12.5686C31.9561 11.8239 30.5751 11.6022 29.282 11.8385L33.8013 4.54348C34.5939 3.2641 34.8406 1.68903 34.482 0.216959C34.1311 -1.22196 33.2428 -2.42736 32.005 -3.16585C29.4531 -4.67952 26.1068 -3.85975 24.5422 -1.33425L8.06746 25.259C5.05087 30.1283 4.48095 35.83 6.00685 40.9251L2.76041 46.1655C0.385812 49.9985 3.27943 55.948 9.34866 59.708C15.4179 63.4679 22.0335 63.4094 24.4081 59.5764L27.6545 54.336C32.8961 53.4334 37.7475 50.3841 40.7625 45.5174L57.2388 18.9216C58.8319 16.35 58.0364 12.9609 55.466 11.3685L55.4635 11.3669ZM34.9271 20.1335C35.9955 18.4089 38.2699 17.874 39.9938 18.942C41.7176 20.0099 42.2515 22.2845 41.1831 24.0091L35.9139 32.5145C34.8455 34.2391 32.5711 34.774 30.8473 33.706C30.1388 33.2671 29.6366 32.6267 29.357 31.9011C29.5209 31.7052 29.6751 31.4962 29.8146 31.2711C30.5866 30.025 30.7936 28.5882 30.514 27.2571L34.9271 20.1335ZM27.1366 15.3072C28.205 13.5826 30.4794 13.0477 32.2033 14.1157C33.9271 15.1836 34.461 17.4582 33.3926 19.1828L29.6436 25.2343C29.2315 24.6426 28.694 24.122 28.0418 23.718L23.6223 20.98L27.1366 15.3072ZM26.0768 -0.383568C27.1262 -2.07747 29.3708 -2.62723 31.082 -1.61316C31.0999 -1.60207 31.1204 -1.58939 31.1383 -1.5783C31.9337 -1.08553 32.4968 -0.297659 32.7293 0.646634C32.9739 1.65149 32.8083 2.72441 32.2693 3.59439L25.6084 14.3463C25.6084 14.3463 25.6052 14.3514 25.602 14.3565L22.0877 20.0293L18.9597 18.0915C17.7551 17.3452 16.3735 17.1302 15.0788 17.3691L26.0768 -0.383568ZM22.871 58.6241C21.0908 61.4976 15.3332 61.2909 10.2972 58.1711C5.26125 55.0513 2.51227 49.9881 4.29242 47.1146L6.79224 43.0794C8.29831 46.5441 10.8305 49.6035 14.2808 51.7409C17.731 53.8784 21.5979 54.7833 25.3708 54.589L22.871 58.6241ZM39.2269 44.5625C34.1639 52.7352 23.4009 55.2665 15.2319 50.2057C7.06283 45.1449 4.53898 34.3824 9.60203 26.2097L12.9436 20.8158C14.012 19.0912 16.2864 18.5563 18.0102 19.6242L27.0923 25.2507C27.1895 25.3109 27.2835 25.3762 27.3718 25.4451C27.4035 25.4682 27.4336 25.4939 27.4662 25.5212C27.5203 25.5654 27.5743 25.6095 27.6252 25.6587C27.6614 25.6917 27.7001 25.7264 27.7347 25.7619C27.7744 25.8007 27.8125 25.842 27.8506 25.8833C27.8913 25.9262 27.9294 25.9675 27.9685 26.013C27.9868 26.0349 28.0034 26.0594 28.0217 26.0814C28.1803 26.2823 28.3202 26.4964 28.4346 26.7231C28.4381 26.7288 28.4426 26.7387 28.4462 26.7444C28.9938 27.8485 28.9785 29.1987 28.2842 30.3194C27.9878 30.7979 27.5988 31.1801 27.1524 31.4665C27.1409 31.4736 27.1279 31.4832 27.1164 31.4903C26.8268 31.6721 26.5167 31.8128 26.1933 31.9063C26.1669 31.9147 26.1379 31.9215 26.1114 31.9299C26.0436 31.9481 25.9773 31.9637 25.911 31.9793C25.8778 31.9871 25.8437 31.9907 25.8106 31.9985C25.7035 32.0171 25.5954 32.0316 25.4864 32.042C25.4373 32.047 25.3882 32.052 25.3407 32.0544C25.289 32.0578 25.2364 32.057 25.1837 32.0563C25.127 32.0565 25.0727 32.0584 25.0176 32.056C24.9691 32.0543 24.918 32.051 24.8711 32.0468C24.8067 32.0422 24.7438 32.0352 24.681 32.0281C24.6382 32.0229 24.598 32.0192 24.5568 32.0114C24.4544 31.9939 24.3535 31.9739 24.2517 31.9498C24.2264 31.9448 24.2003 31.9357 24.1766 31.9281C24.0949 31.9058 24.0147 31.8809 23.9336 31.8519C23.8982 31.8406 23.8643 31.8267 23.8304 31.8128C23.756 31.7844 23.6832 31.7534 23.6119 31.7199C23.5822 31.705 23.5483 31.6911 23.5186 31.6763C23.4192 31.6253 23.3173 31.5728 23.2201 31.5126L18.6803 28.7001L17.7292 30.2354L21.9902 32.8751C23.7371 33.9573 24.2768 36.2568 23.1941 38.0044L21.07 41.4332L22.6045 42.3839L24.7287 38.9551C25.7131 37.3661 25.7946 35.4692 25.1111 33.8702C26.0983 33.8764 27.0775 33.6155 27.9327 33.1149C28.37 33.9629 29.0343 34.7073 29.9039 35.246C32.4743 36.8384 35.8631 36.0414 37.4562 33.4699L42.7253 24.9646C42.7253 24.9646 42.7285 24.9594 42.7316 24.9543L49.456 14.1C50.5244 12.3754 52.7988 11.8406 54.5226 12.9085C56.2464 13.9764 56.7803 16.251 55.7119 17.9757L39.2372 44.5689L39.2269 44.5625Z" fill="#0B2595"/>
<path d="M12.5683 44.9293C12.4148 44.8343 12.2737 44.7079 12.1592 44.5556C9.08955 40.4727 8.25114 35.1591 9.91586 30.341C10.1863 29.5561 11.0433 29.1381 11.8306 29.4098C12.6153 29.6799 13.0328 30.537 12.7608 31.3245C11.4246 35.1953 12.0964 39.4639 14.565 42.746C15.0638 43.409 14.9315 44.3539 14.2683 44.853C13.7575 45.2377 13.0823 45.2478 12.5708 44.9309L12.5683 44.9293Z" fill="white"/>
<path d="M27.4532 6.97992L24.9697 5.44141L24.0186 6.97666L26.5021 8.51518L27.4532 6.97992Z" fill="#0B2595"/>
<path d="M23.106 13.997L20.6226 12.4585L19.6715 13.9938L22.1549 15.5323L23.106 13.997Z" fill="#0B2595"/>
<path d="M50.876 21.4907L48.3926 19.9521L47.4415 21.4874L49.9249 23.0259L50.876 21.4907Z" fill="#0B2595"/>
<path d="M46.5289 28.5078L44.0454 26.9692L43.0943 28.5045L45.5778 30.043L46.5289 28.5078Z" fill="#0B2595"/>
<path d="M55.4631 11.3664C52.8927 9.77401 49.5039 10.571 47.9108 13.1425L43.3281 20.5399C42.9638 19.2768 42.1504 18.1391 40.9483 17.3944C39.3216 16.3867 37.3685 16.3345 35.75 17.0845C35.7009 15.3014 34.7844 13.5758 33.1578 12.5681C31.9557 11.8234 30.5747 11.6017 29.2816 11.838L33.8009 4.543C34.5935 3.26361 34.8402 1.68854 34.4816 0.21647C34.1308 -1.22245 33.2424 -2.42785 32.0046 -3.16634C29.4527 -4.68 26.1064 -3.86024 24.5418 -1.33474L8.0671 25.2585C5.0505 30.1278 4.48058 35.8295 6.00648 40.9246L2.76004 46.165C0.385445 49.998 3.27906 55.9475 9.34829 59.7075C15.4175 63.4674 22.0331 63.4089 24.4077 59.5759L27.6542 54.3356C32.8957 53.4329 37.7471 50.3836 40.7621 45.5169L57.2384 18.9211C58.8315 16.3495 58.0361 12.9604 55.4657 11.368L55.4631 11.3664ZM34.9268 20.133C35.9952 18.4084 38.2696 17.8735 39.9934 18.9415C41.7172 20.0094 42.2511 22.284 41.1827 24.0086L35.9136 32.514C34.8452 34.2386 32.5708 34.7735 30.8469 33.7055C30.1385 33.2666 29.6363 32.6262 29.3567 31.9006C29.5205 31.7047 29.6747 31.4958 29.8142 31.2706C30.5862 30.0245 30.7933 28.5877 30.5136 27.2566L34.9268 20.133ZM27.1363 15.3067C28.2047 13.5821 30.4791 13.0472 32.2029 14.1152C33.9267 15.1831 34.4606 17.4577 33.3922 19.1823L29.6432 25.2338C29.2312 24.6422 28.6937 24.1215 28.0415 23.7175L23.6219 20.9795L27.1363 15.3067ZM26.0764 -0.384057C27.1258 -2.07796 29.3705 -2.62772 31.0817 -1.61365C31.0996 -1.60256 31.12 -1.58988 31.1379 -1.57879C31.9333 -1.08602 32.4964 -0.298147 32.729 0.646146C32.9735 1.651 32.8079 2.72392 32.2689 3.5939L25.608 14.3458C25.608 14.3458 25.6049 14.3509 25.6017 14.3561L22.0873 20.0288L18.9594 18.091C17.7547 17.3448 16.3732 17.1297 15.0785 17.3686L26.0764 -0.384057ZM22.8706 58.6236C21.0904 61.4971 15.3328 61.2904 10.2968 58.1706C5.26089 55.0508 2.5119 49.9876 4.29205 47.1141L6.79188 43.0789C8.29794 46.5436 10.8302 49.603 14.2804 51.7404C17.7306 53.8779 21.5976 54.7828 25.3704 54.5885L22.8706 58.6236ZM39.2266 44.5621C34.1635 52.7348 23.4005 55.266 15.2315 50.2052C7.06246 45.1444 4.53861 34.3819 9.60167 26.2092L12.9432 20.8153C14.0116 19.0907 16.286 18.5558 18.0099 19.6237L27.092 25.2502C27.1892 25.3104 27.2832 25.3757 27.3715 25.4446C27.4031 25.4677 27.4332 25.4934 27.4658 25.5207C27.5199 25.5649 27.574 25.609 27.6249 25.6582C27.661 25.6913 27.6998 25.7259 27.7344 25.7614C27.774 25.8002 27.8122 25.8415 27.8503 25.8828C27.8909 25.9257 27.929 25.967 27.9681 26.0125C27.9864 26.0344 28.0031 26.0589 28.0213 26.0809C28.18 26.2818 28.3198 26.496 28.4342 26.7226C28.4378 26.7283 28.4423 26.7382 28.4458 26.7439C28.9935 27.848 28.9781 29.1982 28.2838 30.3189C27.9874 30.7974 27.5984 31.1796 27.152 31.4661C27.1405 31.4731 27.1275 31.4828 27.116 31.4898C26.8265 31.6716 26.5163 31.8123 26.1929 31.9058C26.1665 31.9142 26.1375 31.9211 26.1111 31.9295C26.0432 31.9476 25.9769 31.9632 25.9106 31.9788C25.8775 31.9866 25.8434 31.9902 25.8102 31.998C25.7031 32.0167 25.5951 32.0311 25.486 32.0415C25.4369 32.0465 25.3878 32.0515 25.3403 32.0539C25.2886 32.0573 25.236 32.0566 25.1834 32.0558C25.1266 32.0561 25.0724 32.0579 25.0172 32.0556C24.9687 32.0538 24.9177 32.0505 24.8708 32.0463C24.8063 32.0418 24.7434 32.0347 24.6806 32.0276C24.6378 32.0224 24.5976 32.0187 24.5565 32.0109C24.454 31.9935 24.3531 31.9735 24.2513 31.9493C24.2261 31.9443 24.1999 31.9352 24.1763 31.9276C24.0945 31.9053 24.0144 31.8804 23.9332 31.8514C23.8978 31.8401 23.8639 31.8262 23.8301 31.8123C23.7556 31.7839 23.6828 31.7529 23.6116 31.7194C23.5818 31.7045 23.548 31.6906 23.5183 31.6758C23.4189 31.6248 23.3169 31.5723 23.2197 31.5121L18.68 28.6997L17.7289 30.2349L21.9898 32.8746C23.7367 33.9568 24.2764 36.2563 23.1937 38.004L21.0696 41.4327L22.6042 42.3834L24.7283 38.9546C25.7127 37.3656 25.7942 35.4687 25.1108 33.8698C26.098 33.8759 27.0771 33.615 27.9323 33.1144C28.3696 33.9624 29.0339 34.7068 29.9035 35.2455C32.4739 36.8379 35.8627 36.041 37.4558 33.4694L42.7249 24.9641C42.7249 24.9641 42.7281 24.959 42.7313 24.9538L49.4556 14.0996C50.524 12.375 52.7984 11.8401 54.5222 12.908C56.2461 13.9759 56.7799 16.2506 55.7115 17.9752L39.2368 44.5684L39.2266 44.5621Z" fill="#0B2595"/>
</g>
</svg>
