<svg width="100%" height="100%" overflow="visible" style="display: block;" viewBox="0 0 59.6444 59.7433" fill="none" xmlns="http://www.w3.org/2000/svg">
<g id="Group 4993">
<g id="Group">
<path id="Vector" d="M24.2898 2.81031C26.2619 2.81035 28.9158 3.17695 31.5779 3.6355C34.2861 4.102 37.199 4.69982 39.7449 5.22144L42.0173 5.68433C44.0026 6.08338 45.3775 6.33669 46.0496 6.38648C46.0691 6.38707 46.0886 6.38547 46.1082 6.38648C47.2572 6.44573 48.4019 5.74683 49.156 5.0857C50.2009 4.16962 51.7588 4.15464 52.821 5.05054L55.8347 7.59253C56.8992 8.49029 57.1462 10.0326 56.4148 11.2175C45.8992 28.2535 45.8997 49.3742 46.0486 54.033C46.0728 54.7934 45.7869 55.5314 45.2576 56.0779C44.7282 56.6243 43.9998 56.9324 43.239 56.9324H15.9314C14.544 56.9322 13.3645 55.92 13.1541 54.5486C12.7673 52.0265 12.3364 44.7181 17.74 35.5798C21.5215 29.1856 26.0913 25.4808 29.3464 23.4675C26.2078 22.3853 21.589 21.188 17.075 21.4773H17.074C14.2008 21.6597 13.0723 23.11 12.5271 24.2351C12.1018 25.1156 11.932 26.0309 11.8738 26.6892C11.7455 28.1398 10.5302 29.2527 9.07398 29.2527H5.62085C4.06878 29.2527 2.81044 27.9942 2.81031 26.4421V7.63257C2.81031 6.08042 4.0687 4.82202 5.62085 4.82202H9.04859C9.79476 4.82211 10.5107 5.1191 11.0378 5.64722C11.1568 5.76647 11.2626 5.89637 11.3572 6.03296C15.6502 3.72848 19.3728 2.81031 24.2898 2.81031Z" fill="var(--fill-0, #FF63F6)" stroke="var(--stroke-0, white)" stroke-width="5.62085" stroke-linejoin="round"/>
<path id="Vector_2" d="M24.2898 4.68433C26.0867 4.68437 28.6012 5.02428 31.2595 5.48218C33.9333 5.94276 36.8166 6.53444 39.3689 7.05738C42.4386 7.68645 44.7682 8.15858 45.8718 8.24976L46.0125 8.25757C47.9078 8.35516 49.5282 7.25068 50.3914 6.4939L50.9968 5.96363L51.613 6.48218L54.6277 9.02515L55.2449 9.54566L54.8201 10.2332C43.9974 27.7666 44.0246 49.3686 44.1755 54.0925L44.2068 55.0593H15.1277L15.0056 54.2644C14.6702 52.0769 14.2136 45.2259 19.3533 36.5339L19.9099 35.6218C25.4333 26.8528 32.3886 23.8223 33.866 23.2566C32.5614 22.6433 24.6824 19.1122 16.9558 19.6072H16.9548C13.2705 19.8411 11.6151 21.8196 10.8406 23.4177C10.2858 24.5653 10.0786 25.7207 10.0076 26.5242L9.9314 27.3787H4.68433V6.69605H9.98706L9.98511 7.63452L9.98218 8.99488C15.0892 5.83852 18.8875 4.68433 24.2898 4.68433Z" fill="var(--fill-0, #FF63F6)" stroke="var(--stroke-0, #0B2595)" stroke-width="1.87362"/>
</g>
<path id="Vector_3" d="M19.6229 48.9409C19.5282 48.9409 19.4307 48.9324 19.3332 48.9124C18.5559 48.7555 18.0569 47.9993 18.2175 47.2289C18.8456 44.1815 20.0818 41.0856 21.8887 38.0297C24.1545 34.1947 26.9939 31.0275 30.3238 28.6135C32.8851 26.756 34.8296 26.0341 35.0448 25.957C35.7905 25.6917 36.6107 26.0769 36.8803 26.8188C37.1471 27.5606 36.7599 28.3767 36.0142 28.6449C35.7417 28.7419 29.3056 31.1188 24.3639 39.4792C22.7176 42.2641 21.5961 45.0661 21.0311 47.8053C20.8906 48.4815 20.294 48.9466 19.6286 48.9466L19.6229 48.9409ZM12.1887 14.1926C11.7097 14.1926 11.2422 13.9558 10.9726 13.5221C10.5539 12.8544 10.7575 11.9727 11.4286 11.5561C16.1037 8.6485 19.4709 7.61844 24.2922 7.61844C26.0933 7.61844 29.0188 8.01791 33.5017 8.87392C34.279 9.0223 34.7895 9.76988 34.6403 10.5431C34.4912 11.3164 33.7398 11.8243 32.9625 11.6759C28.7205 10.8656 25.884 10.4718 24.2922 10.4718C19.9699 10.4718 17.2136 11.3221 12.9487 13.9757C12.7136 14.1241 12.4497 14.1926 12.1887 14.1926ZM43.6979 13.776C43.6176 13.776 43.5344 13.7703 43.4541 13.756C42.1835 13.5392 40.5487 13.2053 38.1968 12.726C37.4224 12.5662 36.9234 11.8129 37.0811 11.0396C37.2417 10.2692 37.9989 9.77273 38.7762 9.92967C41.0277 10.3919 42.7141 10.7343 43.9388 10.9426C44.7189 11.0767 45.2438 11.8129 45.109 12.589C44.9885 13.2852 44.3834 13.7732 43.6979 13.7732V13.776Z" fill="var(--fill-0, white)"/>
</g>
</svg>
