<svg width="100%" height="100%" overflow="visible" style="display: block;" viewBox="0 0 54.8058 41.4154" fill="none" xmlns="http://www.w3.org/2000/svg">
<g id="Group 5006">
<path id="Vector" d="M53.5113 23.7858C53.1846 21.5281 52.2106 19.8124 50.6194 18.6866C47.2364 16.295 42.1159 17.2628 42.0638 17.2728L41.7332 17.3368L41.5047 17.0888C37.1057 12.3116 31.5743 12.8455 28.9991 13.9134L28.1553 14.2633L28.1674 13.3514C28.1994 10.8179 30.2777 9.52606 31.3719 9.19611C32.9752 8.6762 34.5905 8.6242 35.6968 8.6802C33.4502 6.26658 30.2476 7.06646 30.0953 7.10645L28.967 7.4024L29.3798 6.31458C30.4821 3.41304 28.2375 1.8133 27.4579 1.36137L27.4038 1.38937L27.3497 1.36137C26.5661 1.8173 24.3275 3.41904 25.4277 6.31458L25.8446 7.4104L24.7103 7.10645C24.56 7.06646 21.3554 6.26658 19.1108 8.68219C20.2171 8.6262 21.8364 8.6782 23.4497 9.20211C24.5319 9.52606 26.6102 10.8179 26.6402 13.3514L26.6523 14.2633L25.8085 13.9134C23.2332 12.8455 17.7019 12.3116 13.3029 17.0888L13.0744 17.3368L12.7438 17.2708C12.6937 17.2608 7.57115 16.293 4.18822 18.6846C2.59696 19.8104 1.62297 21.5261 1.2963 23.7838C0.320298 30.5087 8.07418 34.706 8.15234 34.748L8.471 34.918L8.471 39.6372C9.50712 38.9073 11.1505 38.2894 13.4352 37.7695C17.1127 36.9317 22.0508 36.4697 27.3397 36.4697H27.4298H27.4599C32.7608 36.4697 37.6989 36.9317 41.3764 37.7695C43.6611 38.2894 45.3065 38.9073 46.3406 39.6372V34.918L46.6613 34.748C46.7394 34.706 54.4913 30.5087 53.5173 23.7838L53.5113 23.7858Z" fill="var(--fill-0, #FFDF00)"/>
<path id="Vector_2" d="M10.8707 36.9604C10.4418 36.9604 10.043 36.6824 9.91273 36.2505C9.7524 35.7226 10.051 35.1647 10.5801 35.0027C11.2174 34.8107 11.9208 34.6248 12.6724 34.4548C16.5904 33.5609 21.8031 33.071 27.3464 33.071H27.4667C28.0198 33.071 28.4687 33.5189 28.4687 34.0709C28.4687 34.6228 28.0198 35.0707 27.4667 35.0707H27.3464C21.9474 35.0707 16.895 35.5446 13.1173 36.4045C12.4119 36.5644 11.7545 36.7384 11.1613 36.9164C11.0651 36.9464 10.9669 36.9604 10.8707 36.9604Z" fill="var(--fill-0, white)"/>
<g id="Group">
<path id="Vector_3" d="M46.388 24.7846C46.0714 22.395 44.2156 21.5211 43.0812 21.2072C43.472 23.0629 43.7406 27.2502 39.8486 31.5215L43.3558 32.1914C44.1354 31.2836 46.7548 27.9681 46.388 24.7866V24.7846Z" fill="var(--fill-0, #FF63F6)"/>
<path id="Vector_4" d="M43.7887 33.495L37.3876 32.2732L38.2213 31.4694C43.7246 26.1722 41.7686 20.8791 41.6824 20.6571L41.3417 19.7732L42.2896 19.8432C43.945 19.9672 47.1837 21.151 47.5945 24.7384C48.0214 28.9798 44.1815 33.0831 44.0172 33.2571L43.7907 33.495H43.7887ZM39.8486 31.5214L43.3558 32.1912C44.1354 31.2834 46.7548 27.9679 46.388 24.7864C46.0714 22.3968 44.2156 21.523 43.0813 21.209C43.4721 23.0647 43.7406 27.252 39.8486 31.5234V31.5214Z" fill="var(--fill-0, #0B2595)"/>
<path id="Vector_5" d="M35.0347 20.4409C34.5577 19.465 33.9084 18.8471 33.1067 18.6032C32.0466 18.2792 30.9383 18.6632 30.4192 18.8931V30.2073L32.5235 30.3413C33.3873 29.2155 36.9045 24.2583 35.0347 20.4409Z" fill="var(--fill-0, #FF63F6)"/>
<path id="Vector_6" d="M33.0669 31.5776L29.217 31.3336L29.217 18.1757L29.5156 18.0017C29.5958 17.9557 31.5017 16.8659 33.4477 17.4518C34.586 17.7958 35.4838 18.6236 36.1151 19.9134C37.1432 22.0111 36.9669 24.6667 35.6001 27.5922C34.596 29.7438 33.3154 31.2816 33.2613 31.3456L33.0669 31.5776ZM30.4195 30.2078L32.5238 30.3417C33.3875 29.2159 36.9047 24.2587 35.0349 20.4413C34.5579 19.4655 33.9086 18.8476 33.107 18.6036C32.0468 18.2797 30.9385 18.6636 30.4195 18.8936V30.2078Z" fill="var(--fill-0, #0B2595)"/>
<path id="Vector_7" d="M8.29166 24.7888C7.93092 27.9703 10.5463 31.2837 11.3259 32.1916L14.8331 31.5217C10.9391 27.2504 11.2096 23.0631 11.6004 21.2073C10.4661 21.5213 8.60831 22.3972 8.29166 24.7888Z" fill="var(--fill-0, #FF63F6)"/>
<path id="Vector_8" d="M10.8929 33.4952L10.6664 33.2553C10.5021 33.0813 6.66421 28.9759 7.08908 24.7366C7.09309 24.7046 7.0971 24.6726 7.10111 24.6406C7.56005 21.1272 10.7546 19.9634 12.394 19.8394L13.3479 19.7674L12.9992 20.6573C12.915 20.8792 10.959 26.1724 16.4623 31.4695L17.296 32.2734L10.8949 33.4952H10.8929ZM8.29355 24.7866C7.93281 27.9681 10.5482 31.2816 11.3278 32.1894L14.835 31.5195C10.941 27.2482 11.2115 23.0609 11.6023 21.2052C10.468 21.5191 8.6102 22.395 8.29355 24.7866Z" fill="var(--fill-0, #0B2595)"/>
<path id="Vector_9" d="M22.4449 18.479C22.1603 18.479 21.8657 18.515 21.5731 18.603C20.7714 18.8469 20.1221 19.4648 19.6451 20.4407C17.7733 24.2581 21.2925 29.2153 22.1563 30.3411L24.2606 30.2071V18.8929C23.8858 18.727 23.1984 18.479 22.4449 18.479Z" fill="var(--fill-0, #FF63F6)"/>
<path id="Vector_10" d="M21.6144 31.5776L21.42 31.3456C21.2015 31.0857 16.1091 24.9267 18.5661 19.9135C19.1974 18.6237 20.0953 17.7958 21.2336 17.4519C23.1816 16.864 25.0855 17.9538 25.1657 18.0018L25.4643 18.1758V31.3336L21.6144 31.5776ZM22.4461 18.4797C22.1615 18.4797 21.8669 18.5157 21.5743 18.6037C20.7727 18.8477 20.1233 19.4656 19.6464 20.4414C17.7745 24.2588 21.2937 29.216 22.1575 30.3418L24.2618 30.2078V18.8936C23.887 18.7277 23.1996 18.4797 22.4461 18.4797Z" fill="var(--fill-0, #0B2595)"/>
</g>
<path id="Vector_11" d="M46.3858 41.4153C45.985 40.5135 44.0571 39.6116 41.101 38.9377C37.5097 38.1199 32.6677 37.6679 27.4651 37.6679H27.3448C22.1322 37.6679 17.2882 38.1179 13.6969 38.9377C10.7408 39.6116 8.81487 40.5135 8.41405 41.4153L7.2637 41.1714V35.6283C5.69248 34.7104 -0.889006 30.4291 0.101023 23.6122C0.477795 21.0146 1.62014 19.0269 3.49397 17.7032C6.81077 15.3615 11.3661 15.8455 12.6387 16.0374C16.9535 11.5501 22.2183 11.5721 25.2946 12.468C24.8016 10.8962 23.1643 10.3723 23.0841 10.3483C20.573 9.53247 17.9496 10.0084 17.9235 10.0144L16.6149 10.2584L17.2963 9.11654C19.2342 5.87106 22.4167 5.66709 24.026 5.79907C23.6493 3.96136 24.3447 2.60358 25.0582 1.74572C25.9199 0.711886 26.9681 0.197968 27.0863 0.143977L27.3509 0.0199968L27.403 0L27.4571 0.0239961L27.7176 0.143977C27.7637 0.165973 28.8539 0.679891 29.7377 1.73572C30.4572 2.59558 31.1607 3.95736 30.7819 5.80107C32.3892 5.66709 35.5717 5.87106 37.5117 9.11853L38.1951 10.2624L36.8824 10.0144C36.8563 10.0104 34.2329 9.53447 31.7318 10.3463C31.6416 10.3743 30.0043 10.8982 29.5113 12.47C32.5856 11.5741 37.8524 11.5521 42.1672 16.0394C43.4398 15.8455 47.9931 15.3615 51.3119 17.7032C53.1858 19.0269 54.3281 21.0146 54.7049 23.6122C55.6949 30.4291 49.1134 34.7104 47.5422 35.6283V41.1714L46.3919 41.4153H46.3858ZM27.4531 36.4681C32.7539 36.4681 37.692 36.9301 41.3696 37.7679C43.6543 38.2878 45.2996 38.9058 46.3337 39.6356V34.9164L46.6544 34.7464C46.7326 34.7044 54.4844 30.5071 53.5104 23.7822C53.1838 21.5245 52.2098 19.8088 50.6185 18.683C47.2356 16.2914 42.1151 17.2592 42.063 17.2692L41.7323 17.3332L41.5038 17.0853C37.1048 12.308 31.5735 12.8419 28.9982 13.9098L28.1545 14.2597L28.1665 13.3479C28.1986 10.8143 30.2768 9.52247 31.3711 9.19252C32.9744 8.67261 34.5897 8.62061 35.6959 8.67661C33.4493 6.26299 30.2468 7.06287 30.0945 7.10286L28.9662 7.39881L29.379 6.31099C30.4813 3.40945 28.2367 1.80971 27.4571 1.35778L27.403 1.32779L27.3488 1.35978C26.5652 1.81571 24.3267 3.41745 25.4269 6.31299L25.8438 7.40881L24.7094 7.10486C24.5591 7.06487 21.3546 6.26499 19.11 8.68061C20.2162 8.62461 21.8356 8.67661 23.4489 9.20052C24.5311 9.52447 26.6093 10.8163 26.6394 13.3499L26.6514 14.2617L25.8077 13.9118C23.2324 12.8439 17.7011 12.31 13.3021 17.0873L13.0736 17.3352L12.7429 17.2692C12.6928 17.2592 7.57033 16.2914 4.18739 18.683C2.59613 19.8088 1.62214 21.5245 1.29547 23.7822C0.31947 30.5071 8.07336 34.7044 8.15152 34.7464L8.47017 34.9164V39.6356C9.50629 38.9058 11.1497 38.2878 13.4343 37.7679C17.1119 36.9301 22.05 36.4681 27.3388 36.4681H27.429H27.4591H27.4531Z" fill="var(--fill-0, #0B2595)"/>
<g id="Group_2">
<path id="Vector_12" d="M7.26405 35.63C6.67684 35.286 5.39021 34.4742 4.05948 33.2344L6.4604 35.62C6.72895 35.8979 6.9975 36.1559 7.26405 36.3979V35.63Z" fill="var(--fill-0, #0B2595)"/>
<path id="Vector_13" d="M3.29725 32.475L3.3136 32.4934C3.30747 32.4872 3.30338 32.4811 3.29725 32.475Z" fill="var(--fill-0, #0B2595)"/>
</g>
</g>
</svg>
