<svg width="100%" height="100%" overflow="visible" style="display: block;" viewBox="0 0 45.8196 72.7379" fill="none" xmlns="http://www.w3.org/2000/svg">
<g id="Group">
<g id="Group_2">
<path id="Vector" d="M27.4861 16.4268C30.5305 16.4269 33.0047 18.9036 33.0047 21.9473V31.9522C33.0047 34.9959 30.5305 37.4727 27.4861 37.4727C27.3276 37.4727 27.1693 37.464 27.0115 37.4493C27.0027 37.4487 26.9939 37.4471 26.9852 37.4464C26.9736 37.4452 26.9615 37.4456 26.95 37.4444V37.4425C26.8529 37.4332 26.7713 37.4227 26.7596 37.421V37.42C26.6368 37.4052 26.534 37.3878 26.4998 37.3819L26.4949 37.3809C26.4002 37.3642 26.3124 37.3429 26.2625 37.3311V37.3321C26.2612 37.3318 26.2599 37.3314 26.2586 37.3311C26.2517 37.3295 26.2453 37.3284 26.2401 37.3272V37.3262C26.176 37.3118 26.0858 37.2921 25.9861 37.2628L25.9764 37.2598C25.9475 37.2512 25.9744 37.2587 25.9012 37.2374C25.8584 37.2249 25.7845 37.2022 25.699 37.171V37.1719C25.6675 37.1605 25.6389 37.15 25.6248 37.1446C25.6164 37.1414 25.6113 37.1393 25.6072 37.1378C25.6039 37.1365 25.6024 37.1358 25.6024 37.1358L25.5867 37.13C25.0828 36.9414 24.6009 36.6825 24.161 36.3477L23.3016 35.6934L23.4539 34.6241C23.4793 34.4462 23.493 34.2746 23.493 34.1075C23.493 33.1379 23.1103 32.2554 22.4813 31.5958L21.9735 31.0636L21.9735 23.7862H21.9676V21.9473C21.9676 18.9036 24.4417 16.4268 27.4861 16.4268Z" fill="var(--fill-0, #FF63F6)" stroke="var(--stroke-0, white)" stroke-width="3.67853"/>
<g id="Group_3">
<g id="Vector_2">
<mask id="path-2-outside-1_125_31361" maskUnits="userSpaceOnUse" x="1.48383" y="1.48568" width="43" height="61" fill="black">
<rect fill="white" x="1.48383" y="1.48568" width="43" height="61"/>
<path d="M36.6534 5.48568C34.6256 5.48568 32.9738 7.13816 32.9738 9.1669V21.9353C32.9738 21.9353 32.9738 21.9413 32.9738 21.9473L32.9738 31.9525C32.9738 34.9776 30.5128 37.4398 27.4891 37.4398C27.3717 37.4398 27.2544 37.4337 27.1371 37.4277C27.101 37.4277 27.0679 37.4217 27.0348 37.4187C26.9505 37.4127 26.8663 37.4036 26.785 37.3916C26.7489 37.3856 26.7128 37.3826 26.6767 37.3766C26.5925 37.3645 26.5083 37.3495 26.427 37.3314C26.3969 37.3254 26.3668 37.3194 26.3398 37.3133C26.2375 37.2923 26.1382 37.2682 26.0389 37.2411C26.0299 37.2411 26.0209 37.2351 26.0118 37.2351C25.6658 37.1388 25.3319 37.0063 25.019 36.8438C25.013 36.8408 25.0069 36.8378 25.0009 36.8348C24.9016 36.7836 24.8023 36.7294 24.7061 36.6722C24.7031 36.6722 24.7001 36.6692 24.697 36.6662C24.2337 37.5421 23.5417 38.2796 22.6963 38.7943C24.1194 39.7966 25.0491 41.4521 25.0491 43.3183V47.3517H23.2439V43.3183C23.2439 41.2625 21.5741 39.5919 19.5192 39.5919H14.5068V37.7859H19.8471C19.9614 37.7859 20.0758 37.7799 20.1871 37.7678C20.2232 37.7648 20.2563 37.7588 20.2894 37.7558C20.3676 37.7468 20.4458 37.7347 20.5241 37.7197C20.5602 37.7137 20.5963 37.7046 20.6324 37.6986C20.7166 37.6806 20.7978 37.6595 20.8791 37.6354C20.9031 37.6294 20.9302 37.6234 20.9543 37.6143C21.0536 37.5842 21.1499 37.5481 21.2461 37.506C21.2852 37.4909 21.3213 37.4729 21.3605 37.4548C21.4176 37.4277 21.4778 37.4006 21.5319 37.3705C21.5771 37.3465 21.6192 37.3254 21.6613 37.3013C21.7095 37.2742 21.7576 37.2441 21.8027 37.214C21.8479 37.1869 21.89 37.1598 21.9351 37.1297C21.9742 37.1026 22.0133 37.0725 22.0524 37.0424C22.1397 36.9762 22.2239 36.907 22.3052 36.8348C22.3292 36.8107 22.3563 36.7896 22.3804 36.7655C22.4315 36.7174 22.4797 36.6692 22.5248 36.618C22.5429 36.597 22.5639 36.5759 22.582 36.5548C22.8076 36.302 22.9972 36.0221 23.1476 35.715C23.1536 35.703 23.1596 35.6879 23.1656 35.6759C23.2138 35.5736 23.2559 35.4682 23.295 35.3629C23.3101 35.3207 23.3251 35.2786 23.3371 35.2364C23.3612 35.1612 23.3823 35.0859 23.4033 35.0077C23.4154 34.9595 23.4274 34.9144 23.4364 34.8662C23.4545 34.7849 23.4665 34.7007 23.4785 34.6194C23.4846 34.5773 23.4936 34.5351 23.4966 34.493C23.5116 34.3666 23.5177 34.2371 23.5177 34.1077C23.5177 33.9482 23.5056 33.7916 23.4876 33.6381C23.4816 33.587 23.4665 33.5358 23.4575 33.4846C23.4394 33.3853 23.4244 33.286 23.3973 33.1866C23.3823 33.1264 23.3612 33.0693 23.3432 33.0091C23.3161 32.9248 23.289 32.8375 23.2559 32.7562C23.2318 32.696 23.2017 32.6358 23.1747 32.5786C23.1386 32.5034 23.1055 32.4251 23.0634 32.3529C23.0303 32.2927 22.9942 32.2385 22.9611 32.1813C22.9189 32.1121 22.8738 32.0428 22.8257 31.9766C22.7866 31.9224 22.7444 31.8683 22.7023 31.8171C22.6512 31.7539 22.6 31.6937 22.5459 31.6335C22.5007 31.5853 22.4556 31.5372 22.4075 31.489C22.3503 31.4318 22.2871 31.3776 22.2269 31.3235C22.1788 31.2813 22.1277 31.2392 22.0765 31.2C21.9772 31.1248 21.8779 31.0495 21.7726 30.9833C21.7666 30.9803 21.7576 30.9743 21.7516 30.9713C21.535 30.8388 21.3063 30.7275 21.0626 30.6432C21.0355 30.6342 21.0084 30.6221 20.9814 30.6131C20.9272 30.595 20.87 30.58 20.8129 30.5649C20.7587 30.5499 20.7046 30.5348 20.6504 30.5228C20.6023 30.5108 20.5541 30.5017 20.503 30.4927C20.4338 30.4807 20.3646 30.4686 20.2954 30.4596C20.2563 30.4536 20.2172 30.4475 20.1751 30.4445C20.0637 30.4355 19.9494 30.4265 19.8351 30.4265L9.16341 30.4265C7.13558 30.4265 5.48383 32.079 5.48383 34.1077L5.48383 40.4528C5.48383 40.7748 5.49286 41.0969 5.51091 41.416C5.51693 41.5183 5.52595 41.6206 5.53498 41.723C5.55002 41.9397 5.56807 42.1534 5.59214 42.3671C5.60418 42.4845 5.62223 42.6019 5.63727 42.7193C5.66435 42.9179 5.69143 43.1136 5.72151 43.3093C5.74258 43.4297 5.76364 43.547 5.7847 43.6644C5.8208 43.8571 5.85991 44.0497 5.90203 44.2423C5.9261 44.3567 5.95318 44.4681 5.98026 44.5795C6.0284 44.7811 6.08255 44.9798 6.13972 45.1754C6.16679 45.2748 6.19387 45.3741 6.22396 45.4734C6.29316 45.6992 6.36536 45.9219 6.44359 46.1417C6.46766 46.2079 6.48872 46.2771 6.51279 46.3463C6.7264 46.9393 6.9701 47.5172 7.24389 48.0771C7.25292 48.0951 7.26194 48.1132 7.27097 48.1313C7.39733 48.3901 7.53272 48.646 7.67112 48.8958C7.6982 48.944 7.72828 48.9921 7.75536 49.0403C7.88172 49.26 8.01109 49.4797 8.14648 49.6934C8.17958 49.7476 8.21568 49.7988 8.24878 49.853C8.38417 50.0637 8.52557 50.2714 8.66999 50.476C8.70308 50.5242 8.73618 50.5724 8.77228 50.6175C8.92572 50.8312 9.08518 51.0419 9.25066 51.2496C9.27473 51.2827 9.3018 51.3128 9.32587 51.3459C10.1141 52.3272 11.0047 53.2212 11.9855 54.0128C14.9761 56.4298 18.776 57.8806 22.9129 57.8806C27.0498 57.8806 30.8497 56.4298 33.8403 54.0128C34.8181 53.2212 35.7117 52.3272 36.5 51.3459C36.527 51.3128 36.5511 51.2827 36.5752 51.2496C36.7407 51.0419 36.8971 50.8312 37.0536 50.6175C37.0867 50.5694 37.1228 50.5212 37.1558 50.476C37.3003 50.2714 37.4387 50.0637 37.5741 49.853C37.6071 49.7988 37.6433 49.7476 37.6763 49.6934C37.8117 49.4797 37.9411 49.26 38.0675 49.0403C38.0945 48.9921 38.1246 48.944 38.1517 48.8958C38.2901 48.646 38.4255 48.3901 38.5519 48.1313C38.5609 48.1132 38.5699 48.0951 38.5789 48.0771C38.8527 47.5172 39.0964 46.9393 39.31 46.3463C39.3341 46.2771 39.3552 46.2109 39.3792 46.1417C39.4545 45.9219 39.5297 45.6992 39.5959 45.4734C39.6259 45.3741 39.653 45.2748 39.6801 45.1754C39.7373 44.9768 39.7884 44.7781 39.8366 44.5795C39.8636 44.4681 39.8907 44.3537 39.9148 44.2423C39.9569 44.0497 39.996 43.8571 40.0321 43.6644C40.0532 43.547 40.0772 43.4266 40.0953 43.3093C40.1284 43.1136 40.1555 42.9179 40.1825 42.7193C40.1976 42.6019 40.2156 42.4845 40.2277 42.3671C40.2517 42.1534 40.2668 41.9367 40.2848 41.723C40.2909 41.6206 40.3029 41.5183 40.3089 41.416C40.327 41.0969 40.336 40.7748 40.336 40.4528L40.336 9.1669C40.336 7.13816 38.6842 5.48568 36.6564 5.48568H36.6534ZM38.0855 24.7617H35.1641L35.1641 22.9557H38.0855V24.7617ZM38.0855 16.5083L35.1641 16.5083V14.7023L38.0855 14.7023V16.5083Z"/>
</mask>
<path d="M36.6534 5.48568C34.6256 5.48568 32.9738 7.13816 32.9738 9.1669V21.9353C32.9738 21.9353 32.9738 21.9413 32.9738 21.9473L32.9738 31.9525C32.9738 34.9776 30.5128 37.4398 27.4891 37.4398C27.3717 37.4398 27.2544 37.4337 27.1371 37.4277C27.101 37.4277 27.0679 37.4217 27.0348 37.4187C26.9505 37.4127 26.8663 37.4036 26.785 37.3916C26.7489 37.3856 26.7128 37.3826 26.6767 37.3766C26.5925 37.3645 26.5083 37.3495 26.427 37.3314C26.3969 37.3254 26.3668 37.3194 26.3398 37.3133C26.2375 37.2923 26.1382 37.2682 26.0389 37.2411C26.0299 37.2411 26.0209 37.2351 26.0118 37.2351C25.6658 37.1388 25.3319 37.0063 25.019 36.8438C25.013 36.8408 25.0069 36.8378 25.0009 36.8348C24.9016 36.7836 24.8023 36.7294 24.7061 36.6722C24.7031 36.6722 24.7001 36.6692 24.697 36.6662C24.2337 37.5421 23.5417 38.2796 22.6963 38.7943C24.1194 39.7966 25.0491 41.4521 25.0491 43.3183V47.3517H23.2439V43.3183C23.2439 41.2625 21.5741 39.5919 19.5192 39.5919H14.5068V37.7859H19.8471C19.9614 37.7859 20.0758 37.7799 20.1871 37.7678C20.2232 37.7648 20.2563 37.7588 20.2894 37.7558C20.3676 37.7468 20.4458 37.7347 20.5241 37.7197C20.5602 37.7137 20.5963 37.7046 20.6324 37.6986C20.7166 37.6806 20.7978 37.6595 20.8791 37.6354C20.9031 37.6294 20.9302 37.6234 20.9543 37.6143C21.0536 37.5842 21.1499 37.5481 21.2461 37.506C21.2852 37.4909 21.3213 37.4729 21.3605 37.4548C21.4176 37.4277 21.4778 37.4006 21.5319 37.3705C21.5771 37.3465 21.6192 37.3254 21.6613 37.3013C21.7095 37.2742 21.7576 37.2441 21.8027 37.214C21.8479 37.1869 21.89 37.1598 21.9351 37.1297C21.9742 37.1026 22.0133 37.0725 22.0524 37.0424C22.1397 36.9762 22.2239 36.907 22.3052 36.8348C22.3292 36.8107 22.3563 36.7896 22.3804 36.7655C22.4315 36.7174 22.4797 36.6692 22.5248 36.618C22.5429 36.597 22.5639 36.5759 22.582 36.5548C22.8076 36.302 22.9972 36.0221 23.1476 35.715C23.1536 35.703 23.1596 35.6879 23.1656 35.6759C23.2138 35.5736 23.2559 35.4682 23.295 35.3629C23.3101 35.3207 23.3251 35.2786 23.3371 35.2364C23.3612 35.1612 23.3823 35.0859 23.4033 35.0077C23.4154 34.9595 23.4274 34.9144 23.4364 34.8662C23.4545 34.7849 23.4665 34.7007 23.4785 34.6194C23.4846 34.5773 23.4936 34.5351 23.4966 34.493C23.5116 34.3666 23.5177 34.2371 23.5177 34.1077C23.5177 33.9482 23.5056 33.7916 23.4876 33.6381C23.4816 33.587 23.4665 33.5358 23.4575 33.4846C23.4394 33.3853 23.4244 33.286 23.3973 33.1866C23.3823 33.1264 23.3612 33.0693 23.3432 33.0091C23.3161 32.9248 23.289 32.8375 23.2559 32.7562C23.2318 32.696 23.2017 32.6358 23.1747 32.5786C23.1386 32.5034 23.1055 32.4251 23.0634 32.3529C23.0303 32.2927 22.9942 32.2385 22.9611 32.1813C22.9189 32.1121 22.8738 32.0428 22.8257 31.9766C22.7866 31.9224 22.7444 31.8683 22.7023 31.8171C22.6512 31.7539 22.6 31.6937 22.5459 31.6335C22.5007 31.5853 22.4556 31.5372 22.4075 31.489C22.3503 31.4318 22.2871 31.3776 22.2269 31.3235C22.1788 31.2813 22.1277 31.2392 22.0765 31.2C21.9772 31.1248 21.8779 31.0495 21.7726 30.9833C21.7666 30.9803 21.7576 30.9743 21.7516 30.9713C21.535 30.8388 21.3063 30.7275 21.0626 30.6432C21.0355 30.6342 21.0084 30.6221 20.9814 30.6131C20.9272 30.595 20.87 30.58 20.8129 30.5649C20.7587 30.5499 20.7046 30.5348 20.6504 30.5228C20.6023 30.5108 20.5541 30.5017 20.503 30.4927C20.4338 30.4807 20.3646 30.4686 20.2954 30.4596C20.2563 30.4536 20.2172 30.4475 20.1751 30.4445C20.0637 30.4355 19.9494 30.4265 19.8351 30.4265L9.16341 30.4265C7.13558 30.4265 5.48383 32.079 5.48383 34.1077L5.48383 40.4528C5.48383 40.7748 5.49286 41.0969 5.51091 41.416C5.51693 41.5183 5.52595 41.6206 5.53498 41.723C5.55002 41.9397 5.56807 42.1534 5.59214 42.3671C5.60418 42.4845 5.62223 42.6019 5.63727 42.7193C5.66435 42.9179 5.69143 43.1136 5.72151 43.3093C5.74258 43.4297 5.76364 43.547 5.7847 43.6644C5.8208 43.8571 5.85991 44.0497 5.90203 44.2423C5.9261 44.3567 5.95318 44.4681 5.98026 44.5795C6.0284 44.7811 6.08255 44.9798 6.13972 45.1754C6.16679 45.2748 6.19387 45.3741 6.22396 45.4734C6.29316 45.6992 6.36536 45.9219 6.44359 46.1417C6.46766 46.2079 6.48872 46.2771 6.51279 46.3463C6.7264 46.9393 6.9701 47.5172 7.24389 48.0771C7.25292 48.0951 7.26194 48.1132 7.27097 48.1313C7.39733 48.3901 7.53272 48.646 7.67112 48.8958C7.6982 48.944 7.72828 48.9921 7.75536 49.0403C7.88172 49.26 8.01109 49.4797 8.14648 49.6934C8.17958 49.7476 8.21568 49.7988 8.24878 49.853C8.38417 50.0637 8.52557 50.2714 8.66999 50.476C8.70308 50.5242 8.73618 50.5724 8.77228 50.6175C8.92572 50.8312 9.08518 51.0419 9.25066 51.2496C9.27473 51.2827 9.3018 51.3128 9.32587 51.3459C10.1141 52.3272 11.0047 53.2212 11.9855 54.0128C14.9761 56.4298 18.776 57.8806 22.9129 57.8806C27.0498 57.8806 30.8497 56.4298 33.8403 54.0128C34.8181 53.2212 35.7117 52.3272 36.5 51.3459C36.527 51.3128 36.5511 51.2827 36.5752 51.2496C36.7407 51.0419 36.8971 50.8312 37.0536 50.6175C37.0867 50.5694 37.1228 50.5212 37.1558 50.476C37.3003 50.2714 37.4387 50.0637 37.5741 49.853C37.6071 49.7988 37.6433 49.7476 37.6763 49.6934C37.8117 49.4797 37.9411 49.26 38.0675 49.0403C38.0945 48.9921 38.1246 48.944 38.1517 48.8958C38.2901 48.646 38.4255 48.3901 38.5519 48.1313C38.5609 48.1132 38.5699 48.0951 38.5789 48.0771C38.8527 47.5172 39.0964 46.9393 39.31 46.3463C39.3341 46.2771 39.3552 46.2109 39.3792 46.1417C39.4545 45.9219 39.5297 45.6992 39.5959 45.4734C39.6259 45.3741 39.653 45.2748 39.6801 45.1754C39.7373 44.9768 39.7884 44.7781 39.8366 44.5795C39.8636 44.4681 39.8907 44.3537 39.9148 44.2423C39.9569 44.0497 39.996 43.8571 40.0321 43.6644C40.0532 43.547 40.0772 43.4266 40.0953 43.3093C40.1284 43.1136 40.1555 42.9179 40.1825 42.7193C40.1976 42.6019 40.2156 42.4845 40.2277 42.3671C40.2517 42.1534 40.2668 41.9367 40.2848 41.723C40.2909 41.6206 40.3029 41.5183 40.3089 41.416C40.327 41.0969 40.336 40.7748 40.336 40.4528L40.336 9.1669C40.336 7.13816 38.6842 5.48568 36.6564 5.48568H36.6534ZM38.0855 24.7617H35.1641L35.1641 22.9557H38.0855V24.7617ZM38.0855 16.5083L35.1641 16.5083V14.7023L38.0855 14.7023V16.5083Z" fill="var(--fill-0, #FF63F6)"/>
<path d="M36.6534 5.48568C34.6256 5.48568 32.9738 7.13816 32.9738 9.1669V21.9353C32.9738 21.9353 32.9738 21.9413 32.9738 21.9473L32.9738 31.9525C32.9738 34.9776 30.5128 37.4398 27.4891 37.4398C27.3717 37.4398 27.2544 37.4337 27.1371 37.4277C27.101 37.4277 27.0679 37.4217 27.0348 37.4187C26.9505 37.4127 26.8663 37.4036 26.785 37.3916C26.7489 37.3856 26.7128 37.3826 26.6767 37.3766C26.5925 37.3645 26.5083 37.3495 26.427 37.3314C26.3969 37.3254 26.3668 37.3194 26.3398 37.3133C26.2375 37.2923 26.1382 37.2682 26.0389 37.2411C26.0299 37.2411 26.0209 37.2351 26.0118 37.2351C25.6658 37.1388 25.3319 37.0063 25.019 36.8438C25.013 36.8408 25.0069 36.8378 25.0009 36.8348C24.9016 36.7836 24.8023 36.7294 24.7061 36.6722C24.7031 36.6722 24.7001 36.6692 24.697 36.6662C24.2337 37.5421 23.5417 38.2796 22.6963 38.7943C24.1194 39.7966 25.0491 41.4521 25.0491 43.3183V47.3517H23.2439V43.3183C23.2439 41.2625 21.5741 39.5919 19.5192 39.5919H14.5068V37.7859H19.8471C19.9614 37.7859 20.0758 37.7799 20.1871 37.7678C20.2232 37.7648 20.2563 37.7588 20.2894 37.7558C20.3676 37.7468 20.4458 37.7347 20.5241 37.7197C20.5602 37.7137 20.5963 37.7046 20.6324 37.6986C20.7166 37.6806 20.7978 37.6595 20.8791 37.6354C20.9031 37.6294 20.9302 37.6234 20.9543 37.6143C21.0536 37.5842 21.1499 37.5481 21.2461 37.506C21.2852 37.4909 21.3213 37.4729 21.3605 37.4548C21.4176 37.4277 21.4778 37.4006 21.5319 37.3705C21.5771 37.3465 21.6192 37.3254 21.6613 37.3013C21.7095 37.2742 21.7576 37.2441 21.8027 37.214C21.8479 37.1869 21.89 37.1598 21.9351 37.1297C21.9742 37.1026 22.0133 37.0725 22.0524 37.0424C22.1397 36.9762 22.2239 36.907 22.3052 36.8348C22.3292 36.8107 22.3563 36.7896 22.3804 36.7655C22.4315 36.7174 22.4797 36.6692 22.5248 36.618C22.5429 36.597 22.5639 36.5759 22.582 36.5548C22.8076 36.302 22.9972 36.0221 23.1476 35.715C23.1536 35.703 23.1596 35.6879 23.1656 35.6759C23.2138 35.5736 23.2559 35.4682 23.295 35.3629C23.3101 35.3207 23.3251 35.2786 23.3371 35.2364C23.3612 35.1612 23.3823 35.0859 23.4033 35.0077C23.4154 34.9595 23.4274 34.9144 23.4364 34.8662C23.4545 34.7849 23.4665 34.7007 23.4785 34.6194C23.4846 34.5773 23.4936 34.5351 23.4966 34.493C23.5116 34.3666 23.5177 34.2371 23.5177 34.1077C23.5177 33.9482 23.5056 33.7916 23.4876 33.6381C23.4816 33.587 23.4665 33.5358 23.4575 33.4846C23.4394 33.3853 23.4244 33.286 23.3973 33.1866C23.3823 33.1264 23.3612 33.0693 23.3432 33.0091C23.3161 32.9248 23.289 32.8375 23.2559 32.7562C23.2318 32.696 23.2017 32.6358 23.1747 32.5786C23.1386 32.5034 23.1055 32.4251 23.0634 32.3529C23.0303 32.2927 22.9942 32.2385 22.9611 32.1813C22.9189 32.1121 22.8738 32.0428 22.8257 31.9766C22.7866 31.9224 22.7444 31.8683 22.7023 31.8171C22.6512 31.7539 22.6 31.6937 22.5459 31.6335C22.5007 31.5853 22.4556 31.5372 22.4075 31.489C22.3503 31.4318 22.2871 31.3776 22.2269 31.3235C22.1788 31.2813 22.1277 31.2392 22.0765 31.2C21.9772 31.1248 21.8779 31.0495 21.7726 30.9833C21.7666 30.9803 21.7576 30.9743 21.7516 30.9713C21.535 30.8388 21.3063 30.7275 21.0626 30.6432C21.0355 30.6342 21.0084 30.6221 20.9814 30.6131C20.9272 30.595 20.87 30.58 20.8129 30.5649C20.7587 30.5499 20.7046 30.5348 20.6504 30.5228C20.6023 30.5108 20.5541 30.5017 20.503 30.4927C20.4338 30.4807 20.3646 30.4686 20.2954 30.4596C20.2563 30.4536 20.2172 30.4475 20.1751 30.4445C20.0637 30.4355 19.9494 30.4265 19.8351 30.4265L9.16341 30.4265C7.13558 30.4265 5.48383 32.079 5.48383 34.1077L5.48383 40.4528C5.48383 40.7748 5.49286 41.0969 5.51091 41.416C5.51693 41.5183 5.52595 41.6206 5.53498 41.723C5.55002 41.9397 5.56807 42.1534 5.59214 42.3671C5.60418 42.4845 5.62223 42.6019 5.63727 42.7193C5.66435 42.9179 5.69143 43.1136 5.72151 43.3093C5.74258 43.4297 5.76364 43.547 5.7847 43.6644C5.8208 43.8571 5.85991 44.0497 5.90203 44.2423C5.9261 44.3567 5.95318 44.4681 5.98026 44.5795C6.0284 44.7811 6.08255 44.9798 6.13972 45.1754C6.16679 45.2748 6.19387 45.3741 6.22396 45.4734C6.29316 45.6992 6.36536 45.9219 6.44359 46.1417C6.46766 46.2079 6.48872 46.2771 6.51279 46.3463C6.7264 46.9393 6.9701 47.5172 7.24389 48.0771C7.25292 48.0951 7.26194 48.1132 7.27097 48.1313C7.39733 48.3901 7.53272 48.646 7.67112 48.8958C7.6982 48.944 7.72828 48.9921 7.75536 49.0403C7.88172 49.26 8.01109 49.4797 8.14648 49.6934C8.17958 49.7476 8.21568 49.7988 8.24878 49.853C8.38417 50.0637 8.52557 50.2714 8.66999 50.476C8.70308 50.5242 8.73618 50.5724 8.77228 50.6175C8.92572 50.8312 9.08518 51.0419 9.25066 51.2496C9.27473 51.2827 9.3018 51.3128 9.32587 51.3459C10.1141 52.3272 11.0047 53.2212 11.9855 54.0128C14.9761 56.4298 18.776 57.8806 22.9129 57.8806C27.0498 57.8806 30.8497 56.4298 33.8403 54.0128C34.8181 53.2212 35.7117 52.3272 36.5 51.3459C36.527 51.3128 36.5511 51.2827 36.5752 51.2496C36.7407 51.0419 36.8971 50.8312 37.0536 50.6175C37.0867 50.5694 37.1228 50.5212 37.1558 50.476C37.3003 50.2714 37.4387 50.0637 37.5741 49.853C37.6071 49.7988 37.6433 49.7476 37.6763 49.6934C37.8117 49.4797 37.9411 49.26 38.0675 49.0403C38.0945 48.9921 38.1246 48.944 38.1517 48.8958C38.2901 48.646 38.4255 48.3901 38.5519 48.1313C38.5609 48.1132 38.5699 48.0951 38.5789 48.0771C38.8527 47.5172 39.0964 46.9393 39.31 46.3463C39.3341 46.2771 39.3552 46.2109 39.3792 46.1417C39.4545 45.9219 39.5297 45.6992 39.5959 45.4734C39.6259 45.3741 39.653 45.2748 39.6801 45.1754C39.7373 44.9768 39.7884 44.7781 39.8366 44.5795C39.8636 44.4681 39.8907 44.3537 39.9148 44.2423C39.9569 44.0497 39.996 43.8571 40.0321 43.6644C40.0532 43.547 40.0772 43.4266 40.0953 43.3093C40.1284 43.1136 40.1555 42.9179 40.1825 42.7193C40.1976 42.6019 40.2156 42.4845 40.2277 42.3671C40.2517 42.1534 40.2668 41.9367 40.2848 41.723C40.2909 41.6206 40.3029 41.5183 40.3089 41.416C40.327 41.0969 40.336 40.7748 40.336 40.4528L40.336 9.1669C40.336 7.13816 38.6842 5.48568 36.6564 5.48568H36.6534ZM38.0855 24.7617H35.1641L35.1641 22.9557H38.0855V24.7617ZM38.0855 16.5083L35.1641 16.5083V14.7023L38.0855 14.7023V16.5083Z" stroke="var(--stroke-0, white)" stroke-width="7.35706" mask="url(#path-2-outside-1_125_31361)"/>
</g>
<path id="Vector_3" d="M35.6737 61.0179C35.6735 63.675 33.7399 65.7249 31.5038 67.0013C29.1967 68.3181 26.1417 69.093 22.9071 69.0931C19.6723 69.0931 16.6167 68.3182 14.3094 67.0013C12.0733 65.7249 10.1406 63.675 10.1405 61.0179L10.1405 52.7601L13.0262 54.7591C15.8394 56.7071 19.238 57.8509 22.9071 57.8509C26.5773 57.8508 29.9771 56.709 32.785 54.7601L35.6737 52.7552V61.0179Z" fill="var(--fill-0, #FF63F6)" stroke="var(--stroke-0, white)" stroke-width="3.67853"/>
<path id="Vector_4" d="M18.3278 16.4281C21.3721 16.4281 23.8463 18.9048 23.8463 21.9486L23.8463 31.8597L21.2809 30.7562C20.8377 30.5656 20.3561 30.4603 19.8473 30.4603H12.8092L12.8092 21.9486C12.8092 18.9048 15.2834 16.4281 18.3278 16.4281Z" fill="var(--fill-0, #FF63F6)" stroke="var(--stroke-0, white)" stroke-width="3.67853"/>
<path id="Vector_5" d="M9.15766 3.64681C10.5932 3.64688 11.948 4.22209 12.9711 5.22786H12.9721C14.0538 6.29234 14.6821 7.7617 14.6821 9.28743L14.6821 30.4593H9.16352C8.22899 30.4593 7.37584 30.8172 6.72016 31.4124L3.64496 34.2044L3.64496 9.16732C3.64496 6.17577 6.06288 3.70121 9.05805 3.64681H9.15766Z" fill="var(--fill-0, #FF63F6)" stroke="var(--stroke-0, white)" stroke-width="3.67853"/>
</g>
<g id="Group_4">
<path id="Vector_6" d="M12.3717 12.8626V18.347H5.77211L5.77211 12.8626H12.3717Z" fill="var(--fill-0, #0B2595)" stroke="var(--stroke-0, white)" stroke-width="3.67853"/>
<path id="Vector_7" d="M12.3717 21.1171V26.6015H5.77213L5.77213 21.1171H12.3717Z" fill="var(--fill-0, #0B2595)" stroke="var(--stroke-0, white)" stroke-width="3.67853"/>
<path id="Vector_8" d="M39.9251 12.8626V18.347H33.3255V12.8626H39.9251Z" fill="var(--fill-0, #0B2595)" stroke="var(--stroke-0, white)" stroke-width="3.67853"/>
<path id="Vector_9" d="M39.9251 21.1171V26.6015H33.3255V21.1171H39.9251Z" fill="var(--fill-0, #0B2595)" stroke="var(--stroke-0, white)" stroke-width="3.67853"/>
<g id="Vector_10">
<mask id="path-10-outside-2_125_31361" maskUnits="userSpaceOnUse" x="-0.321457" y="-0.32147" width="47" height="74" fill="black">
<rect fill="white" x="-0.321457" y="-0.32147" width="47" height="74"/>
<path d="M36.6533 3.67928C33.6296 3.67928 31.1685 6.14145 31.1685 9.1665L31.1685 17.8684C30.1937 16.9865 28.903 16.4477 27.489 16.4477C25.5755 16.4477 23.8876 17.4319 22.9068 18.9219C21.926 17.4319 20.2381 16.4477 18.3246 16.4477C16.9106 16.4477 15.6199 16.9865 14.6451 17.8684L14.6451 9.2869C14.6451 7.7819 14.0253 6.31302 12.9452 5.2505C11.8891 4.21205 10.4991 3.6552 9.058 3.67928C6.09148 3.73647 3.67854 6.19563 3.67854 9.1665L3.67854 40.4494C3.67854 46.1774 6.19678 51.3245 10.1772 54.8522L10.1772 61.0166C10.1772 65.5256 15.7703 69.0593 22.9098 69.0593C30.0493 69.0593 35.6424 65.5256 35.6424 61.0166V54.8522C39.6228 51.3245 42.1411 46.1774 42.1411 40.4524L42.1411 9.1665C42.1411 6.14145 39.68 3.67928 36.6563 3.67928H36.6533ZM23.8124 21.9469C23.8124 19.9182 25.4641 18.2657 27.492 18.2657C29.5198 18.2657 31.1715 19.9182 31.1715 21.9469V31.9521C31.1715 33.9809 29.5198 35.6334 27.492 35.6334C26.6586 35.6334 25.8944 35.3534 25.2746 34.8839C25.3107 34.631 25.3318 34.3722 25.3318 34.1073C25.3318 32.6414 24.7511 31.311 23.8124 30.3267V21.9469ZM14.6481 21.9469C14.6481 19.9182 16.2998 18.2657 18.3276 18.2657C20.3555 18.2657 22.0072 19.9182 22.0072 21.9469V29.0656C21.3453 28.7796 20.6142 28.6201 19.847 28.6201L14.6481 28.6201V21.9469ZM5.48373 9.1665C5.48373 7.17388 7.10238 5.52441 9.0911 5.48528C9.11216 5.48528 9.13623 5.48528 9.15729 5.48528C10.093 5.48528 10.9865 5.85851 11.6815 6.53877C12.4187 7.26418 12.8429 8.2635 12.8429 9.2869L12.8429 21.9349C12.8429 21.9349 12.8429 21.9409 12.8429 21.9469V28.6201H9.1633C7.74623 28.6201 6.45853 29.1649 5.48373 30.0498L5.48373 9.1665ZM33.8342 61.0166C33.8342 64.3969 28.8308 67.2533 22.9068 67.2533C16.9828 67.2533 11.9794 64.3969 11.9794 61.0166L11.9794 56.2699C15.0843 58.422 18.8481 59.6892 22.9068 59.6892C26.9655 59.6892 30.7293 58.422 33.8342 56.2699V61.0166ZM40.3329 40.4494C40.3329 50.0633 32.5164 57.8832 22.9068 57.8832C13.2972 57.8832 5.48373 50.0633 5.48373 40.4494L5.48373 34.1043C5.48373 32.0756 7.13548 30.4231 9.1633 30.4231L19.847 30.4231C19.9613 30.4231 20.0757 30.4291 20.187 30.4411C20.2261 30.4441 20.2652 30.4502 20.3073 30.4562C20.3765 30.4652 20.4457 30.4742 20.5149 30.4893C20.5631 30.4983 20.6142 30.5073 20.6623 30.5194C20.7165 30.5314 20.7707 30.5465 20.8248 30.5615C20.882 30.5766 20.9361 30.5916 20.9933 30.6097C21.0204 30.6187 21.0475 30.6308 21.0745 30.6398C21.3152 30.7271 21.5469 30.8354 21.7635 30.9679C21.7695 30.9709 21.7786 30.9769 21.7846 30.9799C22.8316 31.6301 23.5296 32.7859 23.5296 34.1043C23.5296 34.6672 23.4002 35.1969 23.1716 35.6755C23.1655 35.6875 23.1595 35.7026 23.1535 35.7146C23.0031 36.0217 22.8135 36.3046 22.5879 36.5544C22.5698 36.5755 22.5488 36.5966 22.5307 36.6176C22.4826 36.6688 22.4344 36.717 22.3863 36.7651C22.3622 36.7892 22.3352 36.8103 22.3111 36.8344C22.2299 36.9066 22.1456 36.9758 22.0584 37.042C22.0192 37.0721 21.9801 37.1022 21.941 37.1293C21.8989 37.1594 21.8538 37.1865 21.8086 37.2136C21.7605 37.2437 21.7154 37.2738 21.6672 37.3009C21.6251 37.325 21.58 37.3491 21.5379 37.3701C21.4807 37.4002 21.4235 37.4273 21.3664 37.4544C21.3273 37.4725 21.2912 37.4905 21.252 37.5056C21.1558 37.5447 21.0595 37.5808 20.9602 37.6139C20.9361 37.623 20.9091 37.629 20.885 37.635C20.8038 37.6591 20.7225 37.6802 20.6383 37.6982C20.6022 37.7072 20.5661 37.7133 20.53 37.7193C20.4517 37.7343 20.3735 37.7464 20.2953 37.7554C20.2622 37.7584 20.2261 37.7644 20.193 37.7674C20.0817 37.7765 19.9674 37.7855 19.853 37.7855H14.5127V39.5915H19.5251C21.58 39.5915 23.2498 41.2621 23.2498 43.3179V47.3513H25.055V43.3179C25.055 41.4487 24.1253 39.7932 22.7022 38.7939C23.5446 38.2791 24.2396 37.5417 24.703 36.6658C25.5213 37.1564 26.4781 37.4394 27.501 37.4394C30.5247 37.4394 32.9858 34.9772 32.9858 31.9521V21.9469C32.9858 21.9469 32.9858 21.9409 32.9858 21.9349V9.1665C32.9858 7.13776 34.6375 5.48528 36.6653 5.48528C38.6932 5.48528 40.3449 7.13776 40.3449 9.1665L40.3449 40.4494H40.3329Z"/>
</mask>
<path d="M36.6533 3.67928C33.6296 3.67928 31.1685 6.14145 31.1685 9.1665L31.1685 17.8684C30.1937 16.9865 28.903 16.4477 27.489 16.4477C25.5755 16.4477 23.8876 17.4319 22.9068 18.9219C21.926 17.4319 20.2381 16.4477 18.3246 16.4477C16.9106 16.4477 15.6199 16.9865 14.6451 17.8684L14.6451 9.2869C14.6451 7.7819 14.0253 6.31302 12.9452 5.2505C11.8891 4.21205 10.4991 3.6552 9.058 3.67928C6.09148 3.73647 3.67854 6.19563 3.67854 9.1665L3.67854 40.4494C3.67854 46.1774 6.19678 51.3245 10.1772 54.8522L10.1772 61.0166C10.1772 65.5256 15.7703 69.0593 22.9098 69.0593C30.0493 69.0593 35.6424 65.5256 35.6424 61.0166V54.8522C39.6228 51.3245 42.1411 46.1774 42.1411 40.4524L42.1411 9.1665C42.1411 6.14145 39.68 3.67928 36.6563 3.67928H36.6533ZM23.8124 21.9469C23.8124 19.9182 25.4641 18.2657 27.492 18.2657C29.5198 18.2657 31.1715 19.9182 31.1715 21.9469V31.9521C31.1715 33.9809 29.5198 35.6334 27.492 35.6334C26.6586 35.6334 25.8944 35.3534 25.2746 34.8839C25.3107 34.631 25.3318 34.3722 25.3318 34.1073C25.3318 32.6414 24.7511 31.311 23.8124 30.3267V21.9469ZM14.6481 21.9469C14.6481 19.9182 16.2998 18.2657 18.3276 18.2657C20.3555 18.2657 22.0072 19.9182 22.0072 21.9469V29.0656C21.3453 28.7796 20.6142 28.6201 19.847 28.6201L14.6481 28.6201V21.9469ZM5.48373 9.1665C5.48373 7.17388 7.10238 5.52441 9.0911 5.48528C9.11216 5.48528 9.13623 5.48528 9.15729 5.48528C10.093 5.48528 10.9865 5.85851 11.6815 6.53877C12.4187 7.26418 12.8429 8.2635 12.8429 9.2869L12.8429 21.9349C12.8429 21.9349 12.8429 21.9409 12.8429 21.9469V28.6201H9.1633C7.74623 28.6201 6.45853 29.1649 5.48373 30.0498L5.48373 9.1665ZM33.8342 61.0166C33.8342 64.3969 28.8308 67.2533 22.9068 67.2533C16.9828 67.2533 11.9794 64.3969 11.9794 61.0166L11.9794 56.2699C15.0843 58.422 18.8481 59.6892 22.9068 59.6892C26.9655 59.6892 30.7293 58.422 33.8342 56.2699V61.0166ZM40.3329 40.4494C40.3329 50.0633 32.5164 57.8832 22.9068 57.8832C13.2972 57.8832 5.48373 50.0633 5.48373 40.4494L5.48373 34.1043C5.48373 32.0756 7.13548 30.4231 9.1633 30.4231L19.847 30.4231C19.9613 30.4231 20.0757 30.4291 20.187 30.4411C20.2261 30.4441 20.2652 30.4502 20.3073 30.4562C20.3765 30.4652 20.4457 30.4742 20.5149 30.4893C20.5631 30.4983 20.6142 30.5073 20.6623 30.5194C20.7165 30.5314 20.7707 30.5465 20.8248 30.5615C20.882 30.5766 20.9361 30.5916 20.9933 30.6097C21.0204 30.6187 21.0475 30.6308 21.0745 30.6398C21.3152 30.7271 21.5469 30.8354 21.7635 30.9679C21.7695 30.9709 21.7786 30.9769 21.7846 30.9799C22.8316 31.6301 23.5296 32.7859 23.5296 34.1043C23.5296 34.6672 23.4002 35.1969 23.1716 35.6755C23.1655 35.6875 23.1595 35.7026 23.1535 35.7146C23.0031 36.0217 22.8135 36.3046 22.5879 36.5544C22.5698 36.5755 22.5488 36.5966 22.5307 36.6176C22.4826 36.6688 22.4344 36.717 22.3863 36.7651C22.3622 36.7892 22.3352 36.8103 22.3111 36.8344C22.2299 36.9066 22.1456 36.9758 22.0584 37.042C22.0192 37.0721 21.9801 37.1022 21.941 37.1293C21.8989 37.1594 21.8538 37.1865 21.8086 37.2136C21.7605 37.2437 21.7154 37.2738 21.6672 37.3009C21.6251 37.325 21.58 37.3491 21.5379 37.3701C21.4807 37.4002 21.4235 37.4273 21.3664 37.4544C21.3273 37.4725 21.2912 37.4905 21.252 37.5056C21.1558 37.5447 21.0595 37.5808 20.9602 37.6139C20.9361 37.623 20.9091 37.629 20.885 37.635C20.8038 37.6591 20.7225 37.6802 20.6383 37.6982C20.6022 37.7072 20.5661 37.7133 20.53 37.7193C20.4517 37.7343 20.3735 37.7464 20.2953 37.7554C20.2622 37.7584 20.2261 37.7644 20.193 37.7674C20.0817 37.7765 19.9674 37.7855 19.853 37.7855H14.5127V39.5915H19.5251C21.58 39.5915 23.2498 41.2621 23.2498 43.3179V47.3513H25.055V43.3179C25.055 41.4487 24.1253 39.7932 22.7022 38.7939C23.5446 38.2791 24.2396 37.5417 24.703 36.6658C25.5213 37.1564 26.4781 37.4394 27.501 37.4394C30.5247 37.4394 32.9858 34.9772 32.9858 31.9521V21.9469C32.9858 21.9469 32.9858 21.9409 32.9858 21.9349V9.1665C32.9858 7.13776 34.6375 5.48528 36.6653 5.48528C38.6932 5.48528 40.3449 7.13776 40.3449 9.1665L40.3449 40.4494H40.3329Z" fill="var(--fill-0, #0B2595)"/>
<path d="M36.6533 3.67928C33.6296 3.67928 31.1685 6.14145 31.1685 9.1665L31.1685 17.8684C30.1937 16.9865 28.903 16.4477 27.489 16.4477C25.5755 16.4477 23.8876 17.4319 22.9068 18.9219C21.926 17.4319 20.2381 16.4477 18.3246 16.4477C16.9106 16.4477 15.6199 16.9865 14.6451 17.8684L14.6451 9.2869C14.6451 7.7819 14.0253 6.31302 12.9452 5.2505C11.8891 4.21205 10.4991 3.6552 9.058 3.67928C6.09148 3.73647 3.67854 6.19563 3.67854 9.1665L3.67854 40.4494C3.67854 46.1774 6.19678 51.3245 10.1772 54.8522L10.1772 61.0166C10.1772 65.5256 15.7703 69.0593 22.9098 69.0593C30.0493 69.0593 35.6424 65.5256 35.6424 61.0166V54.8522C39.6228 51.3245 42.1411 46.1774 42.1411 40.4524L42.1411 9.1665C42.1411 6.14145 39.68 3.67928 36.6563 3.67928H36.6533ZM23.8124 21.9469C23.8124 19.9182 25.4641 18.2657 27.492 18.2657C29.5198 18.2657 31.1715 19.9182 31.1715 21.9469V31.9521C31.1715 33.9809 29.5198 35.6334 27.492 35.6334C26.6586 35.6334 25.8944 35.3534 25.2746 34.8839C25.3107 34.631 25.3318 34.3722 25.3318 34.1073C25.3318 32.6414 24.7511 31.311 23.8124 30.3267V21.9469ZM14.6481 21.9469C14.6481 19.9182 16.2998 18.2657 18.3276 18.2657C20.3555 18.2657 22.0072 19.9182 22.0072 21.9469V29.0656C21.3453 28.7796 20.6142 28.6201 19.847 28.6201L14.6481 28.6201V21.9469ZM5.48373 9.1665C5.48373 7.17388 7.10238 5.52441 9.0911 5.48528C9.11216 5.48528 9.13623 5.48528 9.15729 5.48528C10.093 5.48528 10.9865 5.85851 11.6815 6.53877C12.4187 7.26418 12.8429 8.2635 12.8429 9.2869L12.8429 21.9349C12.8429 21.9349 12.8429 21.9409 12.8429 21.9469V28.6201H9.1633C7.74623 28.6201 6.45853 29.1649 5.48373 30.0498L5.48373 9.1665ZM33.8342 61.0166C33.8342 64.3969 28.8308 67.2533 22.9068 67.2533C16.9828 67.2533 11.9794 64.3969 11.9794 61.0166L11.9794 56.2699C15.0843 58.422 18.8481 59.6892 22.9068 59.6892C26.9655 59.6892 30.7293 58.422 33.8342 56.2699V61.0166ZM40.3329 40.4494C40.3329 50.0633 32.5164 57.8832 22.9068 57.8832C13.2972 57.8832 5.48373 50.0633 5.48373 40.4494L5.48373 34.1043C5.48373 32.0756 7.13548 30.4231 9.1633 30.4231L19.847 30.4231C19.9613 30.4231 20.0757 30.4291 20.187 30.4411C20.2261 30.4441 20.2652 30.4502 20.3073 30.4562C20.3765 30.4652 20.4457 30.4742 20.5149 30.4893C20.5631 30.4983 20.6142 30.5073 20.6623 30.5194C20.7165 30.5314 20.7707 30.5465 20.8248 30.5615C20.882 30.5766 20.9361 30.5916 20.9933 30.6097C21.0204 30.6187 21.0475 30.6308 21.0745 30.6398C21.3152 30.7271 21.5469 30.8354 21.7635 30.9679C21.7695 30.9709 21.7786 30.9769 21.7846 30.9799C22.8316 31.6301 23.5296 32.7859 23.5296 34.1043C23.5296 34.6672 23.4002 35.1969 23.1716 35.6755C23.1655 35.6875 23.1595 35.7026 23.1535 35.7146C23.0031 36.0217 22.8135 36.3046 22.5879 36.5544C22.5698 36.5755 22.5488 36.5966 22.5307 36.6176C22.4826 36.6688 22.4344 36.717 22.3863 36.7651C22.3622 36.7892 22.3352 36.8103 22.3111 36.8344C22.2299 36.9066 22.1456 36.9758 22.0584 37.042C22.0192 37.0721 21.9801 37.1022 21.941 37.1293C21.8989 37.1594 21.8538 37.1865 21.8086 37.2136C21.7605 37.2437 21.7154 37.2738 21.6672 37.3009C21.6251 37.325 21.58 37.3491 21.5379 37.3701C21.4807 37.4002 21.4235 37.4273 21.3664 37.4544C21.3273 37.4725 21.2912 37.4905 21.252 37.5056C21.1558 37.5447 21.0595 37.5808 20.9602 37.6139C20.9361 37.623 20.9091 37.629 20.885 37.635C20.8038 37.6591 20.7225 37.6802 20.6383 37.6982C20.6022 37.7072 20.5661 37.7133 20.53 37.7193C20.4517 37.7343 20.3735 37.7464 20.2953 37.7554C20.2622 37.7584 20.2261 37.7644 20.193 37.7674C20.0817 37.7765 19.9674 37.7855 19.853 37.7855H14.5127V39.5915H19.5251C21.58 39.5915 23.2498 41.2621 23.2498 43.3179V47.3513H25.055V43.3179C25.055 41.4487 24.1253 39.7932 22.7022 38.7939C23.5446 38.2791 24.2396 37.5417 24.703 36.6658C25.5213 37.1564 26.4781 37.4394 27.501 37.4394C30.5247 37.4394 32.9858 34.9772 32.9858 31.9521V21.9469C32.9858 21.9469 32.9858 21.9409 32.9858 21.9349V9.1665C32.9858 7.13776 34.6375 5.48528 36.6653 5.48528C38.6932 5.48528 40.3449 7.13776 40.3449 9.1665L40.3449 40.4494H40.3329Z" stroke="var(--stroke-0, white)" stroke-width="7.35706" mask="url(#path-10-outside-2_125_31361)"/>
</g>
</g>
</g>
<path id="Vector_11" d="M8.6589 40.203C10.4614 39.7949 12.2499 40.9276 12.6569 42.7283C13.4246 46.1254 15.821 48.9111 19.0788 50.1795C20.7959 50.8479 21.652 52.7838 20.9831 54.5057L20.9841 54.5067C20.4687 55.8324 19.2033 56.6403 17.8679 56.6405H17.864C17.4618 56.6404 17.0478 56.5667 16.6511 56.4119V56.411C11.3237 54.3351 7.38956 49.7708 6.13253 44.201L6.13351 44.2C5.72674 42.3989 6.8574 40.6092 8.6589 40.202V40.203Z" fill="var(--fill-0, white)" stroke="var(--stroke-0, white)" stroke-width="3.67853"/>
<g id="Group_5">
<path id="Vector_12" d="M12.3717 12.8626V18.347H5.7721L5.7721 12.8626H12.3717Z" fill="var(--fill-0, #0B2595)" stroke="var(--stroke-0, white)" stroke-width="3.67853"/>
<path id="Vector_13" d="M12.3717 21.1171V26.6015H5.77212L5.77212 21.1171H12.3717Z" fill="var(--fill-0, #0B2595)" stroke="var(--stroke-0, white)" stroke-width="3.67853"/>
<path id="Vector_14" d="M39.9251 12.8626V18.347H33.3255V12.8626H39.9251Z" fill="var(--fill-0, #0B2595)" stroke="var(--stroke-0, white)" stroke-width="3.67853"/>
<path id="Vector_15" d="M39.925 21.1172V26.6015H33.3254V21.1172H39.925Z" fill="var(--fill-0, #0B2595)" stroke="var(--stroke-0, white)" stroke-width="3.67853"/>
<g id="Vector_16">
<mask id="path-16-outside-3_125_31361" maskUnits="userSpaceOnUse" x="-0.321472" y="-0.32147" width="47" height="74" fill="black">
<rect fill="white" x="-0.321472" y="-0.32147" width="47" height="74"/>
<path d="M36.6533 3.67928C33.6296 3.67928 31.1685 6.14145 31.1685 9.1665L31.1685 17.8684C30.1937 16.9865 28.903 16.4477 27.489 16.4477C25.5755 16.4477 23.8876 17.4319 22.9068 18.9219C21.926 17.4319 20.2381 16.4477 18.3246 16.4477C16.9106 16.4477 15.6198 16.9865 14.645 17.8684L14.645 9.2869C14.645 7.7819 14.0253 6.31302 12.9452 5.2505C11.8891 4.21205 10.4991 3.6552 9.05799 3.67928C6.09146 3.73647 3.67853 6.19563 3.67853 9.1665L3.67853 40.4494C3.67853 46.1774 6.19676 51.3245 10.1772 54.8522L10.1772 61.0166C10.1772 65.5256 15.7703 69.0593 22.9098 69.0593C30.0493 69.0593 35.6424 65.5256 35.6424 61.0166V54.8522C39.6228 51.3245 42.1411 46.1774 42.1411 40.4524L42.1411 9.1665C42.1411 6.14145 39.68 3.67928 36.6563 3.67928H36.6533ZM23.8124 21.9469C23.8124 19.9182 25.4641 18.2657 27.492 18.2657C29.5198 18.2657 31.1715 19.9182 31.1715 21.9469V31.9521C31.1715 33.9809 29.5198 35.6334 27.492 35.6334C26.6586 35.6334 25.8944 35.3534 25.2746 34.8839C25.3107 34.631 25.3318 34.3722 25.3318 34.1073C25.3318 32.6414 24.7511 31.311 23.8124 30.3267V21.9469ZM14.6481 21.9469C14.6481 19.9182 16.2998 18.2657 18.3276 18.2657C20.3555 18.2657 22.0072 19.9182 22.0072 21.9469V29.0656C21.3453 28.7796 20.6142 28.6201 19.847 28.6201L14.6481 28.6201V21.9469ZM5.48372 9.1665C5.48372 7.17388 7.10237 5.52441 9.09108 5.48528C9.11214 5.48528 9.13621 5.48528 9.15727 5.48528C10.093 5.48528 10.9865 5.85851 11.6815 6.53877C12.4186 7.26418 12.8429 8.2635 12.8429 9.2869L12.8429 21.9349C12.8429 21.9349 12.8429 21.9409 12.8429 21.9469V28.6201H9.16329C7.74622 28.6201 6.45852 29.1649 5.48372 30.0498L5.48372 9.1665ZM33.8342 61.0166C33.8342 64.3969 28.8308 67.2533 22.9068 67.2533C16.9828 67.2533 11.9794 64.3969 11.9794 61.0166L11.9794 56.2699C15.0843 58.422 18.8481 59.6892 22.9068 59.6892C26.9654 59.6892 30.7293 58.422 33.8342 56.2699V61.0166ZM40.3329 40.4494C40.3329 50.0633 32.5164 57.8832 22.9068 57.8832C13.2972 57.8832 5.48372 50.0633 5.48372 40.4494L5.48372 34.1043C5.48372 32.0756 7.13546 30.4231 9.16329 30.4231L19.847 30.4231C19.9613 30.4231 20.0756 30.4291 20.187 30.4411C20.2261 30.4441 20.2652 30.4502 20.3073 30.4562C20.3765 30.4652 20.4457 30.4742 20.5149 30.4893C20.563 30.4983 20.6142 30.5073 20.6623 30.5194C20.7165 30.5314 20.7706 30.5465 20.8248 30.5615C20.882 30.5766 20.9361 30.5916 20.9933 30.6097C21.0204 30.6187 21.0474 30.6308 21.0745 30.6398C21.3152 30.7271 21.5469 30.8354 21.7635 30.9679C21.7695 30.9709 21.7785 30.9769 21.7846 30.9799C22.8316 31.6301 23.5296 32.7859 23.5296 34.1043C23.5296 34.6672 23.4002 35.1969 23.1715 35.6755C23.1655 35.6875 23.1595 35.7026 23.1535 35.7146C23.0031 36.0217 22.8135 36.3046 22.5879 36.5544C22.5698 36.5755 22.5488 36.5966 22.5307 36.6176C22.4826 36.6688 22.4344 36.717 22.3863 36.7651C22.3622 36.7892 22.3351 36.8103 22.3111 36.8344C22.2298 36.9066 22.1456 36.9758 22.0583 37.042C22.0192 37.0721 21.9801 37.1022 21.941 37.1293C21.8989 37.1594 21.8538 37.1865 21.8086 37.2136C21.7605 37.2437 21.7154 37.2738 21.6672 37.3009C21.6251 37.325 21.58 37.3491 21.5378 37.3701C21.4807 37.4002 21.4235 37.4273 21.3664 37.4544C21.3272 37.4725 21.2911 37.4905 21.252 37.5056C21.1558 37.5447 21.0595 37.5808 20.9602 37.6139C20.9361 37.623 20.909 37.629 20.885 37.635C20.8037 37.6591 20.7225 37.6802 20.6383 37.6982C20.6022 37.7072 20.5661 37.7133 20.53 37.7193C20.4517 37.7343 20.3735 37.7464 20.2953 37.7554C20.2622 37.7584 20.2261 37.7644 20.193 37.7674C20.0817 37.7765 19.9673 37.7855 19.853 37.7855H14.5127V39.5915H19.5251C21.58 39.5915 23.2498 41.2621 23.2498 43.3179V47.3513H25.055V43.3179C25.055 41.4487 24.1253 39.7932 22.7022 38.7939C23.5446 38.2791 24.2396 37.5417 24.7029 36.6658C25.5213 37.1564 26.478 37.4394 27.501 37.4394C30.5247 37.4394 32.9857 34.9772 32.9857 31.9521V21.9469C32.9857 21.9469 32.9857 21.9409 32.9857 21.9349V9.1665C32.9857 7.13776 34.6375 5.48528 36.6653 5.48528C38.6931 5.48528 40.3449 7.13776 40.3449 9.1665L40.3449 40.4494H40.3329Z"/>
</mask>
<path d="M36.6533 3.67928C33.6296 3.67928 31.1685 6.14145 31.1685 9.1665L31.1685 17.8684C30.1937 16.9865 28.903 16.4477 27.489 16.4477C25.5755 16.4477 23.8876 17.4319 22.9068 18.9219C21.926 17.4319 20.2381 16.4477 18.3246 16.4477C16.9106 16.4477 15.6198 16.9865 14.645 17.8684L14.645 9.2869C14.645 7.7819 14.0253 6.31302 12.9452 5.2505C11.8891 4.21205 10.4991 3.6552 9.05799 3.67928C6.09146 3.73647 3.67853 6.19563 3.67853 9.1665L3.67853 40.4494C3.67853 46.1774 6.19676 51.3245 10.1772 54.8522L10.1772 61.0166C10.1772 65.5256 15.7703 69.0593 22.9098 69.0593C30.0493 69.0593 35.6424 65.5256 35.6424 61.0166V54.8522C39.6228 51.3245 42.1411 46.1774 42.1411 40.4524L42.1411 9.1665C42.1411 6.14145 39.68 3.67928 36.6563 3.67928H36.6533ZM23.8124 21.9469C23.8124 19.9182 25.4641 18.2657 27.492 18.2657C29.5198 18.2657 31.1715 19.9182 31.1715 21.9469V31.9521C31.1715 33.9809 29.5198 35.6334 27.492 35.6334C26.6586 35.6334 25.8944 35.3534 25.2746 34.8839C25.3107 34.631 25.3318 34.3722 25.3318 34.1073C25.3318 32.6414 24.7511 31.311 23.8124 30.3267V21.9469ZM14.6481 21.9469C14.6481 19.9182 16.2998 18.2657 18.3276 18.2657C20.3555 18.2657 22.0072 19.9182 22.0072 21.9469V29.0656C21.3453 28.7796 20.6142 28.6201 19.847 28.6201L14.6481 28.6201V21.9469ZM5.48372 9.1665C5.48372 7.17388 7.10237 5.52441 9.09108 5.48528C9.11214 5.48528 9.13621 5.48528 9.15727 5.48528C10.093 5.48528 10.9865 5.85851 11.6815 6.53877C12.4186 7.26418 12.8429 8.2635 12.8429 9.2869L12.8429 21.9349C12.8429 21.9349 12.8429 21.9409 12.8429 21.9469V28.6201H9.16329C7.74622 28.6201 6.45852 29.1649 5.48372 30.0498L5.48372 9.1665ZM33.8342 61.0166C33.8342 64.3969 28.8308 67.2533 22.9068 67.2533C16.9828 67.2533 11.9794 64.3969 11.9794 61.0166L11.9794 56.2699C15.0843 58.422 18.8481 59.6892 22.9068 59.6892C26.9654 59.6892 30.7293 58.422 33.8342 56.2699V61.0166ZM40.3329 40.4494C40.3329 50.0633 32.5164 57.8832 22.9068 57.8832C13.2972 57.8832 5.48372 50.0633 5.48372 40.4494L5.48372 34.1043C5.48372 32.0756 7.13546 30.4231 9.16329 30.4231L19.847 30.4231C19.9613 30.4231 20.0756 30.4291 20.187 30.4411C20.2261 30.4441 20.2652 30.4502 20.3073 30.4562C20.3765 30.4652 20.4457 30.4742 20.5149 30.4893C20.563 30.4983 20.6142 30.5073 20.6623 30.5194C20.7165 30.5314 20.7706 30.5465 20.8248 30.5615C20.882 30.5766 20.9361 30.5916 20.9933 30.6097C21.0204 30.6187 21.0474 30.6308 21.0745 30.6398C21.3152 30.7271 21.5469 30.8354 21.7635 30.9679C21.7695 30.9709 21.7785 30.9769 21.7846 30.9799C22.8316 31.6301 23.5296 32.7859 23.5296 34.1043C23.5296 34.6672 23.4002 35.1969 23.1715 35.6755C23.1655 35.6875 23.1595 35.7026 23.1535 35.7146C23.0031 36.0217 22.8135 36.3046 22.5879 36.5544C22.5698 36.5755 22.5488 36.5966 22.5307 36.6176C22.4826 36.6688 22.4344 36.717 22.3863 36.7651C22.3622 36.7892 22.3351 36.8103 22.3111 36.8344C22.2298 36.9066 22.1456 36.9758 22.0583 37.042C22.0192 37.0721 21.9801 37.1022 21.941 37.1293C21.8989 37.1594 21.8538 37.1865 21.8086 37.2136C21.7605 37.2437 21.7154 37.2738 21.6672 37.3009C21.6251 37.325 21.58 37.3491 21.5378 37.3701C21.4807 37.4002 21.4235 37.4273 21.3664 37.4544C21.3272 37.4725 21.2911 37.4905 21.252 37.5056C21.1558 37.5447 21.0595 37.5808 20.9602 37.6139C20.9361 37.623 20.909 37.629 20.885 37.635C20.8037 37.6591 20.7225 37.6802 20.6383 37.6982C20.6022 37.7072 20.5661 37.7133 20.53 37.7193C20.4517 37.7343 20.3735 37.7464 20.2953 37.7554C20.2622 37.7584 20.2261 37.7644 20.193 37.7674C20.0817 37.7765 19.9673 37.7855 19.853 37.7855H14.5127V39.5915H19.5251C21.58 39.5915 23.2498 41.2621 23.2498 43.3179V47.3513H25.055V43.3179C25.055 41.4487 24.1253 39.7932 22.7022 38.7939C23.5446 38.2791 24.2396 37.5417 24.7029 36.6658C25.5213 37.1564 26.478 37.4394 27.501 37.4394C30.5247 37.4394 32.9857 34.9772 32.9857 31.9521V21.9469C32.9857 21.9469 32.9857 21.9409 32.9857 21.9349V9.1665C32.9857 7.13776 34.6375 5.48528 36.6653 5.48528C38.6931 5.48528 40.3449 7.13776 40.3449 9.1665L40.3449 40.4494H40.3329Z" fill="var(--fill-0, #0B2595)"/>
<path d="M36.6533 3.67928C33.6296 3.67928 31.1685 6.14145 31.1685 9.1665L31.1685 17.8684C30.1937 16.9865 28.903 16.4477 27.489 16.4477C25.5755 16.4477 23.8876 17.4319 22.9068 18.9219C21.926 17.4319 20.2381 16.4477 18.3246 16.4477C16.9106 16.4477 15.6198 16.9865 14.645 17.8684L14.645 9.2869C14.645 7.7819 14.0253 6.31302 12.9452 5.2505C11.8891 4.21205 10.4991 3.6552 9.05799 3.67928C6.09146 3.73647 3.67853 6.19563 3.67853 9.1665L3.67853 40.4494C3.67853 46.1774 6.19676 51.3245 10.1772 54.8522L10.1772 61.0166C10.1772 65.5256 15.7703 69.0593 22.9098 69.0593C30.0493 69.0593 35.6424 65.5256 35.6424 61.0166V54.8522C39.6228 51.3245 42.1411 46.1774 42.1411 40.4524L42.1411 9.1665C42.1411 6.14145 39.68 3.67928 36.6563 3.67928H36.6533ZM23.8124 21.9469C23.8124 19.9182 25.4641 18.2657 27.492 18.2657C29.5198 18.2657 31.1715 19.9182 31.1715 21.9469V31.9521C31.1715 33.9809 29.5198 35.6334 27.492 35.6334C26.6586 35.6334 25.8944 35.3534 25.2746 34.8839C25.3107 34.631 25.3318 34.3722 25.3318 34.1073C25.3318 32.6414 24.7511 31.311 23.8124 30.3267V21.9469ZM14.6481 21.9469C14.6481 19.9182 16.2998 18.2657 18.3276 18.2657C20.3555 18.2657 22.0072 19.9182 22.0072 21.9469V29.0656C21.3453 28.7796 20.6142 28.6201 19.847 28.6201L14.6481 28.6201V21.9469ZM5.48372 9.1665C5.48372 7.17388 7.10237 5.52441 9.09108 5.48528C9.11214 5.48528 9.13621 5.48528 9.15727 5.48528C10.093 5.48528 10.9865 5.85851 11.6815 6.53877C12.4186 7.26418 12.8429 8.2635 12.8429 9.2869L12.8429 21.9349C12.8429 21.9349 12.8429 21.9409 12.8429 21.9469V28.6201H9.16329C7.74622 28.6201 6.45852 29.1649 5.48372 30.0498L5.48372 9.1665ZM33.8342 61.0166C33.8342 64.3969 28.8308 67.2533 22.9068 67.2533C16.9828 67.2533 11.9794 64.3969 11.9794 61.0166L11.9794 56.2699C15.0843 58.422 18.8481 59.6892 22.9068 59.6892C26.9654 59.6892 30.7293 58.422 33.8342 56.2699V61.0166ZM40.3329 40.4494C40.3329 50.0633 32.5164 57.8832 22.9068 57.8832C13.2972 57.8832 5.48372 50.0633 5.48372 40.4494L5.48372 34.1043C5.48372 32.0756 7.13546 30.4231 9.16329 30.4231L19.847 30.4231C19.9613 30.4231 20.0756 30.4291 20.187 30.4411C20.2261 30.4441 20.2652 30.4502 20.3073 30.4562C20.3765 30.4652 20.4457 30.4742 20.5149 30.4893C20.563 30.4983 20.6142 30.5073 20.6623 30.5194C20.7165 30.5314 20.7706 30.5465 20.8248 30.5615C20.882 30.5766 20.9361 30.5916 20.9933 30.6097C21.0204 30.6187 21.0474 30.6308 21.0745 30.6398C21.3152 30.7271 21.5469 30.8354 21.7635 30.9679C21.7695 30.9709 21.7785 30.9769 21.7846 30.9799C22.8316 31.6301 23.5296 32.7859 23.5296 34.1043C23.5296 34.6672 23.4002 35.1969 23.1715 35.6755C23.1655 35.6875 23.1595 35.7026 23.1535 35.7146C23.0031 36.0217 22.8135 36.3046 22.5879 36.5544C22.5698 36.5755 22.5488 36.5966 22.5307 36.6176C22.4826 36.6688 22.4344 36.717 22.3863 36.7651C22.3622 36.7892 22.3351 36.8103 22.3111 36.8344C22.2298 36.9066 22.1456 36.9758 22.0583 37.042C22.0192 37.0721 21.9801 37.1022 21.941 37.1293C21.8989 37.1594 21.8538 37.1865 21.8086 37.2136C21.7605 37.2437 21.7154 37.2738 21.6672 37.3009C21.6251 37.325 21.58 37.3491 21.5378 37.3701C21.4807 37.4002 21.4235 37.4273 21.3664 37.4544C21.3272 37.4725 21.2911 37.4905 21.252 37.5056C21.1558 37.5447 21.0595 37.5808 20.9602 37.6139C20.9361 37.623 20.909 37.629 20.885 37.635C20.8037 37.6591 20.7225 37.6802 20.6383 37.6982C20.6022 37.7072 20.5661 37.7133 20.53 37.7193C20.4517 37.7343 20.3735 37.7464 20.2953 37.7554C20.2622 37.7584 20.2261 37.7644 20.193 37.7674C20.0817 37.7765 19.9673 37.7855 19.853 37.7855H14.5127V39.5915H19.5251C21.58 39.5915 23.2498 41.2621 23.2498 43.3179V47.3513H25.055V43.3179C25.055 41.4487 24.1253 39.7932 22.7022 38.7939C23.5446 38.2791 24.2396 37.5417 24.7029 36.6658C25.5213 37.1564 26.478 37.4394 27.501 37.4394C30.5247 37.4394 32.9857 34.9772 32.9857 31.9521V21.9469C32.9857 21.9469 32.9857 21.9409 32.9857 21.9349V9.1665C32.9857 7.13776 34.6375 5.48528 36.6653 5.48528C38.6931 5.48528 40.3449 7.13776 40.3449 9.1665L40.3449 40.4494H40.3329Z" stroke="var(--stroke-0, white)" stroke-width="7.35706" mask="url(#path-16-outside-3_125_31361)"/>
</g>
</g>
</g>
</svg>
