<svg width="100%" height="100%" overflow="visible" style="display: block;" viewBox="0 0 38.4631 65.3809" fill="none" xmlns="http://www.w3.org/2000/svg">
<g id="Group">
<g id="Group_2">
<path id="Vector" d="M20.1342 18.2683V26.6481C21.0729 27.6323 21.6535 28.9628 21.6535 30.4286C21.6535 30.6935 21.6325 30.9524 21.5964 31.2052C21.8852 31.4249 22.2071 31.5995 22.5531 31.729C22.5862 31.741 22.6163 31.753 22.6494 31.7651C22.7066 31.7861 22.7667 31.8012 22.8269 31.8192C22.878 31.8343 22.9292 31.8463 22.9833 31.8584C23.0345 31.8704 23.0856 31.8825 23.1368 31.8915C23.206 31.9035 23.2722 31.9156 23.3414 31.9216C23.3835 31.9276 23.4226 31.9336 23.4647 31.9366C23.5791 31.9487 23.6934 31.9547 23.8077 31.9547C25.8355 31.9547 27.4873 30.3022 27.4873 28.2735V18.2683C27.4873 16.2395 25.8355 14.587 23.8077 14.587C21.7799 14.587 20.1281 16.2395 20.1281 18.2683H20.1342Z" fill="var(--fill-0, #FF63F6)"/>
<g id="Group_3">
<path id="Vector_2" d="M32.9751 1.80702C30.9472 1.80702 29.2955 3.45951 29.2955 5.48824V18.2566C29.2955 18.2566 29.2955 18.2627 29.2955 18.2687L29.2955 28.2739C29.2955 31.2989 26.8344 33.7611 23.8107 33.7611C23.6934 33.7611 23.5761 33.7551 23.4587 33.7491C23.4226 33.7491 23.3895 33.743 23.3564 33.74C23.2722 33.734 23.1879 33.725 23.1067 33.7129C23.0706 33.7069 23.0345 33.7039 22.9984 33.6979C22.9142 33.6859 22.8299 33.6708 22.7487 33.6527C22.7186 33.6467 22.6885 33.6407 22.6614 33.6347C22.5591 33.6136 22.4598 33.5895 22.3606 33.5624C22.3515 33.5624 22.3425 33.5564 22.3335 33.5564C21.9875 33.4601 21.6535 33.3277 21.3406 33.1651C21.3346 33.1621 21.3286 33.1591 21.3226 33.1561C21.2233 33.1049 21.124 33.0507 21.0277 32.9936C21.0247 32.9936 21.0217 32.9905 21.0187 32.9875C20.5554 33.8634 19.8634 34.6009 19.018 35.1156C20.441 36.1179 21.3707 37.7734 21.3707 39.6396V43.673H19.5655V39.6396C19.5655 37.5838 17.8957 35.9132 15.8408 35.9132H10.8284L10.8284 34.1073H16.1688C16.2831 34.1073 16.3974 34.1012 16.5087 34.0892C16.5449 34.0862 16.5779 34.0802 16.611 34.0772C16.6893 34.0681 16.7675 34.0561 16.8457 34.041C16.8818 34.035 16.9179 34.026 16.954 34.02C17.0383 34.0019 17.1195 33.9808 17.2007 33.9568C17.2248 33.9507 17.2519 33.9447 17.276 33.9357C17.3752 33.9056 17.4715 33.8695 17.5678 33.8273C17.6069 33.8123 17.643 33.7942 17.6821 33.7762C17.7393 33.7491 17.7995 33.722 17.8536 33.6919C17.8987 33.6678 17.9409 33.6467 17.983 33.6226C18.0311 33.5956 18.0793 33.5655 18.1244 33.5354C18.1695 33.5083 18.2116 33.4812 18.2568 33.4511C18.2959 33.424 18.335 33.3939 18.3741 33.3638C18.4614 33.2976 18.5456 33.2283 18.6268 33.1561C18.6509 33.132 18.678 33.1109 18.7021 33.0869C18.7532 33.0387 18.8013 32.9905 18.8465 32.9394C18.8645 32.9183 18.8856 32.8972 18.9036 32.8762C19.1293 32.6233 19.3188 32.3434 19.4693 32.0364C19.4753 32.0243 19.4813 32.0093 19.4873 31.9973C19.5354 31.8949 19.5776 31.7896 19.6167 31.6842C19.6317 31.6421 19.6468 31.5999 19.6588 31.5578C19.6829 31.4825 19.7039 31.4073 19.725 31.329C19.737 31.2809 19.7491 31.2357 19.7581 31.1876C19.7761 31.1063 19.7882 31.022 19.8002 30.9407C19.8062 30.8986 19.8152 30.8565 19.8183 30.8143C19.8333 30.6879 19.8393 30.5585 19.8393 30.429C19.8393 30.2695 19.8273 30.113 19.8092 29.9595C19.8032 29.9083 19.7882 29.8571 19.7791 29.806C19.7611 29.7066 19.7461 29.6073 19.719 29.508C19.7039 29.4478 19.6829 29.3906 19.6648 29.3304C19.6377 29.2461 19.6107 29.1588 19.5776 29.0776C19.5535 29.0174 19.5234 28.9572 19.4963 28.9C19.4602 28.8247 19.4271 28.7465 19.385 28.6742C19.3519 28.614 19.3158 28.5598 19.2827 28.5026C19.2406 28.4334 19.1955 28.3642 19.1473 28.298C19.1082 28.2438 19.0661 28.1896 19.024 28.1384C18.9728 28.0752 18.9217 28.015 18.8675 27.9548C18.8224 27.9067 18.7773 27.8585 18.7291 27.8103C18.672 27.7532 18.6088 27.699 18.5486 27.6448C18.5005 27.6027 18.4493 27.5605 18.3982 27.5214C18.2989 27.4461 18.1996 27.3709 18.0943 27.3047C18.0883 27.3017 18.0793 27.2956 18.0732 27.2926C17.8566 27.1602 17.628 27.0488 17.3843 26.9645C17.3572 26.9555 17.3301 26.9435 17.303 26.9344C17.2489 26.9164 17.1917 26.9013 17.1345 26.8863C17.0804 26.8712 17.0262 26.8562 16.9721 26.8441C16.9239 26.8321 16.8758 26.8231 16.8247 26.814C16.7555 26.802 16.6863 26.79 16.6171 26.7809C16.5779 26.7749 16.5388 26.7689 16.4967 26.7659C16.3854 26.7569 16.2711 26.7478 16.1567 26.7478H5.48507C3.45724 26.7478 1.80549 28.4003 1.80549 30.429L1.80549 36.7741C1.80549 37.0962 1.81452 37.4182 1.83257 37.7373C1.83859 37.8396 1.84761 37.942 1.85664 38.0443C1.87168 38.261 1.88974 38.4748 1.91381 38.6885C1.92584 38.8059 1.94389 38.9232 1.95893 39.0406C1.98601 39.2393 2.01309 39.4349 2.04318 39.6306C2.06424 39.751 2.0853 39.8684 2.10636 39.9858C2.14246 40.1784 2.18157 40.3711 2.2237 40.5637C2.24776 40.6781 2.27484 40.7894 2.30192 40.9008C2.35006 41.1025 2.40421 41.3011 2.46138 41.4968C2.48846 41.5961 2.51553 41.6954 2.54562 41.7948C2.61482 42.0205 2.68703 42.2433 2.76525 42.463C2.78932 42.5292 2.81038 42.5984 2.83445 42.6677C3.04806 43.2606 3.29177 43.8386 3.56555 44.3984C3.57458 44.4165 3.5836 44.4345 3.59263 44.4526C3.71899 44.7115 3.85438 44.9673 3.99278 45.2171C4.01986 45.2653 4.04994 45.3135 4.07702 45.3616C4.20338 45.5813 4.33276 45.8011 4.46815 46.0148C4.50124 46.069 4.53734 46.1201 4.57044 46.1743C4.70583 46.385 4.84724 46.5927 4.99165 46.7974C5.02475 46.8455 5.05784 46.8937 5.09394 46.9389C5.24739 47.1526 5.40684 47.3633 5.57232 47.571C5.59639 47.6041 5.62347 47.6342 5.64754 47.6673C6.4358 48.6485 7.32636 49.5425 8.30718 50.3341C11.2978 52.7512 15.0977 54.202 19.2346 54.202C23.3715 54.202 27.1714 52.7512 30.162 50.3341C31.1398 49.5425 32.0334 48.6485 32.8216 47.6673C32.8487 47.6342 32.8728 47.6041 32.8968 47.571C33.0623 47.3633 33.2188 47.1526 33.3752 46.9389C33.4083 46.8907 33.4444 46.8425 33.4775 46.7974C33.6219 46.5927 33.7603 46.385 33.8957 46.1743C33.9288 46.1201 33.9649 46.069 33.998 46.0148C34.1334 45.8011 34.2628 45.5813 34.3891 45.3616C34.4162 45.3135 34.4463 45.2653 34.4734 45.2171C34.6118 44.9673 34.7472 44.7115 34.8735 44.4526C34.8825 44.4345 34.8916 44.4165 34.9006 44.3984C35.1744 43.8386 35.4181 43.2606 35.6317 42.6677C35.6558 42.5984 35.6768 42.5322 35.7009 42.463C35.7761 42.2433 35.8513 42.0205 35.9175 41.7948C35.9476 41.6954 35.9747 41.5961 36.0018 41.4968C36.0589 41.2981 36.1101 41.0995 36.1582 40.9008C36.1853 40.7894 36.2124 40.6751 36.2364 40.5637C36.2786 40.3711 36.3177 40.1784 36.3538 39.9858C36.3748 39.8684 36.3989 39.748 36.417 39.6306C36.4501 39.4349 36.4771 39.2393 36.5042 39.0406C36.5193 38.9232 36.5373 38.8059 36.5493 38.6885C36.5734 38.4748 36.5885 38.258 36.6065 38.0443C36.6125 37.942 36.6246 37.8396 36.6306 37.7373C36.6486 37.4182 36.6576 37.0962 36.6576 36.7741V5.48824C36.6576 3.45951 35.0059 1.80702 32.9781 1.80702H32.9751ZM34.4072 21.083H31.4858V19.277H34.4072V21.083ZM34.4072 12.8296H31.4858V11.0236H34.4072V12.8296Z" fill="var(--fill-0, #FF63F6)"/>
<path id="Vector_3" d="M30.1559 52.592C27.051 54.7471 23.2872 56.0113 19.2285 56.0113C15.1698 56.0113 11.409 54.7441 8.30111 52.592L8.30111 57.3387C8.30111 60.719 13.3045 63.5754 19.2285 63.5754C25.1525 63.5754 30.1559 60.719 30.1559 57.3387V52.592Z" fill="var(--fill-0, #FF63F6)"/>
<path id="Vector_4" d="M10.9698 18.2694L10.9698 24.9425H16.1687C16.9359 24.9425 17.664 25.1021 18.3289 25.388L18.3289 18.2694C18.3289 16.2406 16.6772 14.5882 14.6493 14.5882C12.6215 14.5882 10.9698 16.2406 10.9698 18.2694Z" fill="var(--fill-0, #FF63F6)"/>
<path id="Vector_5" d="M1.80549 5.48824L1.80549 26.3716C2.7803 25.4866 4.068 24.9418 5.48507 24.9418H9.16464L9.16464 18.2687C9.16464 18.2687 9.16464 18.2627 9.16464 18.2566V5.60864C9.16464 4.58524 8.74042 3.58593 8.0033 2.86052C7.31132 2.18026 6.41474 1.80702 5.47905 1.80702C5.45799 1.80702 5.43392 1.80702 5.41286 1.80702C3.42415 1.84314 1.80549 3.49563 1.80549 5.48824ZM3.93261 11.0236H6.854V12.8296H3.93261V11.0236ZM3.93261 19.277H6.854V21.083H3.93261V19.277Z" fill="var(--fill-0, #FF63F6)"/>
</g>
<g id="Group_4">
<path id="Vector_6" d="M6.8539 11.0228H3.9325V12.8288H6.8539V11.0228Z" fill="var(--fill-0, #0B2595)"/>
<path id="Vector_7" d="M6.85388 19.2774H3.93249V21.0834H6.85388V19.2774Z" fill="var(--fill-0, #0B2595)"/>
<path id="Vector_8" d="M34.4073 11.0228H31.4859V12.8287H34.4073V11.0228Z" fill="var(--fill-0, #0B2595)"/>
<path id="Vector_9" d="M34.4073 19.2774H31.4859V21.0834H34.4073V19.2774Z" fill="var(--fill-0, #0B2595)"/>
<path id="Vector_10" d="M32.9753 0.000822379C29.9516 0.000822379 27.4905 2.463 27.4905 5.48804L27.4905 14.1899C26.5157 13.308 25.225 12.7692 23.8109 12.7692C21.8974 12.7692 20.2096 13.7535 19.2288 15.2434C18.248 13.7535 16.5601 12.7692 14.6466 12.7692C13.2325 12.7692 11.9418 13.308 10.967 14.1899L10.967 5.60844C10.967 4.10344 10.3473 2.63457 9.26715 1.57204C8.21111 0.533591 6.82112 -0.0232576 5.37998 0.000822379C2.41345 0.0580122 0.000519699 2.51718 0.000519699 5.48804L0.000519699 36.7709C0.000519699 42.4989 2.51876 47.646 6.49919 51.1737L6.49919 57.3382C6.49919 61.8471 12.0923 65.3809 19.2318 65.3809C26.3713 65.3809 31.9644 61.8471 31.9644 57.3382V51.1737C35.9448 47.646 38.463 42.4989 38.463 36.7739L38.463 5.48804C38.463 2.463 36.002 0.000822379 32.9783 0.000822379H32.9753ZM20.1344 18.2685C20.1344 16.2397 21.7861 14.5872 23.814 14.5872C25.8418 14.5872 27.4935 16.2397 27.4935 18.2685V28.2737C27.4935 30.3024 25.8418 31.9549 23.814 31.9549C22.9806 31.9549 22.2164 31.675 21.5966 31.2054C21.6327 30.9526 21.6537 30.6937 21.6537 30.4288C21.6537 28.963 21.0731 27.6326 20.1344 26.6483V18.2685ZM10.97 18.2685C10.97 16.2397 12.6218 14.5872 14.6496 14.5872C16.6774 14.5872 18.3292 16.2397 18.3292 18.2685V25.3871C17.6673 25.1012 16.9362 24.9416 16.169 24.9416H10.97V18.2685ZM1.80571 5.48804C1.80571 3.49542 3.42436 1.84595 5.41307 1.80682C5.43413 1.80682 5.4582 1.80682 5.47926 1.80682C6.41495 1.80682 7.30852 2.18006 8.00352 2.86032C8.74064 3.58572 9.16486 4.58504 9.16486 5.60844L9.16486 18.2564C9.16486 18.2564 9.16486 18.2624 9.16486 18.2685V24.9416H5.48528C4.06821 24.9416 2.78051 25.4864 1.80571 26.3714L1.80571 5.48804ZM30.1562 57.3382C30.1562 60.7184 25.1528 63.5749 19.2288 63.5749C13.3048 63.5749 8.30137 60.7184 8.30137 57.3382V52.5914C11.4063 54.7436 15.1701 56.0108 19.2288 56.0108C23.2874 56.0108 27.0513 54.7436 30.1562 52.5914V57.3382ZM36.6549 36.7709C36.6549 46.3848 28.8384 54.2048 19.2288 54.2048C9.61916 54.2048 1.80571 46.3848 1.80571 36.7709L1.80571 30.4258C1.80571 28.3971 3.45745 26.7446 5.48528 26.7446H16.169C16.2833 26.7446 16.3976 26.7506 16.509 26.7627C16.5481 26.7657 16.5872 26.7717 16.6293 26.7777C16.6985 26.7867 16.7677 26.7958 16.8369 26.8108C16.885 26.8199 16.9362 26.8289 16.9843 26.8409C17.0385 26.853 17.0926 26.868 17.1468 26.8831C17.204 26.8981 17.2581 26.9132 17.3153 26.9312C17.3424 26.9403 17.3694 26.9523 17.3965 26.9613C17.6372 27.0486 17.8689 27.157 18.0855 27.2894C18.0915 27.2924 18.1005 27.2984 18.1066 27.3015C19.1536 27.9516 19.8516 29.1075 19.8516 30.4258C19.8516 30.9887 19.7222 31.5185 19.4935 31.997C19.4875 32.0091 19.4815 32.0241 19.4755 32.0362C19.3251 32.3432 19.1355 32.6261 18.9099 32.876C18.8918 32.897 18.8707 32.9181 18.8527 32.9392C18.8046 32.9903 18.7564 33.0385 18.7083 33.0867C18.6842 33.1107 18.6571 33.1318 18.6331 33.1559C18.5518 33.2281 18.4676 33.2974 18.3803 33.3636C18.3412 33.3937 18.3021 33.4238 18.263 33.4509C18.2209 33.481 18.1757 33.5081 18.1306 33.5352C18.0825 33.5653 18.0374 33.5954 17.9892 33.6224C17.9471 33.6465 17.902 33.6706 17.8598 33.6917C17.8027 33.7218 17.7455 33.7489 17.6883 33.776C17.6492 33.794 17.6131 33.8121 17.574 33.8271C17.4777 33.8662 17.3815 33.9024 17.2822 33.9355C17.2581 33.9445 17.231 33.9505 17.207 33.9566C17.1257 33.9806 17.0445 34.0017 16.9603 34.0198C16.9242 34.0288 16.888 34.0348 16.8519 34.0408C16.7737 34.0559 16.6955 34.0679 16.6173 34.077C16.5842 34.08 16.5481 34.086 16.515 34.089C16.4037 34.098 16.2893 34.1071 16.175 34.1071H10.8347V35.913H15.8471C17.902 35.913 19.5718 37.5836 19.5718 39.6394V43.6728H21.377V39.6394C21.377 37.7702 20.4473 36.1147 19.0242 35.1154C19.8666 34.6007 20.5616 33.8632 21.0249 32.9873C21.8433 33.478 22.8 33.7609 23.823 33.7609C26.8467 33.7609 29.3077 31.2987 29.3077 28.2737V18.2685C29.3077 18.2685 29.3077 18.2624 29.3077 18.2564L29.3077 5.48804C29.3077 3.4593 30.9595 1.80682 32.9873 1.80682C35.0151 1.80682 36.6669 3.4593 36.6669 5.48804L36.6669 36.7709H36.6549Z" fill="var(--fill-0, #0B2595)"/>
</g>
</g>
<path id="Vector_11" d="M14.1858 51.1222C14.0053 51.1222 13.8188 51.0891 13.6413 51.0199C8.8816 49.1657 5.37051 45.0902 4.24828 40.1177C4.06476 39.308 4.57322 38.5013 5.38555 38.3177C6.19488 38.1341 7.00119 38.6428 7.18472 39.4555C8.08731 43.4498 10.9064 46.7246 14.7334 48.2146C15.5066 48.5156 15.8917 49.3885 15.5909 50.162C15.3592 50.758 14.7906 51.1222 14.1888 51.1222H14.1858Z" fill="var(--fill-0, white)"/>
<g id="Group_5">
<path id="Vector_12" d="M6.85366 11.0229H3.93226L3.93226 12.8288H6.85366V11.0229Z" fill="var(--fill-0, #0B2595)"/>
<path id="Vector_13" d="M6.85373 19.2775H3.93234L3.93234 21.0835H6.85373V19.2775Z" fill="var(--fill-0, #0B2595)"/>
<path id="Vector_14" d="M34.4071 11.0228H31.4857V12.8288H34.4071V11.0228Z" fill="var(--fill-0, #0B2595)"/>
<path id="Vector_15" d="M34.4071 19.2774H31.4857V21.0834H34.4071V19.2774Z" fill="var(--fill-0, #0B2595)"/>
<path id="Vector_16" d="M32.9748 0.000749486C29.9511 0.000749486 27.49 2.46292 27.49 5.48797V14.1899C26.5152 13.3079 25.2245 12.7691 23.8104 12.7691C21.8969 12.7691 20.2091 13.7534 19.2283 15.2434C18.2474 13.7534 16.5596 12.7691 14.6461 12.7691C13.232 12.7691 11.9413 13.3079 10.9665 14.1899V5.60837C10.9665 4.10337 10.3467 2.63449 9.26663 1.57197C8.21059 0.533518 6.8206 -0.0233305 5.37946 0.000749486C2.41293 0.0579394 0 2.5171 0 5.48797V36.7708C0 42.4988 2.51824 47.6459 6.49867 51.1736V57.3381C6.49867 61.8471 12.0917 65.3808 19.2313 65.3808C26.3708 65.3808 31.9639 61.8471 31.9639 57.3381V51.1736C35.9443 47.6459 38.4625 42.4988 38.4625 36.7738V5.48797C38.4625 2.46292 36.0015 0.000749486 32.9778 0.000749486H32.9748ZM20.1339 18.2684C20.1339 16.2397 21.7856 14.5872 23.8134 14.5872C25.8413 14.5872 27.493 16.2397 27.493 18.2684V28.2736C27.493 30.3023 25.8413 31.9548 23.8134 31.9548C22.98 31.9548 22.2158 31.6749 21.5961 31.2053C21.6322 30.9525 21.6532 30.6936 21.6532 30.4288C21.6532 28.9629 21.0726 27.6325 20.1339 26.6482V18.2684ZM10.9695 18.2684C10.9695 16.2397 12.6213 14.5872 14.6491 14.5872C16.6769 14.5872 18.3287 16.2397 18.3287 18.2684V25.387C17.6668 25.1011 16.9357 24.9415 16.1685 24.9415H10.9695V18.2684ZM1.80519 5.48797C1.80519 3.49535 3.42384 1.84588 5.41255 1.80675C5.43361 1.80675 5.45768 1.80675 5.47874 1.80675C6.41443 1.80675 7.308 2.17998 8.003 2.86024C8.74012 3.58565 9.16434 4.58497 9.16434 5.60837V18.2564C9.16434 18.2564 9.16434 18.2624 9.16434 18.2684V24.9415H5.48476C4.06769 24.9415 2.77999 25.4864 1.80519 26.3713V5.48797ZM30.1557 57.3381C30.1557 60.7183 25.1523 63.5748 19.2283 63.5748C13.3042 63.5748 8.30085 60.7183 8.30085 57.3381V52.5913C11.4058 54.7435 15.1696 56.0107 19.2283 56.0107C23.2869 56.0107 27.0507 54.7435 30.1557 52.5913V57.3381ZM36.6543 36.7708C36.6543 46.3847 28.8379 54.2047 19.2283 54.2047C9.61864 54.2047 1.80519 46.3847 1.80519 36.7708V30.4258C1.80519 28.397 3.45693 26.7445 5.48476 26.7445H16.1685C16.2828 26.7445 16.3971 26.7506 16.5084 26.7626C16.5476 26.7656 16.5867 26.7716 16.6288 26.7776C16.698 26.7867 16.7672 26.7957 16.8364 26.8108C16.8845 26.8198 16.9357 26.8288 16.9838 26.8409C17.038 26.8529 17.0921 26.8679 17.1463 26.883C17.2034 26.898 17.2576 26.9131 17.3148 26.9312C17.3418 26.9402 17.3689 26.9522 17.396 26.9613C17.6367 27.0485 17.8683 27.1569 18.085 27.2893C18.091 27.2924 18.1 27.2984 18.106 27.3014C19.153 27.9515 19.851 29.1074 19.851 30.4258C19.851 30.9886 19.7217 31.5184 19.493 31.997C19.487 32.009 19.481 32.0241 19.475 32.0361C19.3245 32.3431 19.135 32.6261 18.9093 32.8759C18.8913 32.897 18.8702 32.918 18.8522 32.9391C18.804 32.9903 18.7559 33.0384 18.7078 33.0866C18.6837 33.1107 18.6566 33.1317 18.6325 33.1558C18.5513 33.2281 18.4671 33.2973 18.3798 33.3635C18.3407 33.3936 18.3016 33.4237 18.2625 33.4508C18.2204 33.4809 18.1752 33.508 18.1301 33.5351C18.082 33.5652 18.0368 33.5953 17.9887 33.6224C17.9466 33.6464 17.9014 33.6705 17.8593 33.6916C17.8022 33.7217 17.745 33.7488 17.6878 33.7759C17.6487 33.7939 17.6126 33.812 17.5735 33.827C17.4772 33.8662 17.3809 33.9023 17.2817 33.9354C17.2576 33.9444 17.2305 33.9505 17.2064 33.9565C17.1252 33.9806 17.044 34.0016 16.9597 34.0197C16.9236 34.0287 16.8875 34.0347 16.8514 34.0408C16.7732 34.0558 16.695 34.0678 16.6168 34.0769C16.5837 34.0799 16.5476 34.0859 16.5145 34.0889C16.4031 34.0979 16.2888 34.107 16.1745 34.107H10.8341V35.913H15.8465C17.9014 35.913 19.5712 37.5835 19.5712 39.6393V43.6727H21.3764V39.6393C21.3764 37.7701 20.4468 36.1146 19.0237 35.1153C19.8661 34.6006 20.5611 33.8632 21.0244 32.9873C21.8428 33.4779 22.7995 33.7608 23.8225 33.7608C26.8461 33.7608 29.3072 31.2987 29.3072 28.2736V18.2684C29.3072 18.2684 29.3072 18.2624 29.3072 18.2564V5.48797C29.3072 3.45923 30.959 1.80675 32.9868 1.80675C35.0146 1.80675 36.6664 3.45923 36.6664 5.48797V36.7708H36.6543Z" fill="var(--fill-0, #0B2595)"/>
</g>
</g>
</svg>
