<svg width="100%" height="100%" overflow="visible" style="display: block;" viewBox="0 0 63.7899 50.3971" fill="none" xmlns="http://www.w3.org/2000/svg">
<g id="Group 5007">
<path id="Vector" d="M31.8947 3.60787C32.3026 3.59787 32.7123 3.69859 33.0764 3.90963C33.6063 4.21689 34.713 4.95055 35.511 6.20553C36.0388 7.03573 36.3966 8.04915 36.4133 9.2026C36.5388 9.20809 36.6676 9.21546 36.799 9.22701C38.2778 9.357 40.226 9.91547 41.8322 11.6411C42.4551 12.3102 42.6098 13.2899 42.2238 14.1186C41.8379 14.9473 40.9884 15.4597 40.0754 15.4135C39.5588 15.3874 38.9362 15.3924 38.2756 15.4653C41.0593 15.6377 44.2205 16.6831 47.0363 19.4292C47.672 19.3582 48.5947 19.291 49.6574 19.3256C51.5511 19.3874 54.1941 19.7794 56.4074 21.3442H56.4084C58.5393 22.8519 59.7692 25.098 60.1955 27.7729C60.2091 27.8322 60.2229 27.8919 60.2317 27.9526C60.8624 32.3073 58.6348 35.7016 56.593 37.8208C55.2882 39.175 53.9302 40.1474 53.0783 40.6967V44.1274C53.0783 44.9662 52.6102 45.7356 51.8655 46.1215C51.1209 46.5073 50.2235 46.4458 49.5383 45.9624C48.8699 45.4906 47.5722 44.9508 45.3703 44.4497H45.3694C41.9063 43.6607 37.1466 43.2056 31.9524 43.2055H31.8313C26.6491 43.2056 21.8893 43.6606 18.426 44.4497H18.425C16.2247 44.9504 14.9278 45.4902 14.2561 45.9633C13.5706 46.4462 12.6732 46.5067 11.9289 46.1206C11.1848 45.7344 10.718 44.9657 10.718 44.1274L10.718 40.6958C9.86598 40.1463 8.50856 39.1742 7.20432 37.8208C5.16232 35.7017 2.93484 32.3075 3.56662 27.9526C3.96533 25.1976 5.20408 22.884 7.38303 21.3422H7.38401C9.59742 19.7774 12.2413 19.3854 14.135 19.3237C15.1956 19.2891 16.1177 19.3559 16.7561 19.4272C19.566 16.6877 22.7201 15.6418 25.4992 15.4663C24.8434 15.3949 24.227 15.3896 23.716 15.4155C22.8035 15.4616 21.9538 14.9497 21.5676 14.1215C21.1816 13.2934 21.3362 12.3134 21.9582 11.644C23.5633 9.91683 25.5116 9.35739 26.9905 9.22701C27.1225 9.21538 27.2521 9.20715 27.3781 9.20162C27.3954 8.05103 27.7524 7.03936 28.2785 6.21041C29.075 4.9556 30.1808 4.22076 30.7121 3.91158C31.0763 3.69969 31.4864 3.59824 31.8947 3.60787Z" fill="var(--fill-0, #FFDF00)" stroke="var(--stroke-0, white)" stroke-width="4.49064" stroke-linejoin="round"/>
<path id="Vector_2" d="M31.9591 35.3165C33.7474 35.3167 35.2061 36.7651 35.2061 38.5617C35.2061 40.3581 33.7474 41.8066 31.9591 41.8068H31.838C26.5467 41.8068 21.672 42.2728 18.1075 43.0841L18.1056 43.0851C17.4487 43.2341 16.8412 43.395 16.2989 43.5577L16.2979 43.5568C15.9843 43.6519 15.6683 43.6964 15.3624 43.6964C13.9807 43.6963 12.6837 42.8054 12.2559 41.3937L12.212 41.2326C11.7957 39.5625 12.7626 37.8527 14.4151 37.3468L14.4249 37.3439C15.1147 37.1361 15.8687 36.936 16.669 36.755V36.756C20.7994 35.8141 26.1878 35.3166 31.838 35.3165H31.9591Z" fill="var(--fill-0, white)" stroke="var(--stroke-0, white)" stroke-width="4.49064" stroke-linejoin="round"/>
<g id="Group">
<path id="Vector_3" d="M46.0359 24.0611C46.6071 23.5246 47.4174 23.3247 48.1726 23.5338C49.6288 23.9369 52.6113 25.2458 53.1062 28.9801C53.1137 29.0364 53.1177 29.0933 53.1209 29.15C53.3355 31.348 52.5583 33.4033 51.7801 34.8795C50.9652 36.4252 49.9989 37.6241 49.5515 38.1451C49.0275 38.7554 48.2167 39.0382 47.4265 38.8873L43.9197 38.2174C43.1215 38.0649 42.4677 37.4932 42.2107 36.7222C41.9538 35.9511 42.133 35.1004 42.6805 34.4996C45.9501 30.9113 45.6649 27.534 45.3758 26.1607C45.2143 25.3938 45.4647 24.5977 46.0359 24.0611Z" fill="var(--fill-0, #FF63F6)" stroke="var(--stroke-0, white)" stroke-width="4.49064" stroke-linejoin="round"/>
<path id="Vector_4" d="M45.9987 22.0246L46.947 22.0949H46.9489C48.124 22.1829 49.7548 22.6232 51.2028 23.6535C52.6207 24.6625 53.8647 26.2482 54.2517 28.5119L54.3171 28.9738L54.321 29.0041C54.6049 31.8254 53.4756 34.416 52.4558 36.1516C51.4085 37.9336 50.281 39.1414 50.1413 39.2893L50.1354 39.2961L50.1345 39.2951L49.9089 39.5334C49.4851 39.9787 48.8976 40.2306 48.2829 40.2307H48.281C48.1398 40.2307 47.9987 40.2181 47.8601 40.1916L41.4587 38.969C40.6346 38.8117 39.9666 38.2086 39.7272 37.4045C39.4879 36.6005 39.7171 35.73 40.321 35.1477L41.155 34.344L41.156 34.342C45.5363 30.1257 44.1406 26.1201 44.0817 25.9602L44.0798 25.9553L43.739 25.0715C43.4623 24.3537 43.5717 23.5439 44.03 22.926C44.4883 22.3082 45.2315 21.9681 45.9987 22.0246Z" fill="var(--fill-0, #0B2595)" stroke="var(--stroke-0, white)" stroke-width="4.49064" stroke-linejoin="round"/>
<path id="Vector_5" d="M34.002 21.3306C34.6259 21.0542 36.3789 20.3762 38.2511 20.9468L38.252 20.9458C39.8111 21.4203 40.8769 22.5819 41.5431 23.9439L41.6642 24.2046C42.8581 26.9016 42.187 29.7385 41.377 31.7349C40.5142 33.8615 39.2819 35.5666 38.797 36.1987C38.3414 36.7925 37.62 37.1202 36.8731 37.0728L34.7686 36.939C33.5864 36.8637 32.6661 35.8824 32.6661 34.6978V23.3833C32.6663 22.4952 33.19 21.6903 34.002 21.3306Z" fill="var(--fill-0, #FF63F6)" stroke="var(--stroke-0, white)" stroke-width="4.49064" stroke-linejoin="round"/>
<path id="Vector_6" d="M34.667 19.8187C35.5687 19.5654 36.8815 19.3596 38.3018 19.7142L38.5869 19.7923L38.5889 19.7933C40.4459 20.3544 41.7794 21.6917 42.624 23.4173H42.6231C44.0517 26.3332 43.6644 29.7381 42.126 33.0316C41.0212 35.3992 39.6284 37.0935 39.4736 37.2777L39.2793 37.5101C38.8207 38.0573 38.1296 38.354 37.417 38.3089L33.5674 38.0648C32.3849 37.9898 31.464 37.0093 31.4639 35.8245V22.6663C31.4639 21.8673 31.8887 21.1281 32.5791 20.7259L32.877 20.5521L32.8906 20.5452C33.0142 20.4744 33.6901 20.0931 34.667 19.8187ZM37.1572 30.1859C37.1766 30.1398 37.1969 30.0938 37.2158 30.0472C37.8867 28.3936 38.0219 26.9628 37.5108 25.9193L37.5098 25.9183C37.3764 25.6454 37.2537 25.4839 37.1572 25.387V30.1859Z" fill="var(--fill-0, #0B2595)" stroke="var(--stroke-0, white)" stroke-width="4.49064" stroke-linejoin="round"/>
<path id="Vector_7" d="M15.4938 23.5339C16.249 23.325 17.0585 23.5249 17.6296 24.0613C18.2008 24.5979 18.4513 25.394 18.2897 26.1609C18.0004 27.535 17.7134 30.912 20.9841 34.4997C21.5317 35.1004 21.7124 35.9502 21.4558 36.7214C21.199 37.4926 20.5451 38.0649 19.7468 38.2175L16.239 38.8874C15.4489 39.0383 14.638 38.7555 14.114 38.1453C13.6661 37.6237 12.7017 36.4252 11.8874 34.8806C11.0943 33.3762 10.2979 31.2706 10.5524 29.0261L10.5573 28.9851C11.052 25.2488 14.0368 23.9372 15.4938 23.5339Z" fill="var(--fill-0, #FF63F6)" stroke="var(--stroke-0, white)" stroke-width="4.49064" stroke-linejoin="round"/>
<path id="Vector_8" d="M17.6713 22.0188C18.4412 21.9608 19.1871 22.3031 19.6459 22.9241C20.1047 23.5452 20.2118 24.3585 19.9301 25.0774L19.5903 25.9436C19.5378 26.081 18.1104 30.1059 22.5112 34.3421L22.5131 34.344L23.3461 35.1477C23.9501 35.73 24.1792 36.6005 23.9399 37.4046C23.7006 38.2085 23.0333 38.8126 22.2094 38.97L15.808 40.1917C15.6694 40.2181 15.5283 40.2307 15.3871 40.2307H15.3852C14.7672 40.2307 14.1766 39.9761 13.7524 39.5266L13.5258 39.2874C13.3841 39.1374 12.2583 37.9295 11.2123 36.1487C10.1929 34.4133 9.06448 31.823 9.34709 29.0032C9.34892 28.9849 9.35067 28.9667 9.35295 28.9485C9.35493 28.9327 9.35683 28.9165 9.35881 28.9006C9.36081 28.8846 9.36364 28.8678 9.36565 28.8518L9.36662 28.8401C9.68913 26.3719 11.0083 24.6751 12.5063 23.6223C13.9428 22.6129 15.552 22.1792 16.7162 22.0911H16.7172L17.6713 22.0188Z" fill="var(--fill-0, #0B2595)" stroke="var(--stroke-0, white)" stroke-width="4.49064" stroke-linejoin="round"/>
<path id="Vector_9" d="M30.9977 34.6982C30.9975 35.8826 30.0773 36.8631 28.8951 36.9384L26.7906 37.0722C26.0438 37.1196 25.3224 36.7919 24.8668 36.1982C24.382 35.5663 23.1498 33.8617 22.2867 31.7353C21.4503 29.6745 20.7607 26.7174 22.1207 23.9433C22.7869 22.5814 23.8528 21.4197 25.4117 20.9452L25.4186 20.9433C25.9482 20.784 26.464 20.7245 26.9371 20.7245C28.1387 20.7246 29.1572 21.1075 29.6617 21.331C30.474 21.6907 30.9977 22.4953 30.9977 23.3837V34.6982Z" fill="var(--fill-0, #FF63F6)" stroke="var(--stroke-0, white)" stroke-width="4.49064" stroke-linejoin="round"/>
<path id="Vector_10" d="M25.0773 19.7933C26.6068 19.3318 28.0362 19.5472 28.9992 19.8177C29.9292 20.079 30.5926 20.4392 30.7873 20.5531L31.0861 20.7259C31.7765 21.1282 32.2013 21.8674 32.2014 22.6664V35.8246C32.2012 37.0094 31.2803 37.9899 30.0978 38.0648L26.2482 38.3089C25.5357 38.3541 24.8445 38.0574 24.3859 37.5101L24.1906 37.2787V37.2777C24.0129 37.0659 22.546 35.2844 21.4357 32.8265C20.3518 30.4267 19.3672 26.836 21.0422 23.4173H21.0412C21.8858 21.6917 23.2194 20.3544 25.0764 19.7933H25.0773ZM26.509 25.3861C26.4124 25.4828 26.2893 25.6445 26.1555 25.9183L26.1545 25.9203C25.643 26.9634 25.7773 28.3937 26.4484 30.0472C26.468 30.0955 26.4888 30.143 26.509 30.1908V25.3861Z" fill="var(--fill-0, #0B2595)" stroke="var(--stroke-0, white)" stroke-width="4.49064" stroke-linejoin="round"/>
</g>
<path id="Vector_11" d="M31.3007 2.3256C31.798 2.18909 32.33 2.22703 32.8056 2.43791L32.8593 2.46232C32.8689 2.46661 32.879 2.47059 32.8886 2.47502L33.1483 2.59513L33.1767 2.60783C33.1785 2.60872 33.1836 2.61188 33.1874 2.61369C33.1946 2.61714 33.2036 2.6214 33.2138 2.62638C33.2342 2.63633 33.259 2.6488 33.288 2.66349C33.3462 2.69301 33.421 2.73171 33.5077 2.7797C33.6805 2.87528 33.9068 3.00897 34.164 3.18302C34.6716 3.5267 35.3387 4.05398 35.9511 4.78556H35.9521C36.6077 5.56917 37.2821 6.70101 37.5273 8.13713C39.5966 8.4511 42.1622 9.49562 43.9315 12.4574L44.6142 13.601C45.0674 14.3595 45.034 15.314 44.5282 16.0385C44.5232 16.0457 44.5167 16.0519 44.5116 16.059C45.5107 16.61 46.4997 17.307 47.456 18.1772C48.2959 18.1057 49.4152 18.0673 50.6571 18.1742C52.4696 18.3304 54.6967 18.8099 56.7011 20.0922L57.0985 20.3588L57.0995 20.3598C59.5497 22.0908 60.9673 24.6681 61.4189 27.7797C62.0374 32.039 60.2597 35.4387 58.2929 37.7709C56.9193 39.3996 55.3796 40.5979 54.2792 41.3481V45.6625C54.279 46.7228 53.5372 47.6388 52.4999 47.8588L51.3495 48.1029C51.1965 48.1354 51.0402 48.1518 50.8837 48.1518H50.8778C50.0615 48.1518 49.3165 47.7085 48.9218 47.0063C48.9194 47.0044 48.9165 47.0024 48.914 47.0004C48.805 46.9151 48.5936 46.7798 48.2411 46.6147C47.5356 46.2841 46.4817 45.934 45.0937 45.6176V45.6166C41.7172 44.8478 37.0536 44.4037 31.9569 44.4037H31.8368C27.048 44.4037 22.649 44.7935 19.3368 45.477L18.6884 45.6176C17.3004 45.934 16.2468 46.2842 15.5419 46.6147C15.1897 46.7798 14.9787 46.9152 14.87 47.0004C14.8675 47.0024 14.8645 47.0035 14.8622 47.0053C14.3858 47.8542 13.4083 48.3081 12.4403 48.1029L11.2899 47.8588C10.2526 47.6388 9.51088 46.7228 9.51065 45.6625V41.3481C8.41029 40.5979 6.87051 39.3996 5.49698 37.7709C3.53015 35.4387 1.75243 32.0389 2.371 27.7797C2.82252 24.6681 4.24011 22.0908 6.69034 20.3598H6.69131C8.7938 18.8755 11.1988 18.341 13.1317 18.1742C14.3736 18.0671 15.4926 18.1053 16.3319 18.1762C17.2897 17.3044 18.2805 16.6067 19.2812 16.0551C19.2757 16.0475 19.2699 16.0403 19.2646 16.0326C18.7601 15.3086 18.7264 14.3558 19.1786 13.5981L19.8603 12.4565L20.1083 12.061C21.8625 9.40077 24.2886 8.43624 26.2626 8.13615C26.5054 6.70903 27.1735 5.58255 27.8241 4.80021L27.8251 4.79826C28.9889 3.40216 30.3745 2.71596 30.6454 2.5922V2.59318L30.8896 2.47795C30.9381 2.45519 30.9879 2.43369 31.038 2.41447L31.0907 2.39396L31.3007 2.3256ZM44.3437 23.0971C40.7505 19.1951 36.3083 19.6624 34.3505 20.474L33.5067 20.8246C32.9879 21.0398 32.4145 21.0496 31.8974 20.8666C31.379 21.0515 30.8036 21.0425 30.2831 20.8266L29.4394 20.476V20.477C27.4817 19.6653 23.0395 19.1968 19.4462 23.099H19.4452L19.2167 23.3471C18.6861 23.9229 17.8937 24.181 17.1259 24.0278L16.7958 23.9613C16.8771 23.9776 15.7646 23.7616 14.2802 23.81C12.7544 23.8597 11.145 24.1804 9.97549 25.0072C8.97261 25.7171 8.2643 26.8347 8.00967 28.5942V28.5951C7.66575 30.9648 8.82704 33.0314 10.4374 34.7026C11.9839 36.3075 13.6555 37.2313 13.706 37.2592L14.0185 37.4262C14.7499 37.8164 15.2078 38.5776 15.2079 39.4067V40.6615C15.9013 40.4439 16.6436 40.2472 17.4276 40.0688C21.3193 39.1821 26.4357 38.7133 31.831 38.7133H31.9511C37.3555 38.7136 42.469 39.1826 46.3593 40.0688C47.143 40.2471 47.8861 40.4438 48.58 40.6615V39.4067C48.5801 38.5755 49.04 37.8125 49.7743 37.4233L50.0888 37.2563C50.201 37.194 51.8371 36.2763 53.3524 34.7035C54.9625 33.0324 56.1232 30.9651 55.7802 28.5951V28.5942C55.5256 26.8347 54.8173 25.7171 53.8144 25.0072L53.5898 24.8578C52.4438 24.1413 50.9406 23.8566 49.5106 23.81C48.112 23.7644 47.0409 23.9541 46.9784 23.9653L46.9774 23.9643L46.6513 24.0287C45.8871 24.1766 45.1006 23.9175 44.5731 23.3451L44.3446 23.0971H44.3437ZM31.9013 13.5072C31.8598 13.5477 31.8174 13.5867 31.7733 13.6235C31.8139 13.6691 31.8548 13.7149 31.8944 13.7621C31.9364 13.7122 31.9795 13.6638 32.0224 13.6156C31.9809 13.5811 31.9405 13.545 31.9013 13.5072ZM31.8739 9.1381C31.8616 9.24178 31.8626 9.38044 31.8944 9.56095C31.927 9.37829 31.9284 9.23867 31.9159 9.1342C31.9113 9.09554 31.9029 9.05757 31.8944 9.01994C31.8855 9.0588 31.8787 9.09818 31.8739 9.1381Z" fill="var(--fill-0, #0B2595)" stroke="var(--stroke-0, white)" stroke-width="4.49064" stroke-linejoin="round"/>
</g>
</svg>
