<svg width="34" height="28" viewBox="0 0 33.9337 28" fill="none" xmlns="http://www.w3.org/2000/svg">
<g>
<g>
<path d="M26.6046 2.02539C26.9118 2.02548 27.2022 2.16727 27.3917 2.40918L28.8731 4.29981L31.4092 7.53711C31.6452 7.83825 31.689 8.24781 31.5215 8.5918C31.3541 8.9357 31.0047 9.1543 30.6221 9.1543H22.586C22.2034 9.1543 21.8541 8.93577 21.6866 8.5918C21.5191 8.24783 21.5629 7.83825 21.7989 7.53711L25.8174 2.40821L25.8926 2.32227C26.0794 2.13324 26.3357 2.02537 26.6046 2.02539Z" fill="#FF92EE" stroke="#ffffff" stroke-width="2" stroke-linejoin="round"/>
<path d="M25.8057 1.78125C26.1883 1.78125 26.5377 1.99978 26.7051 2.34375C26.8725 2.68769 26.8287 3.09734 26.5928 3.39844L22.5753 8.52637C22.3858 8.76822 22.0954 8.91007 21.7881 8.91016C21.4808 8.91016 21.1906 8.76826 21.001 8.52637L16.9825 3.39844C16.7466 3.09739 16.7029 2.68766 16.8702 2.34375C17.0377 1.99978 17.387 1.78125 17.7696 1.78125L25.8057 1.78125Z" fill="#FF92EE" stroke="#ffffff" stroke-width="2" stroke-linejoin="round"/>
<path d="M16.1612 1.78125C16.5438 1.78125 16.8931 1.99978 17.0606 2.34375C17.228 2.68769 17.1842 3.09734 16.9483 3.39844L12.9307 8.52637C12.7412 8.76822 12.4508 8.91007 12.1436 8.91016C11.8363 8.91016 11.5461 8.76826 11.3565 8.52637L7.33795 3.39844C7.10207 3.09739 7.05836 2.68766 7.22565 2.34375C7.39312 1.99978 7.74249 1.78125 8.12506 1.78125L16.1612 1.78125Z" fill="#FF92EE" stroke="#ffffff" stroke-width="2" stroke-linejoin="round"/>
<path d="M16.9639 2.02539C17.2712 2.02548 17.5616 2.16726 17.751 2.40918L21.7676 7.53711C22.0035 7.83825 22.0474 8.24788 21.8799 8.5918C21.7125 8.93573 21.3631 9.1543 20.9805 9.1543H12.9454C12.5628 9.1543 12.2134 8.93577 12.046 8.5918C11.8785 8.24783 11.9223 7.83825 12.1583 7.53711L16.1768 2.40821L16.252 2.32227C16.4388 2.13324 16.6951 2.02537 16.9639 2.02539Z" fill="#FF92EE" stroke="#ffffff" stroke-width="2" stroke-linejoin="round"/>
<path d="M30.5801 7.93164C30.9706 7.93169 31.3251 8.15901 31.4883 8.51367C31.6515 8.86859 31.5933 9.28655 31.3389 9.58301L18.5948 24.4375C18.2888 24.7939 17.7761 24.8894 17.3624 24.667C16.9487 24.4443 16.7452 23.9634 16.8741 23.5117L21.1221 8.65625L21.1807 8.50196C21.3442 8.15805 21.6936 7.93164 22.084 7.93164L30.5801 7.93164Z" fill="#FF92EE" stroke="#ffffff" stroke-width="2" stroke-linejoin="round"/>
<path d="M21.2676 7.9336C21.5812 7.93367 21.8766 8.08082 22.0655 8.33106C22.2544 8.58151 22.3147 8.90638 22.2286 9.20801L17.9278 24.252C17.8051 24.6809 17.413 24.9764 16.9669 24.9766C16.5205 24.9766 16.1277 24.6811 16.0049 24.252L11.7022 9.20899C11.6159 8.90725 11.6763 8.58163 11.8653 8.33106C12.0543 8.08054 12.3503 7.9336 12.6641 7.9336L21.2676 7.9336Z" fill="#FF92EE" stroke="#ffffff" stroke-width="2" stroke-linejoin="round"/>
<path d="M11.8477 7.9336C12.294 7.9336 12.6868 8.22923 12.8096 8.65821L17.0567 23.5137C17.1857 23.9654 16.9831 24.4463 16.5694 24.6689C16.1557 24.8914 15.6429 24.7959 15.337 24.4395L2.59284 9.58496C2.3385 9.2885 2.28028 8.87054 2.44342 8.51563C2.60665 8.16095 2.96117 7.9336 3.35162 7.9336L11.8477 7.9336Z" fill="#FF92EE" stroke="#ffffff" stroke-width="2" stroke-linejoin="round"/>
<path d="M7.32135 2.02539C7.62852 2.02537 7.91889 2.16655 8.10846 2.40821L12.127 7.53711C12.363 7.83826 12.4068 8.24783 12.2393 8.5918C12.0718 8.93577 11.7225 9.1543 11.3399 9.1543H3.30475C2.9222 9.1543 2.57282 8.93573 2.40534 8.5918C2.23791 8.24789 2.28178 7.83825 2.51764 7.53711L5.0528 4.29981L6.53424 2.40918C6.72372 2.16729 7.01409 2.0255 7.32135 2.02539Z" fill="#FF92EE" stroke="#ffffff" stroke-width="2" stroke-linejoin="round"/>
</g>
<path d="M6.12116 9.76172C6.77021 9.20493 7.72623 9.24065 8.33209 9.81739L8.4483 9.93946L12.7169 14.9141C12.7398 14.9408 12.7605 14.9693 12.7803 14.998C13.3019 15.6883 13.2053 16.6727 12.5381 17.2441L12.5352 17.2461C12.227 17.5081 11.8445 17.6406 11.4639 17.6406C10.9976 17.6406 10.5354 17.4419 10.211 17.0654L10.21 17.0645L5.94147 12.0889C5.34768 11.3966 5.42629 10.3549 6.12018 9.76075L6.12116 9.76172Z" fill="#ffffff" stroke="#ffffff" stroke-width="2" stroke-linejoin="round"/>
<path d="M26.7979 1L26.9121 1.00684C27.176 1.03727 27.4192 1.17129 27.585 1.38281L30.5322 5.14551L32.5186 7.68066C32.5207 7.68334 32.5233 7.68578 32.5254 7.68848L32.7227 7.94043C33.0151 8.31573 33.0022 8.84497 32.6924 9.20605L17.7256 26.6514C17.5356 26.8727 17.2585 27 16.9668 27C16.6751 27 16.398 26.8727 16.208 26.6514L1.24121 9.20605C0.931479 8.84498 0.918572 8.31571 1.21094 7.94043L1.4082 7.68848L1.40918 7.68555L3.40039 5.14551L6.34766 1.38281L6.42285 1.29687C6.60958 1.10776 6.86587 1.00003 7.13477 1L26.7979 1ZM16.9668 20.3398L19.9434 9.93359H13.9902L16.9668 20.3398ZM13.8789 19.667L11.0957 9.93359H5.53028L13.8789 19.667ZM20.0527 19.666L28.4033 9.93359H22.8369L20.0527 19.666ZM24.6426 7.15332H28.5723L27.3018 5.53223L26.6074 4.64551L24.6426 7.15332ZM15.002 7.15332H18.9316L16.9668 4.64551L15.002 7.15332ZM6.6377 5.52148C6.63525 5.52469 6.63433 5.52905 6.63184 5.53223L5.36231 7.15332H9.29004L7.32422 4.64551L6.6377 5.52148ZM21.7871 6.28809L23.752 3.78125H19.8232L21.7871 6.28809ZM12.1455 6.28711L14.1104 3.78125L10.1816 3.78125L12.1455 6.28711Z" fill="#0B2595" stroke="#ffffff" stroke-width="2" stroke-linejoin="round"/>
</g>
</svg>
