<svg overflow="visible" style="display: block;" viewBox="0 0 197.561 49.2036" fill="none" xmlns="http://www.w3.org/2000/svg">
<g id="Frame 1000005628">
<g id="All winnings">
<path d="M12.2278 39.4603L11.6919 32.8349H7.84334L7.30746 39.4603H0L4.77421 0.487167H14.7611L19.5353 39.4603H12.2278ZM8.42794 25.5274H11.1073L9.792 8.23308L8.42794 25.5274Z" fill="var(--fill-0, white)"/>
<path d="M20.9918 0.487167H28.2993V39.4603H20.9918V0.487167Z" fill="var(--fill-0, white)"/>
<path d="M29.757 0.487167H37.0644V39.4603H29.757V0.487167Z" fill="var(--fill-0, white)"/>
<path d="M73.2398 7.79463H81.5216L74.7987 39.4603H62.2299V16.32L58.3813 39.4603H45.8125V7.79463H53.1199V32.8836L56.8224 7.79463H69.5374V32.8836L73.2398 7.79463Z" fill="var(--fill-0, white)"/>
<path d="M86.1576 6.33314C84.1603 6.33314 82.5039 4.92036 82.5039 3.21529C82.5039 1.41278 84.1603 0 86.1576 0C88.155 0 89.8114 1.41278 89.8114 3.21529C89.8114 4.92036 88.155 6.33314 86.1576 6.33314ZM82.5039 7.79463H89.8114V39.4603H82.5039V7.79463Z" fill="var(--fill-0, white)"/>
<path d="M104.276 7.30746C108.758 7.30746 109.586 10.5715 109.586 17.4405V39.4603H102.279V16.9533C102.279 14.6149 101.646 14.1278 100.428 14.1278C99.2098 14.1278 98.5765 14.6149 98.5765 16.9533V39.4603H91.2691V7.79463H98.5765V11.3509C99.356 9.59713 101.061 7.30746 104.276 7.30746Z" fill="var(--fill-0, white)"/>
<path d="M124.079 7.30746C128.561 7.30746 129.389 10.5715 129.389 17.4405V39.4603H122.081V16.9533C122.081 14.6149 121.448 14.1278 120.23 14.1278C119.012 14.1278 118.379 14.6149 118.379 16.9533V39.4603H111.072V7.79463H118.379V11.3509C119.158 9.59713 120.864 7.30746 124.079 7.30746Z" fill="var(--fill-0, white)"/>
<path d="M134.528 6.33314C132.53 6.33314 130.874 4.92036 130.874 3.21529C130.874 1.41278 132.53 0 134.528 0C136.525 0 138.181 1.41278 138.181 3.21529C138.181 4.92036 136.525 6.33314 134.528 6.33314ZM130.874 7.79463H138.181V39.4603H130.874V7.79463Z" fill="var(--fill-0, white)"/>
<path d="M152.646 7.30746C157.128 7.30746 157.956 10.5715 157.956 17.4405V39.4603H150.649V16.9533C150.649 14.6149 150.016 14.1278 148.798 14.1278C147.58 14.1278 146.947 14.6149 146.947 16.9533V39.4603H139.639V7.79463H146.947V11.3509C147.726 9.59713 149.431 7.30746 152.646 7.30746Z" fill="var(--fill-0, white)"/>
<path d="M170.452 7.79463H177.759V38.5834C177.759 46.4267 176.444 49.2036 169.575 49.2036H160.903V42.3833H167.626C169.477 42.3833 170.452 41.8961 170.452 38.5834V35.904C169.672 37.6578 167.967 39.9475 164.752 39.9475C160.27 39.9475 159.442 36.6835 159.442 29.8144V17.4405C159.442 10.5715 160.27 7.30746 164.752 7.30746C167.967 7.30746 169.672 9.59713 170.452 11.3509V7.79463ZM168.6 33.1272C169.818 33.1272 170.452 32.64 170.452 30.3016V16.9533C170.452 14.6149 169.818 14.1278 168.6 14.1278C167.382 14.1278 166.749 14.6149 166.749 16.9533V30.3016C166.749 32.64 167.382 33.1272 168.6 33.1272Z" fill="var(--fill-0, white)"/>
<path d="M191.472 20.9968C195.174 23.7249 197.561 25.8684 197.561 30.7888C197.561 36.1963 194.979 39.9475 188.598 39.9475C182.216 39.9475 179.244 37.1706 179.244 28.353H186.552C186.552 32.1528 187.234 33.1272 188.598 33.1272C189.962 33.1272 190.254 32.1528 190.254 30.7888C190.254 29.3273 189.767 28.3042 185.334 25.2351C182.313 23.1403 179.244 21.1429 179.244 15.979C179.244 11.0586 181.923 7.30746 188.062 7.30746C194.2 7.30746 197.074 11.0586 197.074 17.9276H189.767C189.767 15.1021 189.182 14.1278 188.062 14.1278C186.941 14.1278 186.552 15.1021 186.552 15.979C186.552 17.6353 187.672 18.2199 191.472 20.9968Z" fill="var(--fill-0, white)"/>
</g>
</g>
</svg>
