<svg overflow="visible" style="display: block;" viewBox="0 0 164.559 36.9855" fill="none" xmlns="http://www.w3.org/2000/svg">
<g id="Frame 1000005627">
<g id="Tagline">
<path d="M10.66 0.287V3.444H6.97V14.637H3.69V3.444H0V0.287H10.66Z" fill="var(--fill-0, white)"/>
<path d="M20.0908 0.287H23.3708V14.637H20.0908V8.938H15.5808V14.637H12.3008V0.287H15.5808V5.781H20.0908V0.287Z" fill="var(--fill-0, white)"/>
<path d="M29.319 11.48H35.059V14.637H26.039V0.287H34.9565V3.444H29.319V5.822H34.444V8.938H29.319V11.48Z" fill="var(--fill-0, white)"/>
<path d="M49.2916 14.924C47.1459 14.924 45.3624 14.2133 43.9411 12.792C42.5334 11.357 41.8296 9.58034 41.8296 7.462C41.8296 5.34367 42.5334 3.57383 43.9411 2.1525C45.3624 0.7175 47.1459 0 49.2916 0C50.5763 0 51.7653 0.300667 52.8586 0.902001C53.9519 1.48967 54.8129 2.296 55.4416 3.321L52.6126 4.961C52.2983 4.40067 51.8473 3.97017 51.2596 3.6695C50.6719 3.35517 50.0159 3.198 49.2916 3.198C48.0206 3.198 47.0024 3.5875 46.2371 4.3665C45.4854 5.1455 45.1096 6.17733 45.1096 7.462C45.1096 8.74667 45.4854 9.7785 46.2371 10.5575C47.0024 11.3365 48.0206 11.726 49.2916 11.726C50.0159 11.726 50.6719 11.5688 51.2596 11.2545C51.8609 10.9402 52.3119 10.5097 52.6126 9.963L55.4416 11.603C54.8266 12.628 53.9724 13.4412 52.8791 14.0425C51.7858 14.6302 50.5899 14.924 49.2916 14.924Z" fill="#FFDF00"/>
<path d="M66.3063 14.637L65.5888 12.382H60.2588L59.5413 14.637H55.9538L60.8328 0.287H65.0148L69.8938 14.637H66.3063ZM61.2428 9.307H64.6048L62.9238 4.0385L61.2428 9.307Z" fill="#FFDF00"/>
<path d="M76.0446 14.924C74.5823 14.924 73.3591 14.6097 72.3751 13.981C71.4048 13.3387 70.7146 12.4708 70.3046 11.3775L73.1336 9.7375C73.7076 11.0632 74.7121 11.726 76.1471 11.726C77.4454 11.726 78.0946 11.3365 78.0946 10.5575C78.0946 10.1338 77.8828 9.80584 77.4591 9.5735C77.0491 9.3275 76.2701 9.04734 75.1221 8.733C74.5208 8.569 73.9946 8.3845 73.5436 8.1795C73.0926 7.9745 72.6484 7.708 72.2111 7.38C71.7874 7.03833 71.4594 6.61467 71.2271 6.109C71.0084 5.60333 70.8991 5.0225 70.8991 4.3665C70.8991 3.04083 71.3706 1.98167 72.3136 1.189C73.2703 0.396334 74.4046 0 75.7166 0C76.8919 0 77.9306 0.280167 78.8326 0.8405C79.7346 1.38717 80.4453 2.18667 80.9646 3.239L78.1971 4.8585C77.9374 4.31183 77.6163 3.90183 77.2336 3.6285C76.8509 3.3415 76.3453 3.198 75.7166 3.198C75.2246 3.198 74.8419 3.30733 74.5686 3.526C74.3089 3.731 74.1791 3.98383 74.1791 4.2845C74.1791 4.63983 74.3431 4.94733 74.6711 5.207C75.0128 5.46667 75.7098 5.75367 76.7621 6.068C77.3361 6.24567 77.7803 6.38917 78.0946 6.4985C78.4089 6.60783 78.8053 6.79233 79.2836 7.052C79.7756 7.298 80.1446 7.5645 80.3906 7.8515C80.6503 8.12483 80.8758 8.49383 81.0671 8.9585C81.2721 9.4095 81.3746 9.92883 81.3746 10.5165C81.3746 11.8832 80.8826 12.9628 79.8986 13.7555C78.9146 14.5345 77.6299 14.924 76.0446 14.924Z" fill="#FFDF00"/>
<path d="M83.1187 0.287H86.3987V14.637H83.1187V0.287Z" fill="#FFDF00"/>
<path d="M97.0643 0.287H100.344V14.637H97.8843L92.3493 6.847V14.637H89.0693V0.287H91.5293L97.0643 8.077V0.287Z" fill="#FFDF00"/>
<path d="M115.144 12.7715C113.695 14.2065 111.932 14.924 109.855 14.924C107.777 14.924 106.014 14.2065 104.566 12.7715C103.117 11.3365 102.393 9.56667 102.393 7.462C102.393 5.35733 103.117 3.5875 104.566 2.1525C106.014 0.7175 107.777 0 109.855 0C111.932 0 113.695 0.7175 115.144 2.1525C116.592 3.5875 117.317 5.35733 117.317 7.462C117.317 9.56667 116.592 11.3365 115.144 12.7715ZM106.862 10.537C107.668 11.3297 108.666 11.726 109.855 11.726C111.044 11.726 112.035 11.3297 112.827 10.537C113.634 9.74433 114.037 8.71933 114.037 7.462C114.037 6.20467 113.634 5.17967 112.827 4.387C112.035 3.59433 111.044 3.198 109.855 3.198C108.666 3.198 107.668 3.59433 106.862 4.387C106.069 5.17967 105.673 6.20467 105.673 7.462C105.673 8.71933 106.069 9.74433 106.862 10.537Z" fill="#FFDF00"/>
<path d="M136.383 0.287L131.566 9.1225V14.637H128.286V9.1225L123.468 0.287H127.199L129.926 5.822L132.652 0.287H136.383Z" fill="var(--fill-0, white)"/>
<path d="M148.931 12.7715C147.482 14.2065 145.719 14.924 143.642 14.924C141.565 14.924 139.802 14.2065 138.353 12.7715C136.904 11.3365 136.18 9.56667 136.18 7.462C136.18 5.35733 136.904 3.5875 138.353 2.1525C139.802 0.7175 141.565 0 143.642 0C145.719 0 147.482 0.7175 148.931 2.1525C150.38 3.5875 151.104 5.35733 151.104 7.462C151.104 9.56667 150.38 11.3365 148.931 12.7715ZM140.649 10.537C141.455 11.3297 142.453 11.726 143.642 11.726C144.831 11.726 145.822 11.3297 146.615 10.537C147.421 9.74433 147.824 8.71933 147.824 7.462C147.824 6.20467 147.421 5.17967 146.615 4.387C145.822 3.59433 144.831 3.198 143.642 3.198C142.453 3.198 141.455 3.59433 140.649 4.387C139.856 5.17967 139.46 6.20467 139.46 7.462C139.46 8.71933 139.856 9.74433 140.649 10.537Z" fill="var(--fill-0, white)"/>
<path d="M162.465 13.5915C161.427 14.4798 160.101 14.924 158.488 14.924C156.876 14.924 155.55 14.4798 154.511 13.5915C153.473 12.7032 152.953 11.5073 152.953 10.004V0.287H156.233V9.717C156.233 11.0563 156.985 11.726 158.488 11.726C159.992 11.726 160.743 11.0563 160.743 9.717V0.287H164.023V10.004C164.023 11.5073 163.504 12.7032 162.465 13.5915Z" fill="var(--fill-0, white)"/>
<path d="M5.32303 32.8035H11.5462V36.637H1.34017V19.212H5.32303V32.8035Z" fill="var(--fill-0, white)"/>
<path d="M27.2892 34.3718C25.5301 36.1143 23.3893 36.9855 20.8669 36.9855C18.3444 36.9855 16.2036 36.1143 14.4445 34.3718C12.6854 32.6293 11.8059 30.4802 11.8059 27.9245C11.8059 25.3688 12.6854 23.2198 14.4445 21.4773C16.2036 19.7348 18.3444 18.8635 20.8669 18.8635C23.3893 18.8635 25.5301 19.7348 27.2892 21.4773C29.0483 23.2198 29.9279 25.3688 29.9279 27.9245C29.9279 30.4802 29.0483 32.6293 27.2892 34.3718ZM17.2325 31.6584C18.2116 32.621 19.4231 33.1022 20.8669 33.1022C22.3107 33.1022 23.5138 32.621 24.4763 31.6584C25.4555 30.6959 25.945 29.4513 25.945 27.9245C25.945 26.3977 25.4555 25.1531 24.4763 24.1906C23.5138 23.228 22.3107 22.7468 20.8669 22.7468C19.4231 22.7468 18.2116 23.228 17.2325 24.1906C16.27 25.1531 15.7887 26.3977 15.7887 27.9245C15.7887 29.4513 16.27 30.6959 17.2325 31.6584Z" fill="var(--fill-0, white)"/>
<path d="M35.8477 36.637L30.1721 19.212H34.5284L38.3868 32.0318L42.2452 19.212H46.6014L40.9258 36.637H35.8477Z" fill="var(--fill-0, white)"/>
<path d="M52.3307 32.8035H59.3007V36.637H48.3478V19.212H59.1762V23.0455H52.3307V25.9331H58.5539V29.7168H52.3307V32.8035Z" fill="var(--fill-0, white)"/>
<path d="M79.9685 19.212V23.0455H75.4878V36.637H71.505V23.0455H67.0243V19.212H79.9685Z" fill="var(--fill-0, white)"/>
<path d="M95.7008 34.3718C93.9417 36.1143 91.8009 36.9855 89.2785 36.9855C86.756 36.9855 84.6152 36.1143 82.8561 34.3718C81.097 32.6293 80.2175 30.4802 80.2175 27.9245C80.2175 25.3688 81.097 23.2198 82.8561 21.4773C84.6152 19.7348 86.756 18.8635 89.2785 18.8635C91.8009 18.8635 93.9417 19.7348 95.7008 21.4773C97.4599 23.2198 98.3395 25.3688 98.3395 27.9245C98.3395 30.4802 97.4599 32.6293 95.7008 34.3718ZM85.6441 31.6584C86.6232 32.621 87.8347 33.1022 89.2785 33.1022C90.7223 33.1022 91.9254 32.621 92.8879 31.6584C93.8671 30.6959 94.3566 29.4513 94.3566 27.9245C94.3566 26.3977 93.8671 25.1531 92.8879 24.1906C91.9254 23.228 90.7223 22.7468 89.2785 22.7468C87.8347 22.7468 86.6232 23.228 85.6441 24.1906C84.6816 25.1531 84.2003 26.3977 84.2003 27.9245C84.2003 29.4513 84.6816 30.6959 85.6441 31.6584Z" fill="var(--fill-0, white)"/>
<path d="M116.762 19.212H120.745V36.637H116.762V29.7168H111.286V36.637H107.303V19.212H111.286V25.8833H116.762V19.212Z" fill="var(--fill-0, white)"/>
<path d="M135.062 36.637L134.191 33.8988H127.719L126.848 36.637H122.492L128.416 19.212H133.494L139.419 36.637H135.062ZM128.914 30.1649H132.996L130.955 23.7674L128.914 30.1649Z" fill="var(--fill-0, white)"/>
<path d="M151.613 19.212V23.0455H147.133V36.637H143.15V23.0455H138.669V19.212H151.613Z" fill="var(--fill-0, white)"/>
<path d="M157.589 32.8035H164.559V36.637H153.606V19.212H164.434V23.0455H157.589V25.9331H163.812V29.7168H157.589V32.8035Z" fill="var(--fill-0, white)"/>
</g>
</g>
</svg>
