<svg overflow="visible" style="display: block;" viewBox="0 0 189.521 49.2036" fill="none" xmlns="http://www.w3.org/2000/svg">
<g id="Frame 1000005629">
<g id="paid in cash">
<path d="M13.0073 7.30746C17.4892 7.30746 18.3174 10.5715 18.3174 17.4405V29.8144C18.3174 36.6835 17.4892 39.9475 13.0073 39.9475C9.792 39.9475 8.08693 37.6578 7.30746 35.904V49.2036H0V7.79463H7.30746V11.3509C8.08693 9.59713 9.792 7.30746 13.0073 7.30746ZM11.0099 30.3016V16.9533C11.0099 14.6149 10.3766 14.1278 9.15869 14.1278C7.94078 14.1278 7.30746 14.6149 7.30746 16.9533V30.3016C7.30746 32.64 7.94078 33.1272 9.15869 33.1272C10.3766 33.1272 11.0099 32.64 11.0099 30.3016Z" fill="var(--fill-0, white)"/>
<path d="M38.1313 34.7835C38.1313 36.8296 38.1313 37.9014 38.6184 39.4603H32.2853C31.0674 38.7296 30.8238 36.7809 30.8238 35.904C29.7033 38.6808 28.2418 39.9475 25.465 39.9475C22.201 39.9475 19.3267 37.4629 19.3267 31.7144C19.3267 20.5096 30.7751 21.5814 30.8238 16.4174C30.8238 14.6149 30.3366 14.1278 29.0213 14.1278C27.6085 14.1278 27.1213 15.1021 27.1213 17.4405V18.4148H19.8139V17.4405C19.8139 10.5715 22.6394 7.30746 29.0213 7.30746C35.4031 7.30746 38.1313 10.5715 38.1313 17.4405V34.7835ZM30.8238 31.9093V24.2608C29.3136 26.453 26.6342 27.4273 26.6342 30.399C26.6342 32.299 27.4624 33.1272 28.6803 33.1272C29.6546 33.1272 30.3366 32.4939 30.8238 31.9093Z" fill="var(--fill-0, white)"/>
<path d="M43.7344 6.33314C41.737 6.33314 40.0807 4.92036 40.0807 3.21529C40.0807 1.41278 41.737 0 43.7344 0C45.7318 0 47.3881 1.41278 47.3881 3.21529C47.3881 4.92036 45.7318 6.33314 43.7344 6.33314ZM40.0807 7.79463H47.3881V39.4603H40.0807V7.79463Z" fill="var(--fill-0, white)"/>
<path d="M67.1632 34.7835C67.1632 36.8296 67.1632 37.9014 67.6504 39.4603H61.3172C60.0993 38.7296 59.8557 36.7809 59.8557 35.904C59.0763 37.6578 57.3712 39.9475 54.1559 39.9475C49.674 39.9475 48.8458 36.6835 48.8458 29.8144V17.4405C48.8458 10.5715 49.674 7.30746 54.1559 7.30746C57.3712 7.30746 59.0763 9.59713 59.8557 11.3509V0.487167H67.1632V34.7835ZM59.8557 30.3016V16.9533C59.8557 14.6149 59.2224 14.1278 58.0045 14.1278C56.7866 14.1278 56.1533 14.6149 56.1533 16.9533V30.3016C56.1533 32.64 56.7866 33.1272 58.0045 33.1272C59.2224 33.1272 59.8557 32.64 59.8557 30.3016Z" fill="var(--fill-0, white)"/>
<path d="M79.5923 6.33314C77.595 6.33314 75.9386 4.92036 75.9386 3.21529C75.9386 1.41278 77.595 0 79.5923 0C81.5897 0 83.2461 1.41278 83.2461 3.21529C83.2461 4.92036 81.5897 6.33314 79.5923 6.33314ZM75.9386 7.79463H83.2461V39.4603H75.9386V7.79463Z" fill="var(--fill-0, white)"/>
<path d="M97.7111 7.30746C102.193 7.30746 103.021 10.5715 103.021 17.4405V39.4603H95.7137V16.9533C95.7137 14.6149 95.0804 14.1278 93.8624 14.1278C92.6445 14.1278 92.0112 14.6149 92.0112 16.9533V39.4603H84.7038V7.79463H92.0112V11.3509C92.7907 9.59713 94.4958 7.30746 97.7111 7.30746Z" fill="var(--fill-0, white)"/>
<path d="M122.806 20.2173V18.4148C122.806 15.1021 122.514 14.1278 120.955 14.1278C119.348 14.1278 119.104 15.1021 119.104 18.4148V28.8401C119.104 32.1528 119.348 33.1272 120.955 33.1272C122.563 33.1272 122.806 32.1528 122.806 28.8401V27.0376H130.114V28.8401C130.114 36.6835 126.85 39.9475 120.955 39.9475C115.061 39.9475 111.797 36.6835 111.797 28.8401V18.4148C111.797 10.5715 115.061 7.30746 120.955 7.30746C126.85 7.30746 130.114 10.5715 130.114 18.4148V20.2173H122.806Z" fill="var(--fill-0, white)"/>
<path d="M149.928 34.7835C149.928 36.8296 149.928 37.9014 150.415 39.4603H144.082C142.864 38.7296 142.62 36.7809 142.62 35.904C141.5 38.6808 140.038 39.9475 137.262 39.9475C133.998 39.9475 131.123 37.4629 131.123 31.7144C131.123 20.5096 142.572 21.5814 142.62 16.4174C142.62 14.6149 142.133 14.1278 140.818 14.1278C139.405 14.1278 138.918 15.1021 138.918 17.4405V18.4148H131.61V17.4405C131.61 10.5715 134.436 7.30746 140.818 7.30746C147.2 7.30746 149.928 10.5715 149.928 17.4405V34.7835ZM142.62 31.9093V24.2608C141.11 26.453 138.431 27.4273 138.431 30.399C138.431 32.299 139.259 33.1272 140.477 33.1272C141.451 33.1272 142.133 32.4939 142.62 31.9093Z" fill="var(--fill-0, white)"/>
<path d="M163.629 20.9968C167.332 23.7249 169.719 25.8684 169.719 30.7888C169.719 36.1963 167.137 39.9475 160.755 39.9475C154.373 39.9475 151.401 37.1706 151.401 28.353H158.709C158.709 32.1528 159.391 33.1272 160.755 33.1272C162.119 33.1272 162.411 32.1528 162.411 30.7888C162.411 29.3273 161.924 28.3042 157.491 25.2351C154.471 23.1403 151.401 21.1429 151.401 15.979C151.401 11.0586 154.081 7.30746 160.219 7.30746C166.357 7.30746 169.232 11.0586 169.232 17.9276H161.924C161.924 15.1021 161.34 14.1278 160.219 14.1278C159.099 14.1278 158.709 15.1021 158.709 15.979C158.709 17.6353 159.829 18.2199 163.629 20.9968Z" fill="var(--fill-0, white)"/>
<path d="M184.211 7.30746C188.693 7.30746 189.521 10.5715 189.521 17.4405V39.4603H182.214V16.9533C182.214 14.6149 181.581 14.1278 180.363 14.1278C179.145 14.1278 178.511 14.6149 178.511 16.9533V39.4603H171.204V0.487167H178.511V11.3509C179.291 9.59713 180.996 7.30746 184.211 7.30746Z" fill="var(--fill-0, white)"/>
</g>
</g>
</svg>
