<svg width="24" height="24" viewBox="0 0 24 24" fill="none" xmlns="http://www.w3.org/2000/svg">
<g id="gift">
<g id="Vector">
<path d="M2.75024 19.5V12.5C2.75024 11.8097 3.30989 11.25 4.00024 11.25C4.6906 11.25 5.25024 11.8097 5.25024 12.5V19.5C5.25024 19.9142 5.58603 20.25 6.00024 20.25H18.0002C18.4145 20.25 18.7502 19.9142 18.7502 19.5V12.5C18.7502 11.8097 19.3099 11.25 20.0002 11.25C20.6906 11.25 21.2502 11.8097 21.2502 12.5V19.5C21.2502 21.295 19.7952 22.75 18.0002 22.75H6.00024C4.20532 22.75 2.75024 21.295 2.75024 19.5Z" fill="#0A2ECB"/>
<path d="M20.75 9.50002C20.75 9.0858 20.4142 8.75002 20 8.75002H4C3.58579 8.75002 3.25 9.0858 3.25 9.50002V10.5C3.25 10.9142 3.58603 11.25 4.00024 11.25H20.0002C20.4145 11.25 20.75 10.9142 20.75 10.5V9.50002ZM23.25 10.5C23.25 12.2949 21.7949 13.75 20 13.75H4C2.20508 13.75 0.75 12.2949 0.75 10.5V9.50002C0.75 7.70509 2.20507 6.25002 4 6.25002H20C21.7949 6.25002 23.25 7.70509 23.25 9.50002V10.5Z" fill="#0A2ECB"/>
<path d="M10.7501 21.5V7.50002C10.7501 6.80966 11.3098 6.25002 12.0001 6.25002C12.6905 6.25002 13.2501 6.80966 13.2501 7.50002V21.5C13.2501 22.1904 12.6905 22.75 12.0001 22.75C11.3098 22.75 10.7501 22.1904 10.7501 21.5Z" fill="#0A2ECB"/>
<path d="M7.5 1.25C9.94512 1.25 11.3975 3.01443 12.1582 4.39746C12.553 5.11526 12.8159 5.82208 12.9805 6.3418C13.0634 6.60378 13.1236 6.82434 13.1631 6.98242C13.1828 7.06141 13.1977 7.12573 13.208 7.17188C13.2131 7.19478 13.2168 7.21363 13.2197 7.22754C13.2212 7.23445 13.2227 7.24055 13.2236 7.24512C13.2241 7.24726 13.2243 7.24938 13.2246 7.25098L13.2256 7.25293C13.2257 7.25337 13.2257 7.25485 12 7.5L13.2256 7.25488C13.299 7.6221 13.2042 8.00336 12.9668 8.29297C12.7294 8.58244 12.3744 8.75 12 8.75H7.5C6.50544 8.75 5.55189 8.35463 4.84863 7.65137C4.18923 6.99197 3.80077 6.11255 3.75488 5.18555L3.75 5C3.75 4.00544 4.14537 3.05189 4.84863 2.34863C5.55189 1.64537 6.50544 1.25 7.5 1.25ZM6.25586 5.12402C6.28436 5.41001 6.4112 5.67878 6.61621 5.88379C6.85063 6.11821 7.16848 6.25 7.5 6.25H10.2803C10.1891 6.0387 10.086 5.81929 9.9668 5.60254C9.35247 4.48561 8.55485 3.75 7.5 3.75C7.16848 3.75 6.85063 3.88179 6.61621 4.11621C6.38179 4.35063 6.25 4.66848 6.25 5L6.25586 5.12402Z" fill="#0A2ECB"/>
<path d="M17.7501 5C17.7501 4.66848 17.6183 4.35063 17.3839 4.11621C17.1495 3.88179 16.8316 3.75 16.5001 3.75C15.4453 3.75 14.6477 4.48561 14.0333 5.60254C13.9141 5.81929 13.811 6.0387 13.7198 6.25H16.5001C16.8316 6.25 17.1495 6.11821 17.3839 5.88379C17.6183 5.64937 17.7501 5.33152 17.7501 5ZM20.2501 5C20.2501 5.99456 19.8548 6.94811 19.1515 7.65137C18.4921 8.31077 17.6127 8.69923 16.6857 8.74512L16.5001 8.75H12C11.6256 8.75 11.2707 8.58244 11.0333 8.29297C10.7959 8.00336 10.7011 7.6221 10.7745 7.25488L12 7.5C10.7743 7.25485 10.7744 7.25532 10.7745 7.25488V7.25293L10.7755 7.25098C10.7758 7.24938 10.776 7.24726 10.7765 7.24512C10.7774 7.24055 10.7789 7.23445 10.7804 7.22754C10.7833 7.21363 10.787 7.19478 10.7921 7.17188C10.8024 7.12573 10.8173 7.06141 10.837 6.98242C10.8766 6.82434 10.9367 6.60378 11.0197 6.3418C11.1842 5.82208 11.4471 5.11526 11.8419 4.39746C12.6026 3.01443 14.055 1.25 16.5001 1.25C17.4947 1.25 18.4482 1.64537 19.1515 2.34863C19.8548 3.05189 20.2501 4.00544 20.2501 5Z" fill="#0A2ECB"/>
</g>
</g>
</svg>
